<?xml version="1.0" encoding="utf-8"?>
<!-- Generator: Adobe Illustrator 16.0.3, SVG Export Plug-In . SVG Version: 6.00 Build 0)  -->
<!DOCTYPE svg PUBLIC "-//W3C//DTD SVG 1.1//EN" "http://www.w3.org/Graphics/SVG/1.1/DTD/svg11.dtd">
<svg version="1.1" xmlns="http://www.w3.org/2000/svg" xmlns:xlink="http://www.w3.org/1999/xlink" x="0px" y="0px"
	 width="2835.646px" height="2835.646px" viewBox="-902.807 -904.233 2835.646 2835.646"
	 enable-background="new -902.807 -904.233 2835.646 2835.646" xml:space="preserve">
<g id="Layer_4">
	<g id="Layer_3">
		<rect x="-902.307" y="-903.733" fill="#161616" stroke="#FFFFFF" stroke-miterlimit="10" width="2834.646" height="2834.646"/>
	</g>
</g>
<g id="Layer_1">
	<g id="Workstation_1_" opacity="0.8">
		<g id="Group">
			<g id="Outline">
				<path fill="none" stroke="#FFFFFF" stroke-width="12" stroke-miterlimit="10" d="M739.459,630.771H290.575
					c-12.85,0-23.558-10.707-23.558-23.557V324.522c0-13.065,10.708-23.559,23.559-23.559h448.883
					c13.062,0,23.559,10.49,23.559,23.559v282.689C763.017,620.275,752.307,630.771,739.459,630.771z"/>
				<path fill="none" stroke="#FFFFFF" stroke-width="12" stroke-miterlimit="10" d="M640.942,661.607H515.017h-125.93
					c-18.412,0-33.193,14.779-33.193,33.197v38.121h159.123H674.14v-38.121C674.139,676.598,659.358,661.607,640.942,661.607z"/>
			</g>
			<g id="Fill" opacity="0.5">
				<path fill="none" stroke="#FFFFFF" stroke-width="4" stroke-miterlimit="10" d="M583.547,300.965h-5.567L267.451,611.498
					c0.209,1.496,0.637,2.785,1.28,4.283L583.547,300.965z"/>
				<polygon fill="none" stroke="#FFFFFF" stroke-width="4" stroke-miterlimit="10" points="548.427,300.965 542.856,300.965 
					267.017,577.014 267.017,582.369 				"/>
				<polygon fill="none" stroke="#FFFFFF" stroke-width="4" stroke-miterlimit="10" points="513.302,300.965 507.947,300.965 
					267.017,541.895 267.017,547.461 				"/>
				<path fill="none" stroke="#FFFFFF" stroke-width="4" stroke-miterlimit="10" d="M616.098,300.965h-5.563L282.44,629.486
					c1.281,0.434,2.778,0.854,4.283,1.068L616.098,300.965z"/>
				<polygon fill="none" stroke="#FFFFFF" stroke-width="4" stroke-miterlimit="10" points="651.226,300.965 645.862,300.965 
					316.063,630.771 321.417,630.771 				"/>
				<polygon fill="none" stroke="#FFFFFF" stroke-width="4" stroke-miterlimit="10" points="380.095,300.965 374.531,300.965 
					267.017,408.685 267.017,414.039 				"/>
				<polygon fill="none" stroke="#FFFFFF" stroke-width="4" stroke-miterlimit="10" points="478.182,300.965 472.828,300.965 
					267.017,506.772 267.017,512.341 				"/>
				<polygon fill="none" stroke="#FFFFFF" stroke-width="4" stroke-miterlimit="10" points="267.017,340.797 267.017,346.365 
					312.208,300.965 306.637,300.965 				"/>
				<polygon fill="none" stroke="#FFFFFF" stroke-width="4" stroke-miterlimit="10" points="686.344,300.965 680.989,300.965 
					351.184,630.771 356.538,630.771 				"/>
				<polygon fill="none" stroke="#FFFFFF" stroke-width="4" stroke-miterlimit="10" points="410.504,300.965 404.94,300.965 
					267.017,439.098 267.017,444.452 				"/>
				<polygon fill="none" stroke="#FFFFFF" stroke-width="4" stroke-miterlimit="10" points="445.414,300.965 440.06,300.965 
					267.017,474.218 267.017,479.571 				"/>
				<polygon fill="none" stroke="#FFFFFF" stroke-width="4" stroke-miterlimit="10" points="344.976,300.965 339.405,300.965 
					267.017,373.562 267.017,378.916 				"/>
				<polygon fill="none" stroke="#FFFFFF" stroke-width="4" stroke-miterlimit="10" points="763.017,500.348 763.017,494.993 
					627.024,630.771 632.588,630.771 				"/>
				<polygon fill="none" stroke="#FFFFFF" stroke-width="4" stroke-miterlimit="10" points="763.017,465.224 763.017,459.871 
					591.896,630.771 597.467,630.771 				"/>
				<polygon fill="none" stroke="#FFFFFF" stroke-width="4" stroke-miterlimit="10" points="763.017,535.469 763.017,530.117 
					662.144,630.771 667.498,630.771 				"/>
				<polygon fill="none" stroke="#FFFFFF" stroke-width="4" stroke-miterlimit="10" points="763.017,603.359 763.017,597.795 
					730.03,630.771 735.385,630.771 				"/>
				<polygon fill="none" stroke="#FFFFFF" stroke-width="4" stroke-miterlimit="10" points="763.017,568.232 763.017,562.668 
					694.911,630.771 700.264,630.771 				"/>
				<path fill="none" stroke="#FFFFFF" stroke-width="4" stroke-miterlimit="10" d="M763.017,327.304v-2.782
					c0-0.856,0-1.715-0.218-2.572L453.979,630.771h5.563L763.017,327.304z"/>
				<polygon fill="none" stroke="#FFFFFF" stroke-width="4" stroke-miterlimit="10" points="763.017,430.315 763.017,424.748 
					556.996,630.771 562.342,630.771 				"/>
				<polygon fill="none" stroke="#FFFFFF" stroke-width="4" stroke-miterlimit="10" points="721.465,300.965 715.899,300.965 
					386.093,630.771 391.664,630.771 				"/>
				<path fill="none" stroke="#FFFFFF" stroke-width="4" stroke-miterlimit="10" d="M751.021,304.174
					c-1.281-0.644-2.359-1.285-3.642-1.713L418.858,630.771h5.563L751.021,304.174z"/>
				<polygon fill="none" stroke="#FFFFFF" stroke-width="4" stroke-miterlimit="10" points="763.017,362.427 763.017,356.86 
					489.1,630.771 494.454,630.771 				"/>
				<polygon fill="none" stroke="#FFFFFF" stroke-width="4" stroke-miterlimit="10" points="763.017,397.549 763.017,391.983 
					524.228,630.771 529.581,630.771 				"/>
			</g>
		</g>
		
			<rect x="449.269" y="401.728" fill="#303030" stroke="#FFFFFF" stroke-width="12" stroke-miterlimit="10" width="133.207" height="133.208"/>
	</g>
	<g id="memory_1_" opacity="0.8">
		<g id="memory">
			<path fill="#FFFFFF" d="M748.103,235.21v-1.714h4.548v-2.828h-4.548v-1.114h-4.438v-6.377h-30.171v6.267h-4.549v1.115h-4.549
				v2.828h4.549v1.713h4.549v3.823h-4.549v1.114h-4.549v2.828h4.549v1.713h4.549v4.387h-4.549v1.114h-4.549v2.83h4.549v1.714h4.549
				v4.104h-4.549v1.115h-4.549v2.828h4.549v1.713h4.549v3.662h-4.549v1.114h-4.549v2.827h4.549v1.715h4.549v6.266h30.17v-6.156
				h4.437v-1.714h4.549v-2.831h-4.549v-1.114h-4.437v-3.661h4.437v-1.713h4.549v-2.828h-4.549v-1.114h-4.437v-4.104h4.437v-1.713
				h4.549v-2.829h-4.549v-1.114h-4.437v-4.387h4.437v-1.713h4.549v-2.828h-4.549v-1.115h-4.437v-3.82h4.438L748.103,235.21
				L748.103,235.21z M737.009,230.717c-1.285,0-2.328-1.042-2.328-2.329c0-1.286,1.043-2.33,2.328-2.33
				c1.287,0,2.33,1.044,2.33,2.33C739.339,229.675,738.296,230.717,737.009,230.717z"/>
		</g>
		<g id="memory_2_">
			<path fill="#FFFFFF" d="M569.358,235.21v-1.714h4.547v-2.828h-4.547v-1.114h-4.438v-6.377h-30.172v6.267H530.2v1.115h-4.549
				v2.828h4.549v1.713h4.549v3.823H530.2v1.114h-4.549v2.828h4.549v1.713h4.549v4.387H530.2v1.114h-4.549v2.83h4.549v1.714h4.549
				v4.104H530.2v1.114h-4.549v2.828h4.549v1.713h4.549v3.662H530.2v1.114h-4.549v2.827h4.549v1.715h4.549v6.266h30.17v-6.155h4.438
				v-1.714h4.549v-2.832h-4.549v-1.113h-4.438v-3.661h4.438v-1.713h4.549v-2.828h-4.549v-1.114h-4.438v-4.104h4.438v-1.713h4.549
				v-2.829h-4.549v-1.114h-4.438v-4.387h4.438v-1.713h4.549v-2.828h-4.549v-1.115h-4.438v-3.82h4.438v-0.003H569.358z
				 M558.265,230.717c-1.285,0-2.328-1.042-2.328-2.329c0-1.286,1.043-2.33,2.328-2.33c1.287,0,2.33,1.044,2.33,2.33
				C560.595,229.675,559.552,230.717,558.265,230.717z"/>
		</g>
		<g id="memory_3_">
			<path fill="#FFFFFF" d="M613.612,235.21v-1.714h4.547v-2.828h-4.547v-1.114h-4.438v-6.377h-30.172v6.267h-4.549v1.115h-4.549
				v2.828h4.549v1.713h4.549v3.823h-4.549v1.114h-4.549v2.828h4.549v1.713h4.549v4.387h-4.549v1.114h-4.549v2.83h4.549v1.714h4.549
				v4.104h-4.549v1.115h-4.549v2.828h4.549v1.713h4.549v3.662h-4.549v1.114h-4.549v2.827h4.549v1.715h4.549v6.266h30.17v-6.156
				h4.438v-1.714h4.549v-2.831h-4.549v-1.114h-4.438v-3.661h4.438v-1.713h4.549v-2.828h-4.549v-1.114h-4.438v-4.104h4.438v-1.713
				h4.549v-2.829h-4.549v-1.114h-4.438v-4.387h4.438v-1.713h4.549v-2.828h-4.549v-1.115h-4.438v-3.82h4.438v-0.003H613.612z
				 M602.519,230.717c-1.285,0-2.328-1.042-2.328-2.329c0-1.286,1.043-2.33,2.328-2.33c1.287,0,2.33,1.044,2.33,2.33
				C604.849,229.675,603.806,230.717,602.519,230.717z"/>
		</g>
		<g id="memory_4_">
			<path fill="#FFFFFF" d="M658.592,235.21v-1.714h4.548v-2.828h-4.548v-1.114h-4.438v-6.377h-30.171v6.267h-4.549v1.115h-4.549
				v2.828h4.549v1.713h4.549v3.823h-4.549v1.114h-4.549v2.828h4.549v1.713h4.549v4.387h-4.549v1.114h-4.549v2.83h4.549v1.714h4.549
				v4.104h-4.549v1.115h-4.549v2.828h4.549v1.713h4.549v3.662h-4.549v1.114h-4.549v2.827h4.549v1.715h4.549v6.266h30.17v-6.156
				h4.437v-1.714h4.549v-2.831h-4.549v-1.114h-4.437v-3.661h4.437v-1.713h4.549v-2.828h-4.549v-1.114h-4.437v-4.104h4.437v-1.713
				h4.549v-2.829h-4.549v-1.114h-4.437v-4.387h4.437v-1.713h4.549v-2.828h-4.549v-1.115h-4.437v-3.82h4.438L658.592,235.21
				L658.592,235.21z M647.498,230.717c-1.285,0-2.328-1.042-2.328-2.329c0-1.286,1.043-2.33,2.328-2.33
				c1.287,0,2.33,1.044,2.33,2.33C649.828,229.675,648.785,230.717,647.498,230.717z"/>
		</g>
		<g id="memory_5_">
			<path fill="#FFFFFF" d="M702.846,235.21v-1.714h4.548v-2.828h-4.548v-1.114h-4.438v-6.377h-30.171v6.267h-4.549v1.115h-4.549
				v2.828h4.549v1.713h4.549v3.823h-4.549v1.114h-4.549v2.828h4.549v1.713h4.549v4.387h-4.549v1.114h-4.549v2.83h4.549v1.714h4.549
				v4.104h-4.549v1.115h-4.549v2.828h4.549v1.713h4.549v3.662h-4.549v1.114h-4.549v2.827h4.549v1.715h4.549v6.266h30.17v-6.156
				h4.437v-1.714h4.549v-2.831h-4.549v-1.114h-4.437v-3.661h4.437v-1.713h4.549v-2.828h-4.549v-1.114h-4.437v-4.104h4.437v-1.713
				h4.549v-2.829h-4.549v-1.114h-4.437v-4.387h4.437v-1.713h4.549v-2.828h-4.549v-1.115h-4.437v-3.82h4.438L702.846,235.21
				L702.846,235.21z M691.752,230.717c-1.285,0-2.328-1.042-2.328-2.329c0-1.286,1.043-2.33,2.328-2.33
				c1.287,0,2.33,1.044,2.33,2.33C694.082,229.675,693.039,230.717,691.752,230.717z"/>
		</g>
	</g>
	<g>
		<defs>
			<rect id="memory_clip" x="525.652" y="222.666" width="48.378" height="57.301"/>
		</defs>
		<clipPath id="memory_clip_2_">
			<use xlink:href="#memory_clip"  overflow="visible"/>
		</clipPath>
		<path id="memory_progress" opacity="0.8" clip-path="url(#memory_clip_2_)" fill="#00CFFF" enable-background="new    " d="
			M747.677,273.812v-1.714h4.549v-2.831h-4.549v-1.114h-4.437v-3.661h4.437v-1.713h4.549v-2.828h-4.549v-1.114h-4.437v-4.104h4.437
			v-1.713h4.549v-2.829h-4.549v-1.114h-4.437v-4.387h4.437v-1.713h4.549v-2.828h-4.549v-1.115h-4.437v-3.82h4.438v-0.003h0.001
			v-1.714h4.548v-2.828h-4.548v-1.114h-4.438v-6.377H713.07v6.267h-4.549v1.115h-4.549v0.109h-1.551v-1.114h-4.438v-6.377h-30.171
			v6.267h-4.549v1.115h-4.549v0.109h-0.548v-1.114h-4.438v-6.377H623.56v6.267h-4.549v1.115h-4.549v0.109h-1.273v-1.114h-4.438
			v-6.377h-30.172v6.267h-4.549v1.115h-4.549v0.109h-0.547v-1.114h-4.438v-6.377h-30.172v6.267h-4.549v1.115h-4.125v2.828h4.125
			v1.713h4.549v3.823h-4.549v1.114h-4.125v2.828h4.125v1.713h4.549v4.387h-4.549v1.114h-4.125v2.83h4.125v1.714h4.549v4.104h-4.549
			v1.114h-4.125v2.828h4.125v1.713h4.549v3.662h-4.549v1.114h-4.125v2.827h4.125v1.715h4.549v6.266h30.17v-6.155h4.438v-1.714h4.549
			v-0.111h0.549v1.715h4.549v6.266h30.17v-6.156h4.438v-1.714h4.549v-0.111h1.275v1.715h4.549v6.266h30.17v-6.156h4.437v-1.714
			h4.549v-0.111h0.55v1.715h4.549v6.266h30.17v-6.156h4.437v-1.714h4.549v-0.111h1.553v1.715h4.549v6.266h30.17v-6.156H747.677z
			 M557.841,230.717c-1.285,0-2.328-1.042-2.328-2.329c0-1.286,1.043-2.33,2.328-2.33c1.287,0,2.33,1.044,2.33,2.33
			C560.171,229.675,559.128,230.717,557.841,230.717z M578.579,268.045h-4.549v1.114h-4.549v0.106h-0.549v-1.113h-4.438v-3.661
			h4.438v-1.713h4.549v-0.108h0.549v1.713h4.549V268.045z M578.579,258.728h-4.549v1.115h-4.549v0.108h-0.549v-1.114h-4.438v-4.104
			h4.438v-1.713h4.549v-0.11h0.549v1.714h4.549V258.728z M578.579,248.965h-4.549v1.114h-4.549v0.111h-0.549v-1.114h-4.438v-4.387
			h4.438v-1.713h4.549v-0.111h0.549v1.713h4.549V248.965z M578.579,238.923h-4.549v1.114h-4.549v0.111h-0.549v-1.115h-4.438v-3.82
			h4.438v-0.003h0.002v-1.714h4.547v-0.109h0.549v1.713h4.549V238.923z M602.095,230.717c-1.285,0-2.328-1.042-2.328-2.329
			c0-1.286,1.043-2.33,2.328-2.33c1.287,0,2.33,1.044,2.33,2.33C604.425,229.675,603.382,230.717,602.095,230.717z M623.56,268.045
			h-4.549v1.114h-4.549v0.107h-1.275v-1.114h-4.438v-3.661h4.438v-1.713h4.549v-0.108h1.275v1.713h4.549V268.045z M623.56,258.728
			h-4.549v1.115h-4.549v0.108h-1.275v-1.114h-4.438v-4.104h4.438v-1.713h4.549v-0.11h1.275v1.714h4.549V258.728z M623.56,248.965
			h-4.549v1.114h-4.549v0.111h-1.275v-1.114h-4.438v-4.387h4.438v-1.713h4.549v-0.111h1.275v1.713h4.549V248.965z M623.56,238.923
			h-4.549v1.114h-4.549v0.111h-1.275v-1.115h-4.438v-3.82h4.438v-0.003h0.002v-1.714h4.547v-0.109h1.275v1.713h4.549V238.923z
			 M647.074,230.717c-1.285,0-2.328-1.042-2.328-2.329c0-1.286,1.043-2.33,2.328-2.33c1.287,0,2.33,1.044,2.33,2.33
			C649.404,229.675,648.361,230.717,647.074,230.717z M667.813,268.045h-4.549v1.114h-4.549v0.107h-0.55v-1.114h-4.437v-3.661h4.437
			v-1.713h4.549v-0.108h0.55v1.713h4.549V268.045z M667.813,258.728h-4.549v1.115h-4.549v0.108h-0.55v-1.114h-4.437v-4.104h4.437
			v-1.713h4.549v-0.11h0.55v1.714h4.549V258.728z M667.813,248.965h-4.549v1.114h-4.549v0.111h-0.55v-1.114h-4.437v-4.387h4.437
			v-1.713h4.549v-0.111h0.55v1.713h4.549V248.965z M667.813,238.923h-4.549v1.114h-4.549v0.111h-0.55v-1.115h-4.437v-3.82h4.438
			v-0.003h0.001v-1.714h4.548v-0.109h0.549v1.713h4.549V238.923z M691.328,230.717c-1.285,0-2.328-1.042-2.328-2.329
			c0-1.286,1.043-2.33,2.328-2.33c1.287,0,2.33,1.044,2.33,2.33C693.658,229.675,692.615,230.717,691.328,230.717z M713.07,268.045
			h-4.549v1.114h-4.549v0.107h-1.553v-1.114h-4.437v-3.661h4.437v-1.713h4.549v-0.108h1.553v1.713h4.549V268.045z M713.07,258.728
			h-4.549v1.115h-4.549v0.108h-1.553v-1.114h-4.437v-4.104h4.437v-1.713h4.549v-0.11h1.553v1.714h4.549V258.728z M713.07,248.965
			h-4.549v1.114h-4.549v0.111h-1.553v-1.114h-4.437v-4.387h4.437v-1.713h4.549v-0.111h1.553v1.713h4.549V248.965z M713.07,238.923
			h-4.549v1.114h-4.549v0.111h-1.553v-1.115h-4.437v-3.82h4.438v-0.003h0.001v-1.714h4.548v-0.109h1.552v1.713h4.549V238.923z
			 M736.585,230.717c-1.285,0-2.328-1.042-2.328-2.329c0-1.286,1.043-2.33,2.328-2.33c1.287,0,2.33,1.044,2.33,2.33
			C738.915,229.675,737.872,230.717,736.585,230.717z"/>
	</g>
	<g id="cpu_1_" opacity="0.8">
		
			<rect id="cpu_fill" x="288.109" y="230.445" display="none" opacity="0.8" fill="#CE0000" enable-background="new    " width="157.668" height="44"/>
		<g id="cpu_2_">
			<path fill="#FFFFFF" d="M390.747,243.544c0.606,0,1.097-0.492,1.097-1.098c0-0.607-0.491-1.099-1.097-1.099h-3.296v-4.385h3.296
				c0.606,0,1.097-0.492,1.097-1.098c0-0.607-0.491-1.1-1.097-1.1h-3.296v-2.212c0-3.028-2.464-5.492-5.492-5.492h-2.212v-3.293
				c0-0.607-0.491-1.099-1.098-1.099c-0.607,0-1.099,0.491-1.099,1.099v3.293h-4.385v-3.293c0-0.607-0.493-1.099-1.099-1.099
				c-0.606,0-1.099,0.491-1.099,1.099v3.293h-4.385v-3.293c0-0.607-0.491-1.099-1.098-1.099s-1.099,0.491-1.099,1.099v3.293h-4.385
				v-3.293c0-0.607-0.492-1.099-1.099-1.099c-0.606,0-1.099,0.491-1.099,1.099v3.293h-4.385v-3.293c0-0.607-0.492-1.099-1.099-1.099
				c-0.607,0-1.099,0.491-1.099,1.099v3.293h-4.385v-3.293c0-0.607-0.491-1.099-1.099-1.099c-0.606,0-1.099,0.491-1.099,1.099v3.293
				h-2.214c-3.028,0-5.492,2.464-5.492,5.492v2.212h-3.292c-0.607,0-1.099,0.493-1.099,1.1c0,0.606,0.492,1.098,1.099,1.098h3.292
				v4.385h-3.292c-0.607,0-1.099,0.491-1.099,1.099c0,0.606,0.492,1.098,1.099,1.098h3.292v4.385h-3.292
				c-0.607,0-1.099,0.491-1.099,1.098c0,0.607,0.492,1.099,1.099,1.099h3.292v4.384h-3.292c-0.607,0-1.099,0.493-1.099,1.098
				c0,0.607,0.492,1.099,1.099,1.099h3.292v4.385h-3.292c-0.607,0-1.099,0.492-1.099,1.099s0.492,1.098,1.099,1.098h3.292v4.385
				h-3.292c-0.607,0-1.099,0.492-1.099,1.098c0,0.607,0.492,1.099,1.099,1.099h3.292v2.213c0,3.027,2.464,5.491,5.492,5.491h2.214
				v3.293c0,0.607,0.493,1.099,1.099,1.099c0.608,0,1.099-0.492,1.099-1.099v-3.293h4.385v3.293c0,0.607,0.493,1.099,1.099,1.099
				c0.606,0,1.099-0.492,1.099-1.099v-3.293h4.385v3.293c0,0.607,0.492,1.099,1.099,1.099c0.607,0,1.099-0.492,1.099-1.099v-3.293
				h4.385v3.293c0,0.607,0.492,1.099,1.099,1.099s1.098-0.492,1.098-1.099v-3.293h4.385v3.293c0,0.607,0.492,1.099,1.099,1.099
				c0.607,0,1.099-0.492,1.099-1.099v-3.293h4.385v3.293c0,0.607,0.492,1.099,1.099,1.099c0.607,0,1.098-0.492,1.098-1.099v-3.293
				h2.212c3.027,0,5.492-2.464,5.492-5.491v-2.214h3.296c0.606,0,1.097-0.491,1.097-1.099c0-0.606-0.491-1.098-1.097-1.098h-3.296
				v-4.385h3.296c0.606,0,1.097-0.491,1.097-1.098s-0.491-1.099-1.097-1.099h-3.296v-4.384h3.296c0.606,0,1.097-0.493,1.097-1.099
				c0-0.607-0.491-1.099-1.097-1.099h-3.296v-4.385h3.296c0.606,0,1.097-0.491,1.097-1.098s-0.491-1.098-1.097-1.098h-3.296v-4.385
				L390.747,243.544L390.747,243.544z M385.254,272.082c0,1.817-1.479,3.295-3.294,3.295H342.43c-1.817,0-3.295-1.478-3.295-3.295
				v-39.527c0-1.817,1.478-3.295,3.295-3.295h39.529c1.816,0,3.294,1.478,3.294,3.295V272.082L385.254,272.082z"/>
			<path fill="#FFFFFF" d="M379.745,232.57h-35.102c-1.211,0-2.196,0.985-2.196,2.196v35.102c0,1.211,0.986,2.197,2.196,2.197
				h35.102c1.211,0,2.196-0.986,2.196-2.197v-35.102C381.942,233.555,380.956,232.57,379.745,232.57z M371.616,261.738h-18.468
				V243.27h18.468V261.738z"/>
		</g>
		<g id="cpu_3_">
			<path fill="#FFFFFF" d="M447.001,243.541c0.605,0,1.097-0.492,1.097-1.098c0-0.607-0.492-1.099-1.097-1.099h-3.296v-4.385h3.296
				c0.605,0,1.097-0.492,1.097-1.098c0-0.606-0.492-1.099-1.097-1.099h-3.296v-2.213c0-3.028-2.464-5.492-5.492-5.492h-2.212v-3.294
				c0-0.607-0.491-1.099-1.098-1.099c-0.607,0-1.099,0.492-1.099,1.099v3.294h-4.385v-3.294c0-0.607-0.492-1.099-1.099-1.099
				c-0.606,0-1.099,0.492-1.099,1.099v3.294h-4.385v-3.294c0-0.607-0.491-1.099-1.098-1.099c-0.606,0-1.099,0.492-1.099,1.099v3.294
				h-4.384v-3.294c0-0.607-0.492-1.099-1.099-1.099c-0.606,0-1.099,0.492-1.099,1.099v3.294h-4.385v-3.294
				c0-0.607-0.493-1.099-1.098-1.099c-0.607,0-1.099,0.492-1.099,1.099v3.294h-4.385v-3.294c0-0.607-0.492-1.099-1.099-1.099
				c-0.606,0-1.099,0.492-1.099,1.099v3.294h-2.214c-3.028,0-5.492,2.464-5.492,5.492v2.213h-3.293
				c-0.606,0-1.099,0.492-1.099,1.099c0,0.606,0.493,1.098,1.099,1.098h3.293v4.385h-3.293c-0.606,0-1.099,0.492-1.099,1.099
				c0,0.606,0.493,1.098,1.099,1.098h3.293v4.386h-3.293c-0.606,0-1.099,0.491-1.099,1.098c0,0.607,0.493,1.099,1.099,1.099h3.293
				v4.384h-3.293c-0.606,0-1.099,0.493-1.099,1.098c0,0.607,0.493,1.099,1.099,1.099h3.293v4.385h-3.293
				c-0.606,0-1.099,0.492-1.099,1.099s0.493,1.098,1.099,1.098h3.293v4.385h-3.293c-0.606,0-1.099,0.492-1.099,1.098
				c0,0.607,0.493,1.099,1.099,1.099h3.293v2.213c0,3.027,2.463,5.491,5.492,5.491h2.214v3.293c0,0.607,0.492,1.099,1.099,1.099
				c0.607,0,1.099-0.491,1.099-1.099v-3.293h4.385v3.293c0,0.607,0.492,1.099,1.099,1.099c0.605,0,1.098-0.491,1.098-1.099v-3.293
				h4.385v3.293c0,0.607,0.492,1.099,1.099,1.099c0.607,0,1.099-0.491,1.099-1.099v-3.293h4.384v3.293
				c0,0.607,0.493,1.099,1.099,1.099c0.607,0,1.098-0.491,1.098-1.099v-3.293h4.385v3.293c0,0.607,0.493,1.099,1.099,1.099
				c0.608,0,1.099-0.491,1.099-1.099v-3.293h4.385v3.293c0,0.607,0.492,1.099,1.099,1.099c0.607,0,1.098-0.491,1.098-1.099v-3.293
				h2.212c3.027,0,5.492-2.464,5.492-5.491v-2.214h3.296c0.605,0,1.097-0.492,1.097-1.099c0-0.606-0.492-1.098-1.097-1.098h-3.296
				v-4.385h3.296c0.605,0,1.097-0.491,1.097-1.098s-0.492-1.099-1.097-1.099h-3.296v-4.384h3.296c0.605,0,1.097-0.493,1.097-1.099
				c0-0.607-0.492-1.099-1.097-1.099h-3.296v-4.385h3.296c0.605,0,1.097-0.491,1.097-1.098c0-0.606-0.492-1.098-1.097-1.098h-3.296
				v-4.386L447.001,243.541L447.001,243.541z M441.508,272.079c0,1.818-1.479,3.296-3.294,3.296h-39.529
				c-1.817,0-3.295-1.478-3.295-3.296v-39.527c0-1.817,1.478-3.295,3.295-3.295h39.529c1.816,0,3.294,1.478,3.294,3.295V272.079
				L441.508,272.079z"/>
			<path fill="#FFFFFF" d="M435.999,232.567h-35.102c-1.211,0-2.196,0.986-2.196,2.197v35.102c0,1.211,0.986,2.196,2.196,2.196
				h35.102c1.211,0,2.197-0.985,2.197-2.196v-35.102C438.197,233.553,437.21,232.567,435.999,232.567z M427.87,261.735h-18.468
				v-18.468h18.468V261.735z"/>
		</g>
		<g id="cpu_4_">
			<path fill="#FFFFFF" d="M503.566,243.544c0.605,0,1.097-0.492,1.097-1.098c0-0.607-0.491-1.099-1.097-1.099h-3.296v-4.385h3.296
				c0.605,0,1.097-0.492,1.097-1.098c0-0.607-0.491-1.1-1.097-1.1h-3.296v-2.212c0-3.028-2.464-5.492-5.492-5.492h-2.212v-3.293
				c0-0.607-0.491-1.099-1.099-1.099c-0.607,0-1.099,0.491-1.099,1.099v3.293h-4.385v-3.293c0-0.607-0.492-1.099-1.099-1.099
				s-1.099,0.491-1.099,1.099v3.293h-4.385v-3.293c0-0.607-0.491-1.099-1.098-1.099c-0.606,0-1.099,0.491-1.099,1.099v3.293h-4.385
				v-3.293c0-0.607-0.492-1.099-1.099-1.099c-0.606,0-1.099,0.491-1.099,1.099v3.293h-4.385v-3.293c0-0.607-0.492-1.099-1.098-1.099
				c-0.607,0-1.099,0.491-1.099,1.099v3.293h-4.385v-3.293c0-0.607-0.491-1.099-1.099-1.099c-0.606,0-1.099,0.491-1.099,1.099v3.293
				h-2.214c-3.028,0-5.492,2.464-5.492,5.492v2.212h-3.293c-0.606,0-1.099,0.493-1.099,1.1c0,0.606,0.492,1.098,1.099,1.098h3.293
				v4.385h-3.293c-0.606,0-1.099,0.491-1.099,1.099c0,0.606,0.492,1.098,1.099,1.098h3.293v4.385h-3.293
				c-0.606,0-1.099,0.491-1.099,1.098c0,0.607,0.492,1.099,1.099,1.099h3.293v4.384h-3.293c-0.606,0-1.099,0.492-1.099,1.098
				c0,0.606,0.492,1.099,1.099,1.099h3.293v4.385h-3.293c-0.606,0-1.099,0.492-1.099,1.099s0.492,1.098,1.099,1.098h3.293v4.385
				h-3.293c-0.606,0-1.099,0.492-1.099,1.098c0,0.607,0.492,1.099,1.099,1.099h3.293v2.213c0,3.027,2.464,5.491,5.492,5.491h2.214
				v3.294c0,0.607,0.492,1.099,1.099,1.099c0.607,0,1.099-0.492,1.099-1.099v-3.294h4.385v3.294c0,0.607,0.492,1.099,1.099,1.099
				c0.606,0,1.098-0.492,1.098-1.099v-3.294h4.385v3.294c0,0.607,0.493,1.099,1.099,1.099c0.607,0,1.099-0.492,1.099-1.099v-3.294
				h4.385v3.294c0,0.607,0.492,1.099,1.099,1.099c0.607,0,1.098-0.492,1.098-1.099v-3.294h4.385v3.294
				c0,0.607,0.492,1.099,1.099,1.099c0.607,0,1.099-0.492,1.099-1.099v-3.294h4.385v3.294c0,0.607,0.492,1.099,1.099,1.099
				c0.608,0,1.099-0.492,1.099-1.099v-3.294h2.212c3.028,0,5.492-2.464,5.492-5.491v-2.214h3.296c0.605,0,1.097-0.491,1.097-1.099
				c0-0.606-0.491-1.098-1.097-1.098h-3.296v-4.385h3.296c0.605,0,1.097-0.491,1.097-1.098s-0.491-1.099-1.097-1.099h-3.296v-4.384
				h3.296c0.605,0,1.097-0.493,1.097-1.099c0-0.606-0.491-1.099-1.097-1.099h-3.296v-4.384h3.296c0.605,0,1.097-0.491,1.097-1.098
				s-0.491-1.098-1.097-1.098h-3.296v-4.385L503.566,243.544L503.566,243.544z M498.073,272.082c0,1.817-1.479,3.295-3.295,3.295
				H455.25c-1.818,0-3.296-1.478-3.296-3.295v-39.527c0-1.817,1.478-3.295,3.296-3.295h39.529c1.817,0,3.295,1.478,3.295,3.295
				V272.082L498.073,272.082z"/>
			<path fill="#FFFFFF" d="M492.564,232.57h-35.102c-1.211,0-2.196,0.985-2.196,2.196v35.102c0,1.211,0.986,2.197,2.196,2.197
				h35.102c1.211,0,2.196-0.986,2.196-2.197v-35.102C494.762,233.555,493.775,232.57,492.564,232.57z M484.435,261.738h-18.468
				V243.27h18.468V261.738z"/>
		</g>
		<g id="cpu">
			<path fill="#FFFFFF" d="M333.581,243.542c0.604,0,1.097-0.492,1.097-1.098c0-0.608-0.493-1.099-1.097-1.099h-3.296v-4.385h3.296
				c0.604,0,1.097-0.492,1.097-1.098c0-0.607-0.493-1.099-1.097-1.099h-3.296v-2.213c0-3.028-2.465-5.492-5.492-5.492h-2.212v-3.294
				c0-0.607-0.491-1.099-1.098-1.099c-0.606,0-1.099,0.492-1.099,1.099v3.294h-4.385v-3.294c0-0.607-0.492-1.099-1.099-1.099
				c-0.606,0-1.099,0.492-1.099,1.099v3.294h-4.385v-3.294c0-0.607-0.491-1.099-1.098-1.099c-0.606,0-1.099,0.492-1.099,1.099v3.294
				h-4.384v-3.294c0-0.607-0.492-1.099-1.099-1.099c-0.606,0-1.099,0.492-1.099,1.099v3.294h-4.384v-3.294
				c0-0.607-0.493-1.099-1.098-1.099c-0.608,0-1.099,0.492-1.099,1.099v3.294h-4.385v-3.294c0-0.607-0.492-1.099-1.099-1.099
				s-1.099,0.492-1.099,1.099v3.294h-2.214c-3.028,0-5.492,2.464-5.492,5.492v2.213h-3.293c-0.606,0-1.099,0.492-1.099,1.099
				c0,0.606,0.493,1.098,1.099,1.098h3.293v4.385h-3.293c-0.606,0-1.099,0.491-1.099,1.099c0,0.606,0.493,1.098,1.099,1.098h3.293
				v4.385h-3.293c-0.606,0-1.099,0.492-1.099,1.098c0,0.607,0.493,1.099,1.099,1.099h3.293v4.384h-3.293
				c-0.606,0-1.099,0.492-1.099,1.099s0.493,1.099,1.099,1.099h3.293v4.384h-3.293c-0.606,0-1.099,0.492-1.099,1.099
				s0.493,1.098,1.099,1.098h3.293v4.385h-3.293c-0.606,0-1.099,0.492-1.099,1.098c0,0.608,0.493,1.099,1.099,1.099h3.293v2.213
				c0,3.028,2.464,5.492,5.492,5.492h2.214v3.293c0,0.607,0.492,1.099,1.099,1.099s1.099-0.492,1.099-1.099v-3.293h4.385v3.293
				c0,0.607,0.492,1.099,1.099,1.099c0.605,0,1.098-0.492,1.098-1.099v-3.293h4.384v3.293c0,0.607,0.493,1.099,1.099,1.099
				c0.607,0,1.099-0.492,1.099-1.099v-3.293h4.384v3.293c0,0.607,0.493,1.099,1.099,1.099c0.607,0,1.098-0.492,1.098-1.099v-3.293
				h4.385v3.293c0,0.607,0.493,1.099,1.099,1.099c0.607,0,1.099-0.492,1.099-1.099v-3.293h4.385v3.293
				c0,0.607,0.493,1.099,1.099,1.099c0.607,0,1.098-0.492,1.098-1.099v-3.293h2.212c3.027,0,5.492-2.464,5.492-5.492v-2.214h3.296
				c0.604,0,1.097-0.491,1.097-1.099c0-0.606-0.493-1.098-1.097-1.098h-3.296v-4.385h3.296c0.604,0,1.097-0.491,1.097-1.098
				s-0.493-1.099-1.097-1.099h-3.296v-4.384h3.296c0.604,0,1.097-0.492,1.097-1.099s-0.493-1.099-1.097-1.099h-3.296v-4.385h3.296
				c0.604,0,1.097-0.491,1.097-1.098c0-0.606-0.493-1.098-1.097-1.098h-3.296v-4.386L333.581,243.542L333.581,243.542z
				 M328.087,272.08c0,1.817-1.479,3.295-3.295,3.295h-39.529c-1.817,0-3.295-1.478-3.295-3.295v-39.527
				c0-1.817,1.478-3.295,3.295-3.295h39.529c1.817,0,3.295,1.478,3.295,3.295V272.08L328.087,272.08z"/>
			<path fill="#FFFFFF" d="M322.579,232.568h-35.102c-1.211,0-2.196,0.986-2.196,2.197v35.102c0,1.211,0.985,2.196,2.196,2.196
				h35.102c1.21,0,2.197-0.985,2.197-2.196v-35.102C324.776,233.554,323.789,232.568,322.579,232.568z M314.45,261.736h-18.468
				v-18.468h18.468V261.736z"/>
		</g>
		
			<rect id="cpu_back" x="288.109" y="230.445" display="none" opacity="0.5" fill="#FFFFFF" enable-background="new    " width="207.771" height="44"/>
	</g>
	<g>
		<defs>
			<rect id="cpu_clip" x="273.862" y="222.666" width="60.593" height="59.297"/>
		</defs>
		<clipPath id="cpu_clip_2_">
			<use xlink:href="#cpu_clip"  overflow="visible"/>
		</clipPath>
		<path id="cpu_progress" opacity="0.8" clip-path="url(#cpu_clip_2_)" fill="#FF0000" d="M287.887,230.7h157.668v44H287.887V230.7z
			 M390.524,243.799c0.606,0,1.097-0.492,1.097-1.098c0-0.607-0.49-1.099-1.097-1.099h-3.296v-4.385h3.296
			c0.606,0,1.097-0.492,1.097-1.098c0-0.607-0.49-1.1-1.097-1.1h-3.296v-2.212c0-3.028-2.464-5.492-5.492-5.492h-2.212v-3.293
			c0-0.607-0.491-1.099-1.098-1.099c-0.607,0-1.099,0.491-1.099,1.099v3.293h-4.385v-3.293c0-0.607-0.493-1.099-1.099-1.099
			c-0.606,0-1.099,0.491-1.099,1.099v3.293h-4.385v-3.293c0-0.607-0.491-1.099-1.098-1.099s-1.099,0.491-1.099,1.099v3.293h-4.385
			v-3.293c0-0.607-0.492-1.099-1.099-1.099c-0.606,0-1.099,0.491-1.099,1.099v3.293h-4.385v-3.293c0-0.607-0.492-1.099-1.099-1.099
			c-0.607,0-1.099,0.491-1.099,1.099v3.293h-4.385v-3.293c0-0.607-0.491-1.099-1.099-1.099c-0.606,0-1.099,0.491-1.099,1.099v3.293
			h-2.214c-3.028,0-5.492,2.464-5.492,5.492v2.212h-3.292c-0.607,0-1.099,0.493-1.099,1.1c0,0.606,0.492,1.098,1.099,1.098h3.292
			v4.385h-3.292c-0.607,0-1.099,0.491-1.099,1.099c0,0.606,0.492,1.098,1.099,1.098h3.292v4.385h-3.292
			c-0.607,0-1.099,0.491-1.099,1.098c0,0.607,0.492,1.099,1.099,1.099h3.292v4.384h-3.292c-0.607,0-1.099,0.493-1.099,1.098
			c0,0.607,0.492,1.099,1.099,1.099h3.292v4.385h-3.292c-0.607,0-1.099,0.492-1.099,1.099s0.492,1.098,1.099,1.098h3.292v4.385
			h-3.292c-0.607,0-1.099,0.492-1.099,1.098c0,0.607,0.492,1.099,1.099,1.099h3.292v2.213c0,3.027,2.464,5.491,5.492,5.491h2.214
			v3.293c0,0.607,0.493,1.099,1.099,1.099c0.608,0,1.099-0.492,1.099-1.099v-3.293H351v3.293c0,0.607,0.493,1.099,1.099,1.099
			c0.606,0,1.099-0.492,1.099-1.099v-3.293h4.385v3.293c0,0.607,0.492,1.099,1.099,1.099c0.607,0,1.099-0.492,1.099-1.099v-3.293
			h4.385v3.293c0,0.607,0.492,1.099,1.099,1.099s1.098-0.492,1.098-1.099v-3.293h4.385v3.293c0,0.607,0.492,1.099,1.099,1.099
			c0.607,0,1.099-0.492,1.099-1.099v-3.293h4.385v3.293c0,0.607,0.492,1.099,1.099,1.099c0.607,0,1.098-0.492,1.098-1.099v-3.293
			h2.212c3.027,0,5.492-2.464,5.492-5.491v-2.214h3.296c0.606,0,1.097-0.491,1.097-1.099c0-0.606-0.49-1.098-1.097-1.098h-3.296
			v-4.385h3.296c0.606,0,1.097-0.491,1.097-1.098s-0.49-1.099-1.097-1.099h-3.296v-4.384h3.296c0.606,0,1.097-0.493,1.097-1.099
			c0-0.607-0.49-1.099-1.097-1.099h-3.296v-4.385h3.296c0.606,0,1.097-0.491,1.097-1.098s-0.49-1.098-1.097-1.098h-3.296v-4.385
			L390.524,243.799L390.524,243.799z M385.031,272.337c0,1.817-1.479,3.295-3.294,3.295h-39.529c-1.817,0-3.295-1.478-3.295-3.295
			V232.81c0-1.817,1.478-3.295,3.295-3.295h39.529c1.816,0,3.294,1.478,3.294,3.295V272.337L385.031,272.337z M379.522,232.825
			h-35.102c-1.211,0-2.196,0.985-2.196,2.196v35.102c0,1.211,0.986,2.197,2.196,2.197h35.102c1.211,0,2.196-0.986,2.196-2.197
			v-35.102C381.72,233.811,380.733,232.825,379.522,232.825z M371.394,261.994h-18.468v-18.468h18.468V261.994z M446.779,243.796
			c0.604,0,1.096-0.492,1.096-1.098c0-0.607-0.491-1.099-1.096-1.099h-3.297v-4.385h3.297c0.604,0,1.096-0.492,1.096-1.098
			c0-0.606-0.491-1.099-1.096-1.099h-3.297v-2.213c0-3.028-2.465-5.492-5.492-5.492h-2.212v-3.294c0-0.607-0.491-1.099-1.099-1.099
			c-0.606,0-1.098,0.492-1.098,1.099v3.294h-4.386v-3.294c0-0.607-0.491-1.099-1.099-1.099c-0.605,0-1.099,0.492-1.099,1.099v3.294
			h-4.385v-3.294c0-0.607-0.491-1.099-1.099-1.099c-0.605,0-1.098,0.492-1.098,1.099v3.294h-4.385v-3.294
			c0-0.607-0.492-1.099-1.099-1.099s-1.099,0.492-1.099,1.099v3.294h-4.385v-3.294c0-0.607-0.492-1.099-1.098-1.099
			c-0.607,0-1.1,0.492-1.1,1.099v3.294h-4.385v-3.294c0-0.607-0.491-1.099-1.098-1.099c-0.607,0-1.1,0.492-1.1,1.099v3.294h-2.214
			c-3.028,0-5.491,2.464-5.491,5.492v2.213h-3.294c-0.606,0-1.099,0.492-1.099,1.099c0,0.606,0.493,1.098,1.099,1.098h3.294v4.385
			h-3.294c-0.606,0-1.099,0.492-1.099,1.099c0,0.606,0.493,1.098,1.099,1.098h3.294v4.386h-3.294c-0.606,0-1.099,0.491-1.099,1.098
			c0,0.607,0.493,1.099,1.099,1.099h3.294v4.384h-3.294c-0.606,0-1.099,0.493-1.099,1.098c0,0.607,0.493,1.099,1.099,1.099h3.294
			v4.385h-3.294c-0.606,0-1.099,0.492-1.099,1.099s0.493,1.098,1.099,1.098h3.294v4.385h-3.294c-0.606,0-1.099,0.492-1.099,1.098
			c0,0.607,0.493,1.099,1.099,1.099h3.294v2.213c0,3.027,2.463,5.491,5.491,5.491h2.214v3.293c0,0.607,0.492,1.099,1.1,1.099
			c0.606,0,1.098-0.491,1.098-1.099v-3.293h4.385v3.293c0,0.607,0.492,1.099,1.1,1.099c0.605,0,1.098-0.491,1.098-1.099v-3.293
			h4.385v3.293c0,0.607,0.492,1.099,1.099,1.099s1.099-0.491,1.099-1.099v-3.293h4.385v3.293c0,0.607,0.492,1.099,1.098,1.099
			c0.607,0,1.099-0.491,1.099-1.099v-3.293h4.385v3.293c0,0.607,0.493,1.099,1.099,1.099c0.607,0,1.099-0.491,1.099-1.099v-3.293
			h4.386v3.293c0,0.607,0.491,1.099,1.098,1.099c0.607,0,1.099-0.491,1.099-1.099v-3.293h2.212c3.027,0,5.492-2.464,5.492-5.491
			v-2.214h3.297c0.604,0,1.096-0.492,1.096-1.099c0-0.606-0.491-1.098-1.096-1.098h-3.297v-4.385h3.297
			c0.604,0,1.096-0.491,1.096-1.098s-0.491-1.099-1.096-1.099h-3.297v-4.384h3.297c0.604,0,1.096-0.493,1.096-1.099
			c0-0.607-0.491-1.099-1.096-1.099h-3.297v-4.385h3.297c0.604,0,1.096-0.491,1.096-1.098c0-0.606-0.491-1.098-1.096-1.098h-3.297
			v-4.386L446.779,243.796L446.779,243.796z M441.285,272.334c0,1.818-1.479,3.296-3.295,3.296h-39.529
			c-1.816,0-3.295-1.478-3.295-3.296v-39.527c0-1.817,1.479-3.295,3.295-3.295h39.529c1.816,0,3.295,1.478,3.295,3.295V272.334
			L441.285,272.334z M435.776,232.822h-35.102c-1.211,0-2.196,0.986-2.196,2.197v35.102c0,1.211,0.986,2.196,2.196,2.196h35.102
			c1.212,0,2.196-0.985,2.196-2.196V235.02C437.975,233.809,436.988,232.822,435.776,232.822z M427.647,261.991H409.18v-18.468
			h18.468V261.991z M503.344,243.799c0.605,0,1.097-0.492,1.097-1.098c0-0.607-0.491-1.099-1.097-1.099h-3.296v-4.385h3.296
			c0.605,0,1.097-0.492,1.097-1.098c0-0.607-0.491-1.1-1.097-1.1h-3.296v-2.212c0-3.028-2.464-5.492-5.492-5.492h-2.212v-3.293
			c0-0.607-0.49-1.099-1.099-1.099c-0.606,0-1.099,0.491-1.099,1.099v3.293h-4.385v-3.293c0-0.607-0.492-1.099-1.099-1.099
			s-1.099,0.491-1.099,1.099v3.293h-4.385v-3.293c0-0.607-0.491-1.099-1.098-1.099c-0.607,0-1.1,0.491-1.1,1.099v3.293h-4.385
			v-3.293c0-0.607-0.491-1.099-1.098-1.099s-1.1,0.491-1.1,1.099v3.293h-4.385v-3.293c0-0.607-0.492-1.099-1.098-1.099
			c-0.607,0-1.099,0.491-1.099,1.099v3.293h-4.385v-3.293c0-0.607-0.491-1.099-1.099-1.099c-0.606,0-1.099,0.491-1.099,1.099v3.293
			h-2.214c-3.028,0-5.492,2.464-5.492,5.492v2.212h-3.293c-0.606,0-1.099,0.493-1.099,1.1c0,0.606,0.492,1.098,1.099,1.098h3.293
			v4.385h-3.293c-0.606,0-1.099,0.491-1.099,1.099c0,0.606,0.492,1.098,1.099,1.098h3.293v4.385h-3.293
			c-0.606,0-1.099,0.491-1.099,1.098c0,0.607,0.492,1.099,1.099,1.099h3.293v4.384h-3.293c-0.606,0-1.099,0.492-1.099,1.098
			c0,0.606,0.492,1.099,1.099,1.099h3.293v4.385h-3.293c-0.606,0-1.099,0.492-1.099,1.099s0.492,1.098,1.099,1.098h3.293v4.385
			h-3.293c-0.606,0-1.099,0.492-1.099,1.098c0,0.607,0.492,1.099,1.099,1.099h3.293v2.213c0,3.027,2.464,5.491,5.492,5.491h2.214
			v3.294c0,0.607,0.492,1.099,1.099,1.099c0.607,0,1.099-0.492,1.099-1.099v-3.294h4.385v3.294c0,0.607,0.492,1.099,1.099,1.099
			c0.605,0,1.098-0.492,1.098-1.099v-3.294h4.385v3.294c0,0.607,0.493,1.099,1.1,1.099s1.098-0.492,1.098-1.099v-3.294h4.385v3.294
			c0,0.607,0.492,1.099,1.1,1.099c0.606,0,1.098-0.492,1.098-1.099v-3.294h4.385v3.294c0,0.607,0.492,1.099,1.099,1.099
			c0.607,0,1.099-0.492,1.099-1.099v-3.294h4.385v3.294c0,0.607,0.492,1.099,1.099,1.099c0.608,0,1.099-0.492,1.099-1.099v-3.294
			h2.212c3.028,0,5.492-2.464,5.492-5.491v-2.214h3.296c0.605,0,1.097-0.491,1.097-1.099c0-0.606-0.491-1.098-1.097-1.098h-3.296
			v-4.385h3.296c0.605,0,1.097-0.491,1.097-1.098s-0.491-1.099-1.097-1.099h-3.296v-4.384h3.296c0.605,0,1.097-0.493,1.097-1.099
			c0-0.606-0.491-1.099-1.097-1.099h-3.296v-4.384h3.296c0.605,0,1.097-0.491,1.097-1.098s-0.491-1.098-1.097-1.098h-3.296v-4.385
			L503.344,243.799L503.344,243.799z M497.851,272.337c0,1.817-1.479,3.295-3.295,3.295h-39.528c-1.818,0-3.297-1.478-3.297-3.295
			V232.81c0-1.817,1.479-3.295,3.297-3.295h39.528c1.817,0,3.295,1.478,3.295,3.295V272.337L497.851,272.337z M492.342,232.825
			H457.24c-1.211,0-2.196,0.985-2.196,2.196v35.102c0,1.211,0.985,2.197,2.196,2.197h35.102c1.211,0,2.196-0.986,2.196-2.197
			v-35.102C494.539,233.811,493.553,232.825,492.342,232.825z M484.213,261.994h-18.469v-18.468h18.469V261.994z M333.358,243.797
			c0.604,0,1.097-0.492,1.097-1.098c0-0.608-0.493-1.099-1.097-1.099h-3.296v-4.385h3.296c0.604,0,1.097-0.492,1.097-1.098
			c0-0.607-0.493-1.099-1.097-1.099h-3.296v-2.213c0-3.028-2.465-5.492-5.492-5.492h-2.212v-3.294c0-0.607-0.491-1.099-1.098-1.099
			c-0.606,0-1.099,0.492-1.099,1.099v3.294h-4.385v-3.294c0-0.607-0.492-1.099-1.099-1.099c-0.606,0-1.099,0.492-1.099,1.099v3.294
			h-4.385v-3.294c0-0.607-0.491-1.099-1.098-1.099c-0.606,0-1.099,0.492-1.099,1.099v3.294h-4.384v-3.294
			c0-0.607-0.492-1.099-1.099-1.099c-0.606,0-1.099,0.492-1.099,1.099v3.294h-4.384v-3.294c0-0.607-0.493-1.099-1.098-1.099
			c-0.608,0-1.099,0.492-1.099,1.099v3.294h-4.385v-3.294c0-0.607-0.492-1.099-1.099-1.099s-1.099,0.492-1.099,1.099v3.294h-2.214
			c-3.028,0-5.492,2.464-5.492,5.492v2.213h-3.293c-0.606,0-1.099,0.492-1.099,1.099c0,0.606,0.493,1.098,1.099,1.098h3.293v4.385
			h-3.293c-0.606,0-1.099,0.491-1.099,1.099c0,0.606,0.493,1.098,1.099,1.098h3.293v4.385h-3.293c-0.606,0-1.099,0.492-1.099,1.098
			c0,0.607,0.493,1.099,1.099,1.099h3.293v4.384h-3.293c-0.606,0-1.099,0.492-1.099,1.099s0.493,1.099,1.099,1.099h3.293v4.384
			h-3.293c-0.606,0-1.099,0.492-1.099,1.099s0.493,1.098,1.099,1.098h3.293v4.385h-3.293c-0.606,0-1.099,0.492-1.099,1.098
			c0,0.608,0.493,1.099,1.099,1.099h3.293v2.213c0,3.028,2.464,5.492,5.492,5.492h2.214v3.293c0,0.607,0.492,1.099,1.099,1.099
			s1.099-0.492,1.099-1.099v-3.293h4.385v3.293c0,0.607,0.492,1.099,1.099,1.099c0.605,0,1.098-0.492,1.098-1.099v-3.293h4.384
			v3.293c0,0.607,0.493,1.099,1.099,1.099c0.607,0,1.099-0.492,1.099-1.099v-3.293h4.384v3.293c0,0.607,0.493,1.099,1.099,1.099
			c0.607,0,1.098-0.492,1.098-1.099v-3.293h4.385v3.293c0,0.607,0.493,1.099,1.099,1.099c0.607,0,1.099-0.492,1.099-1.099v-3.293
			h4.385v3.293c0,0.607,0.493,1.099,1.099,1.099c0.607,0,1.098-0.492,1.098-1.099v-3.293h2.212c3.027,0,5.492-2.464,5.492-5.492
			v-2.214h3.296c0.604,0,1.097-0.491,1.097-1.099c0-0.606-0.493-1.098-1.097-1.098h-3.296v-4.385h3.296
			c0.604,0,1.097-0.491,1.097-1.098s-0.493-1.099-1.097-1.099h-3.296v-4.384h3.296c0.604,0,1.097-0.492,1.097-1.099
			s-0.493-1.099-1.097-1.099h-3.296v-4.385h3.296c0.604,0,1.097-0.491,1.097-1.098c0-0.606-0.493-1.098-1.097-1.098h-3.296v-4.386
			L333.358,243.797L333.358,243.797z M327.865,272.335c0,1.817-1.479,3.295-3.295,3.295h-39.529c-1.817,0-3.295-1.478-3.295-3.295
			v-39.527c0-1.817,1.478-3.295,3.295-3.295h39.529c1.817,0,3.295,1.478,3.295,3.295V272.335L327.865,272.335z M322.356,232.823
			h-35.102c-1.211,0-2.196,0.986-2.196,2.197v35.102c0,1.211,0.985,2.196,2.196,2.196h35.102c1.21,0,2.197-0.985,2.197-2.196
			v-35.102C324.554,233.81,323.566,232.823,322.356,232.823z M314.227,261.992h-18.468v-18.468h18.468V261.992z M287.887,230.7
			h207.771v44H287.887V230.7z"/>
	</g>
</g>
<g id="Layer_3_1_">
	<g id="Workstation_2_" opacity="0.8">
		<g id="Group_1_">
			<g id="Outline_1_">
				<path fill="none" stroke="#FFFFFF" stroke-width="12" stroke-miterlimit="10" d="M740.313,1293.236H291.429
					c-12.85,0-23.558-10.707-23.558-23.557V986.986c0-13.064,10.708-23.559,23.559-23.559h448.883
					c13.062,0,23.559,10.49,23.559,23.559v282.689C763.871,1282.74,753.161,1293.236,740.313,1293.236z"/>
				<path fill="none" stroke="#FFFFFF" stroke-width="12" stroke-miterlimit="10" d="M641.797,1324.072H515.871h-125.93
					c-18.412,0-33.193,14.779-33.193,33.197v38.121h159.123h159.123v-38.121C674.993,1339.063,660.213,1324.072,641.797,1324.072z"
					/>
			</g>
			<g id="Fill_1_" opacity="0.5">
				<path fill="none" stroke="#FFFFFF" stroke-width="4" stroke-miterlimit="10" d="M584.401,963.43h-5.567l-310.529,310.533
					c0.209,1.496,0.637,2.785,1.28,4.283L584.401,963.43z"/>
				<polygon fill="none" stroke="#FFFFFF" stroke-width="4" stroke-miterlimit="10" points="549.281,963.43 543.711,963.43 
					267.871,1239.479 267.871,1244.834 				"/>
				<polygon fill="none" stroke="#FFFFFF" stroke-width="4" stroke-miterlimit="10" points="514.156,963.43 508.801,963.43 
					267.871,1204.359 267.871,1209.926 				"/>
				<path fill="none" stroke="#FFFFFF" stroke-width="4" stroke-miterlimit="10" d="M616.952,963.43h-5.563l-328.094,328.521
					c1.281,0.434,2.778,0.854,4.283,1.068L616.952,963.43z"/>
				<polygon fill="none" stroke="#FFFFFF" stroke-width="4" stroke-miterlimit="10" points="652.08,963.43 646.717,963.43 
					316.918,1293.236 322.272,1293.236 				"/>
				<polygon fill="none" stroke="#FFFFFF" stroke-width="4" stroke-miterlimit="10" points="380.949,963.43 375.385,963.43 
					267.871,1071.15 267.871,1076.504 				"/>
				<polygon fill="none" stroke="#FFFFFF" stroke-width="4" stroke-miterlimit="10" points="479.036,963.43 473.682,963.43 
					267.871,1169.236 267.871,1174.806 				"/>
				<polygon fill="none" stroke="#FFFFFF" stroke-width="4" stroke-miterlimit="10" points="267.871,1003.262 267.871,1008.83 
					313.062,963.43 307.491,963.43 				"/>
				<polygon fill="none" stroke="#FFFFFF" stroke-width="4" stroke-miterlimit="10" points="687.198,963.43 681.844,963.43 
					352.038,1293.236 357.392,1293.236 				"/>
				<polygon fill="none" stroke="#FFFFFF" stroke-width="4" stroke-miterlimit="10" points="411.359,963.43 405.795,963.43 
					267.871,1101.563 267.871,1106.916 				"/>
				<polygon fill="none" stroke="#FFFFFF" stroke-width="4" stroke-miterlimit="10" points="446.268,963.43 440.914,963.43 
					267.871,1136.683 267.871,1142.035 				"/>
				<polygon fill="none" stroke="#FFFFFF" stroke-width="4" stroke-miterlimit="10" points="345.83,963.43 340.259,963.43 
					267.871,1036.027 267.871,1041.381 				"/>
				<polygon fill="none" stroke="#FFFFFF" stroke-width="4" stroke-miterlimit="10" points="763.871,1162.813 763.871,1157.457 
					627.879,1293.236 633.442,1293.236 				"/>
				<polygon fill="none" stroke="#FFFFFF" stroke-width="4" stroke-miterlimit="10" points="763.871,1127.688 763.871,1122.336 
					592.75,1293.236 598.321,1293.236 				"/>
				<polygon fill="none" stroke="#FFFFFF" stroke-width="4" stroke-miterlimit="10" points="763.871,1197.934 763.871,1192.582 
					662.998,1293.236 668.353,1293.236 				"/>
				<polygon fill="none" stroke="#FFFFFF" stroke-width="4" stroke-miterlimit="10" points="763.871,1265.824 763.871,1260.26 
					730.885,1293.236 736.239,1293.236 				"/>
				<polygon fill="none" stroke="#FFFFFF" stroke-width="4" stroke-miterlimit="10" points="763.871,1230.697 763.871,1225.133 
					695.766,1293.236 701.118,1293.236 				"/>
				<path fill="none" stroke="#FFFFFF" stroke-width="4" stroke-miterlimit="10" d="M763.871,989.769v-2.782
					c0-0.855,0-1.715-0.218-2.572l-308.819,308.822h5.563L763.871,989.769z"/>
				<polygon fill="none" stroke="#FFFFFF" stroke-width="4" stroke-miterlimit="10" points="763.871,1092.779 763.871,1087.213 
					557.851,1293.236 563.196,1293.236 				"/>
				<polygon fill="none" stroke="#FFFFFF" stroke-width="4" stroke-miterlimit="10" points="722.319,963.43 716.754,963.43 
					386.947,1293.236 392.518,1293.236 				"/>
				<path fill="none" stroke="#FFFFFF" stroke-width="4" stroke-miterlimit="10" d="M751.875,966.639
					c-1.281-0.645-2.359-1.285-3.642-1.713l-328.521,328.311h5.563L751.875,966.639z"/>
				<polygon fill="none" stroke="#FFFFFF" stroke-width="4" stroke-miterlimit="10" points="763.871,1024.892 763.871,1019.324 
					489.954,1293.236 495.308,1293.236 				"/>
				<polygon fill="none" stroke="#FFFFFF" stroke-width="4" stroke-miterlimit="10" points="763.871,1060.014 763.871,1054.447 
					525.082,1293.236 530.436,1293.236 				"/>
			</g>
		</g>
		
			<rect x="450.123" y="1064.193" fill="#303030" stroke="#FFFFFF" stroke-width="12" stroke-miterlimit="10" width="133.207" height="133.207"/>
	</g>
	<g id="memory_6_" opacity="0.8">
		<g id="memory_11_">
			<path fill="#FFFFFF" d="M748.957,897.676v-1.715h4.548v-2.828h-4.548v-1.113h-4.438v-6.377h-30.171v6.267H709.8v1.115h-4.549
				v2.827h4.549v1.714h4.549v3.823H709.8v1.113h-4.549v2.828h4.549v1.713h4.549v4.387H709.8v1.114h-4.549v2.83h4.549v1.714h4.549
				v4.104H709.8v1.114h-4.549v2.828h4.549v1.713h4.549v3.662H709.8v1.114h-4.549v2.827h4.549v1.715h4.549v6.266h30.17v-6.155h4.437
				v-1.714h4.549v-2.832h-4.549v-1.113h-4.437v-3.661h4.437v-1.713h4.549v-2.828h-4.549v-1.114h-4.437v-4.104h4.437v-1.713h4.549
				v-2.829h-4.549v-1.114h-4.437v-4.387h4.437v-1.713h4.549v-2.828h-4.549v-1.115h-4.437v-3.82h4.438L748.957,897.676
				L748.957,897.676z M737.863,893.182c-1.285,0-2.328-1.041-2.328-2.328c0-1.286,1.043-2.33,2.328-2.33
				c1.287,0,2.33,1.044,2.33,2.33C740.193,892.141,739.15,893.182,737.863,893.182z"/>
		</g>
		<g id="memory_10_">
			<path fill="#FFFFFF" d="M570.213,897.676v-1.715h4.547v-2.828h-4.547v-1.113h-4.438v-6.377h-30.172v6.267h-4.549v1.115h-4.549
				v2.827h4.549v1.714h4.549v3.823h-4.549v1.113h-4.549v2.828h4.549v1.713h4.549v4.387h-4.549v1.114h-4.549v2.83h4.549v1.714h4.549
				v4.104h-4.549v1.114h-4.549v2.828h4.549v1.713h4.549v3.662h-4.549v1.114h-4.549v2.827h4.549v1.715h4.549v6.266h30.17v-6.155
				h4.438v-1.714h4.549v-2.832h-4.549v-1.113h-4.438v-3.661h4.438v-1.713h4.549v-2.828h-4.549v-1.114h-4.438v-4.104h4.438v-1.713
				h4.549v-2.829h-4.549v-1.114h-4.438v-4.387h4.438v-1.713h4.549v-2.828h-4.549v-1.115h-4.438v-3.82h4.438v-0.002H570.213z
				 M559.119,893.182c-1.285,0-2.328-1.041-2.328-2.328c0-1.286,1.043-2.33,2.328-2.33c1.287,0,2.33,1.044,2.33,2.33
				C561.449,892.141,560.406,893.182,559.119,893.182z"/>
		</g>
		<g id="memory_9_">
			<path fill="#FFFFFF" d="M614.467,897.676v-1.715h4.547v-2.828h-4.547v-1.113h-4.438v-6.377h-30.172v6.267h-4.549v1.115h-4.549
				v2.827h4.549v1.714h4.549v3.823h-4.549v1.113h-4.549v2.828h4.549v1.713h4.549v4.387h-4.549v1.114h-4.549v2.83h4.549v1.714h4.549
				v4.104h-4.549v1.114h-4.549v2.828h4.549v1.713h4.549v3.662h-4.549v1.114h-4.549v2.827h4.549v1.715h4.549v6.266h30.17v-6.155
				h4.438v-1.714h4.549v-2.832h-4.549v-1.113h-4.438v-3.661h4.438v-1.713h4.549v-2.828h-4.549v-1.114h-4.438v-4.104h4.438v-1.713
				h4.549v-2.829h-4.549v-1.114h-4.438v-4.387h4.438v-1.713h4.549v-2.828h-4.549v-1.115h-4.438v-3.82h4.438v-0.002H614.467z
				 M603.373,893.182c-1.285,0-2.328-1.041-2.328-2.328c0-1.286,1.043-2.33,2.328-2.33c1.287,0,2.33,1.044,2.33,2.33
				C605.703,892.141,604.66,893.182,603.373,893.182z"/>
		</g>
		<g id="memory_8_">
			<path fill="#FFFFFF" d="M659.446,897.676v-1.715h4.548v-2.828h-4.548v-1.113h-4.438v-6.377h-30.171v6.267h-4.549v1.115h-4.549
				v2.827h4.549v1.714h4.549v3.823h-4.549v1.113h-4.549v2.828h4.549v1.713h4.549v4.387h-4.549v1.114h-4.549v2.83h4.549v1.714h4.549
				v4.104h-4.549v1.114h-4.549v2.828h4.549v1.713h4.549v3.662h-4.549v1.114h-4.549v2.827h4.549v1.715h4.549v6.266h30.17v-6.155
				h4.437v-1.714h4.549v-2.832h-4.549v-1.113h-4.437v-3.661h4.437v-1.713h4.549v-2.828h-4.549v-1.114h-4.437v-4.104h4.437v-1.713
				h4.549v-2.829h-4.549v-1.114h-4.437v-4.387h4.437v-1.713h4.549v-2.828h-4.549v-1.115h-4.437v-3.82h4.438L659.446,897.676
				L659.446,897.676z M648.353,893.182c-1.285,0-2.328-1.041-2.328-2.328c0-1.286,1.043-2.33,2.328-2.33
				c1.287,0,2.33,1.044,2.33,2.33C650.683,892.141,649.64,893.182,648.353,893.182z"/>
		</g>
		<g id="memory_7_">
			<path fill="#FFFFFF" d="M703.7,897.676v-1.715h4.548v-2.828H703.7v-1.113h-4.438v-6.377h-30.171v6.267h-4.549v1.115h-4.549v2.827
				h4.549v1.714h4.549v3.823h-4.549v1.113h-4.549v2.828h4.549v1.713h4.549v4.387h-4.549v1.114h-4.549v2.83h4.549v1.714h4.549v4.104
				h-4.549v1.114h-4.549v2.828h4.549v1.713h4.549v3.662h-4.549v1.114h-4.549v2.827h4.549v1.715h4.549v6.266h30.17v-6.155h4.437
				v-1.714h4.549v-2.832h-4.549v-1.113h-4.437v-3.661h4.437v-1.713h4.549v-2.828h-4.549v-1.114h-4.437v-4.104h4.437v-1.713h4.549
				v-2.829h-4.549v-1.114h-4.437v-4.387h4.437v-1.713h4.549v-2.828h-4.549v-1.115h-4.437v-3.82h4.438L703.7,897.676L703.7,897.676z
				 M692.606,893.182c-1.285,0-2.328-1.041-2.328-2.328c0-1.286,1.043-2.33,2.328-2.33c1.287,0,2.33,1.044,2.33,2.33
				C694.937,892.141,693.894,893.182,692.606,893.182z"/>
		</g>
	</g>
	<g>
		<defs>
			<rect id="memory_clip_1_" x="526.507" y="885.131" width="48.378" height="57.301"/>
		</defs>
		<clipPath id="memory_clip_3_">
			<use xlink:href="#memory_clip_1_"  overflow="visible"/>
		</clipPath>
		<path id="memory_progress_1_" opacity="0.8" clip-path="url(#memory_clip_3_)" fill="#00CFFF" enable-background="new    " d="
			M748.531,936.276v-1.714h4.549v-2.832h-4.549v-1.113h-4.437v-3.661h4.437v-1.713h4.549v-2.828h-4.549v-1.114h-4.437v-4.104h4.437
			v-1.713h4.549v-2.829h-4.549v-1.114h-4.437v-4.387h4.437v-1.713h4.549v-2.828h-4.549v-1.115h-4.437v-3.82h4.438v-0.002h0.001
			v-1.715h4.548v-2.828h-4.548v-1.113h-4.438v-6.377h-30.171v6.267h-4.549v1.115h-4.549v0.108h-1.551v-1.113h-4.438v-6.377h-30.171
			v6.267h-4.549v1.115h-4.549v0.108h-0.548v-1.113h-4.438v-6.377h-30.171v6.267h-4.549v1.115h-4.549v0.108h-1.273v-1.113h-4.438
			v-6.377h-30.172v6.267h-4.549v1.115h-4.549v0.108h-0.547v-1.113h-4.438v-6.377H535.18v6.267h-4.549v1.115h-4.125v2.827h4.125
			v1.714h4.549v3.823h-4.549v1.113h-4.125v2.828h4.125v1.713h4.549v4.387h-4.549v1.114h-4.125v2.83h4.125v1.714h4.549v4.104h-4.549
			v1.114h-4.125v2.828h4.125v1.713h4.549v3.662h-4.549v1.114h-4.125v2.827h4.125v1.715h4.549v6.266h30.17v-6.155h4.438v-1.714h4.549
			v-0.111h0.549v1.715h4.549v6.266h30.17v-6.155h4.438v-1.714h4.549v-0.111h1.275v1.715h4.549v6.266h30.17v-6.155h4.437v-1.714
			h4.549v-0.111h0.55v1.715h4.549v6.266h30.17v-6.155h4.437v-1.714h4.549v-0.111h1.553v1.715h4.549v6.266h30.17v-6.155H748.531z
			 M558.695,893.182c-1.285,0-2.328-1.041-2.328-2.328c0-1.286,1.043-2.33,2.328-2.33c1.287,0,2.33,1.044,2.33,2.33
			C561.025,892.141,559.982,893.182,558.695,893.182z M579.434,930.51h-4.549v1.114h-4.549v0.106h-0.549v-1.113h-4.438v-3.661h4.438
			v-1.713h4.549v-0.108h0.549v1.713h4.549V930.51z M579.434,921.192h-4.549v1.114h-4.549v0.108h-0.549v-1.114h-4.438v-4.104h4.438
			v-1.713h4.549v-0.11h0.549v1.714h4.549V921.192z M579.434,911.43h-4.549v1.114h-4.549v0.111h-0.549v-1.114h-4.438v-4.387h4.438
			v-1.713h4.549v-0.111h0.549v1.713h4.549V911.43z M579.434,901.389h-4.549v1.113h-4.549v0.111h-0.549v-1.115h-4.438v-3.82h4.438
			v-0.002h0.002v-1.715h4.547v-0.109h0.549v1.714h4.549V901.389z M602.949,893.182c-1.285,0-2.328-1.041-2.328-2.328
			c0-1.286,1.043-2.33,2.328-2.33c1.287,0,2.33,1.044,2.33,2.33C605.279,892.141,604.236,893.182,602.949,893.182z M624.414,930.51
			h-4.549v1.114h-4.549v0.106h-1.275v-1.113h-4.438v-3.661h4.438v-1.713h4.549v-0.108h1.275v1.713h4.549V930.51z M624.414,921.192
			h-4.549v1.114h-4.549v0.108h-1.275v-1.114h-4.438v-4.104h4.438v-1.713h4.549v-0.11h1.275v1.714h4.549V921.192z M624.414,911.43
			h-4.549v1.114h-4.549v0.111h-1.275v-1.114h-4.438v-4.387h4.438v-1.713h4.549v-0.111h1.275v1.713h4.549V911.43z M624.414,901.389
			h-4.549v1.113h-4.549v0.111h-1.275v-1.115h-4.438v-3.82h4.438v-0.002h0.002v-1.715h4.547v-0.109h1.275v1.714h4.549V901.389z
			 M647.929,893.182c-1.285,0-2.328-1.041-2.328-2.328c0-1.286,1.043-2.33,2.328-2.33c1.287,0,2.33,1.044,2.33,2.33
			C650.259,892.141,649.216,893.182,647.929,893.182z M668.668,930.51h-4.549v1.114h-4.549v0.106h-0.55v-1.113h-4.437v-3.661h4.437
			v-1.713h4.549v-0.108h0.55v1.713h4.549V930.51z M668.668,921.192h-4.549v1.114h-4.549v0.108h-0.55v-1.114h-4.437v-4.104h4.437
			v-1.713h4.549v-0.11h0.55v1.714h4.549V921.192z M668.668,911.43h-4.549v1.114h-4.549v0.111h-0.55v-1.114h-4.437v-4.387h4.437
			v-1.713h4.549v-0.111h0.55v1.713h4.549V911.43z M668.668,901.389h-4.549v1.113h-4.549v0.111h-0.55v-1.115h-4.437v-3.82h4.438
			v-0.002h0.001v-1.715h4.548v-0.109h0.549v1.714h4.549V901.389z M692.183,893.182c-1.285,0-2.328-1.041-2.328-2.328
			c0-1.286,1.043-2.33,2.328-2.33c1.287,0,2.33,1.044,2.33,2.33C694.513,892.141,693.47,893.182,692.183,893.182z M713.925,930.51
			h-4.549v1.114h-4.549v0.106h-1.553v-1.113h-4.437v-3.661h4.437v-1.713h4.549v-0.108h1.553v1.713h4.549V930.51z M713.925,921.192
			h-4.549v1.114h-4.549v0.108h-1.553v-1.114h-4.437v-4.104h4.437v-1.713h4.549v-0.11h1.553v1.714h4.549V921.192z M713.925,911.43
			h-4.549v1.114h-4.549v0.111h-1.553v-1.114h-4.437v-4.387h4.437v-1.713h4.549v-0.111h1.553v1.713h4.549V911.43z M713.925,901.389
			h-4.549v1.113h-4.549v0.111h-1.553v-1.115h-4.437v-3.82h4.438v-0.002h0.001v-1.715h4.548v-0.109h1.552v1.714h4.549V901.389z
			 M737.439,893.182c-1.285,0-2.328-1.041-2.328-2.328c0-1.286,1.043-2.33,2.328-2.33c1.287,0,2.33,1.044,2.33,2.33
			C739.77,892.141,738.727,893.182,737.439,893.182z"/>
	</g>
	<g id="cpu_13_" opacity="0.8">
		
			<rect id="cpu_fill_3_" x="288.964" y="892.91" display="none" opacity="0.8" fill="#CE0000" enable-background="new    " width="157.668" height="44"/>
		<g id="cpu_17_">
			<path fill="#FFFFFF" d="M391.602,906.009c0.606,0,1.097-0.491,1.097-1.099s-0.491-1.098-1.097-1.098h-3.296v-4.385h3.296
				c0.606,0,1.097-0.492,1.097-1.098c0-0.607-0.491-1.1-1.097-1.1h-3.296v-2.213c0-3.027-2.464-5.492-5.492-5.492h-2.212v-3.293
				c0-0.607-0.491-1.099-1.098-1.099c-0.607,0-1.099,0.491-1.099,1.099v3.293h-4.385v-3.293c0-0.607-0.493-1.099-1.099-1.099
				c-0.606,0-1.099,0.491-1.099,1.099v3.293h-4.385v-3.293c0-0.607-0.491-1.099-1.098-1.099s-1.099,0.491-1.099,1.099v3.293h-4.385
				v-3.293c0-0.607-0.492-1.099-1.099-1.099c-0.606,0-1.099,0.491-1.099,1.099v3.293h-4.385v-3.293c0-0.607-0.492-1.099-1.099-1.099
				c-0.607,0-1.099,0.491-1.099,1.099v3.293h-4.385v-3.293c0-0.607-0.491-1.099-1.099-1.099c-0.606,0-1.099,0.491-1.099,1.099v3.293
				h-2.214c-3.028,0-5.492,2.465-5.492,5.492v2.213h-3.292c-0.607,0-1.099,0.492-1.099,1.1c0,0.605,0.492,1.098,1.099,1.098h3.292
				v4.385h-3.292c-0.607,0-1.099,0.49-1.099,1.098s0.492,1.099,1.099,1.099h3.292v4.386h-3.292c-0.607,0-1.099,0.49-1.099,1.098
				s0.492,1.099,1.099,1.099h3.292v4.384h-3.292c-0.607,0-1.099,0.493-1.099,1.098c0,0.607,0.492,1.1,1.099,1.1h3.292v4.385h-3.292
				c-0.607,0-1.099,0.492-1.099,1.099s0.492,1.098,1.099,1.098h3.292v4.386h-3.292c-0.607,0-1.099,0.491-1.099,1.098
				c0,0.607,0.492,1.098,1.099,1.098h3.292v2.214c0,3.027,2.464,5.491,5.492,5.491h2.214v3.293c0,0.607,0.493,1.1,1.099,1.1
				c0.608,0,1.099-0.492,1.099-1.1v-3.293h4.385v3.293c0,0.607,0.493,1.1,1.099,1.1c0.606,0,1.099-0.492,1.099-1.1v-3.293h4.385
				v3.293c0,0.607,0.492,1.1,1.099,1.1c0.607,0,1.099-0.492,1.099-1.1v-3.293h4.385v3.293c0,0.607,0.492,1.1,1.099,1.1
				s1.098-0.492,1.098-1.1v-3.293h4.385v3.293c0,0.607,0.492,1.1,1.099,1.1c0.607,0,1.099-0.492,1.099-1.1v-3.293h4.385v3.293
				c0,0.607,0.492,1.1,1.099,1.1c0.607,0,1.098-0.492,1.098-1.1v-3.293h2.212c3.027,0,5.492-2.464,5.492-5.491v-2.214h3.296
				c0.606,0,1.097-0.491,1.097-1.1c0-0.605-0.491-1.098-1.097-1.098h-3.296v-4.385h3.296c0.606,0,1.097-0.49,1.097-1.098
				s-0.491-1.099-1.097-1.099h-3.296v-4.384h3.296c0.606,0,1.097-0.494,1.097-1.1c0-0.606-0.491-1.098-1.097-1.098h-3.296v-4.385
				h3.296c0.606,0,1.097-0.492,1.097-1.099s-0.491-1.099-1.097-1.099h-3.296v-4.385L391.602,906.009L391.602,906.009z
				 M386.108,934.547c0,1.816-1.479,3.295-3.294,3.295h-39.529c-1.817,0-3.295-1.479-3.295-3.295V895.02
				c0-1.818,1.478-3.296,3.295-3.296h39.529c1.816,0,3.294,1.478,3.294,3.296V934.547L386.108,934.547z"/>
			<path fill="#FFFFFF" d="M380.6,895.035h-35.102c-1.211,0-2.196,0.984-2.196,2.195v35.102c0,1.211,0.986,2.197,2.196,2.197H380.6
				c1.211,0,2.196-0.986,2.196-2.197V897.23C382.797,896.02,381.811,895.035,380.6,895.035z M372.471,924.203h-18.468v-18.469
				h18.468V924.203z"/>
		</g>
		<g id="cpu_16_">
			<path fill="#FFFFFF" d="M447.856,906.006c0.605,0,1.097-0.492,1.097-1.098c0-0.607-0.492-1.099-1.097-1.099h-3.296v-4.386h3.296
				c0.605,0,1.097-0.491,1.097-1.098c0-0.605-0.492-1.098-1.097-1.098h-3.296v-2.213c0-3.028-2.464-5.492-5.492-5.492h-2.212v-3.294
				c0-0.606-0.491-1.099-1.098-1.099c-0.607,0-1.099,0.492-1.099,1.099v3.294h-4.385v-3.294c0-0.606-0.492-1.099-1.099-1.099
				c-0.606,0-1.099,0.492-1.099,1.099v3.294h-4.385v-3.294c0-0.606-0.491-1.099-1.098-1.099c-0.606,0-1.099,0.492-1.099,1.099v3.294
				h-4.384v-3.294c0-0.606-0.492-1.099-1.099-1.099c-0.606,0-1.099,0.492-1.099,1.099v3.294h-4.385v-3.294
				c0-0.606-0.493-1.099-1.098-1.099c-0.607,0-1.099,0.492-1.099,1.099v3.294h-4.385v-3.294c0-0.606-0.492-1.099-1.099-1.099
				c-0.606,0-1.099,0.492-1.099,1.099v3.294h-2.214c-3.028,0-5.492,2.464-5.492,5.492v2.213h-3.293
				c-0.606,0-1.099,0.492-1.099,1.098c0,0.606,0.493,1.098,1.099,1.098h3.293v4.386h-3.293c-0.606,0-1.099,0.491-1.099,1.099
				c0,0.605,0.493,1.098,1.099,1.098h3.293v4.386h-3.293c-0.606,0-1.099,0.491-1.099,1.098s0.493,1.099,1.099,1.099h3.293v4.385
				h-3.293c-0.606,0-1.099,0.492-1.099,1.098c0,0.607,0.493,1.099,1.099,1.099h3.293v4.385h-3.293c-0.606,0-1.099,0.491-1.099,1.099
				s0.493,1.098,1.099,1.098h3.293v4.385h-3.293c-0.606,0-1.099,0.492-1.099,1.099c0,0.607,0.493,1.099,1.099,1.099h3.293v2.213
				c0,3.027,2.463,5.492,5.492,5.492h2.214v3.293c0,0.607,0.492,1.098,1.099,1.098c0.607,0,1.099-0.49,1.099-1.098v-3.293h4.385
				v3.293c0,0.607,0.492,1.098,1.099,1.098c0.605,0,1.098-0.49,1.098-1.098v-3.293h4.385v3.293c0,0.607,0.492,1.098,1.099,1.098
				c0.607,0,1.099-0.49,1.099-1.098v-3.293h4.384v3.293c0,0.607,0.493,1.098,1.099,1.098c0.607,0,1.098-0.49,1.098-1.098v-3.293
				h4.385v3.293c0,0.607,0.493,1.098,1.099,1.098c0.608,0,1.099-0.49,1.099-1.098v-3.293h4.385v3.293
				c0,0.607,0.492,1.098,1.099,1.098c0.607,0,1.098-0.49,1.098-1.098v-3.293h2.212c3.027,0,5.492-2.465,5.492-5.492v-2.213h3.296
				c0.605,0,1.097-0.492,1.097-1.1c0-0.606-0.492-1.098-1.097-1.098h-3.296v-4.385h3.296c0.605,0,1.097-0.492,1.097-1.099
				s-0.492-1.099-1.097-1.099h-3.296v-4.384h3.296c0.605,0,1.097-0.493,1.097-1.099c0-0.607-0.492-1.1-1.097-1.1h-3.296v-4.385
				h3.296c0.605,0,1.097-0.49,1.097-1.098c0-0.606-0.492-1.098-1.097-1.098h-3.296v-4.386L447.856,906.006L447.856,906.006z
				 M442.362,934.543c0,1.818-1.479,3.297-3.294,3.297h-39.529c-1.817,0-3.295-1.479-3.295-3.297v-39.527
				c0-1.816,1.478-3.295,3.295-3.295h39.529c1.816,0,3.294,1.479,3.294,3.295V934.543L442.362,934.543z"/>
			<path fill="#FFFFFF" d="M436.854,895.031h-35.102c-1.211,0-2.196,0.986-2.196,2.197v35.102c0,1.211,0.986,2.197,2.196,2.197
				h35.102c1.211,0,2.197-0.986,2.197-2.197v-35.102C439.051,896.018,438.065,895.031,436.854,895.031z M428.725,924.2h-18.468
				v-18.468h18.468V924.2z"/>
		</g>
		<g id="cpu_15_">
			<path fill="#FFFFFF" d="M504.421,906.009c0.605,0,1.097-0.491,1.097-1.099s-0.491-1.098-1.097-1.098h-3.296v-4.385h3.296
				c0.605,0,1.097-0.492,1.097-1.098c0-0.607-0.491-1.1-1.097-1.1h-3.296v-2.213c0-3.027-2.464-5.492-5.492-5.492h-2.212v-3.293
				c0-0.607-0.491-1.099-1.099-1.099c-0.607,0-1.099,0.491-1.099,1.099v3.293h-4.385v-3.293c0-0.607-0.492-1.099-1.099-1.099
				s-1.099,0.491-1.099,1.099v3.293h-4.385v-3.293c0-0.607-0.491-1.099-1.098-1.099c-0.606,0-1.099,0.491-1.099,1.099v3.293h-4.385
				v-3.293c0-0.607-0.492-1.099-1.099-1.099c-0.606,0-1.099,0.491-1.099,1.099v3.293h-4.385v-3.293c0-0.607-0.492-1.099-1.098-1.099
				c-0.607,0-1.099,0.491-1.099,1.099v3.293h-4.385v-3.293c0-0.607-0.491-1.099-1.099-1.099c-0.606,0-1.099,0.491-1.099,1.099v3.293
				H456.1c-3.028,0-5.492,2.465-5.492,5.492v2.213h-3.293c-0.606,0-1.099,0.492-1.099,1.1c0,0.605,0.492,1.098,1.099,1.098h3.293
				v4.385h-3.293c-0.606,0-1.099,0.49-1.099,1.098s0.492,1.099,1.099,1.099h3.293v4.386h-3.293c-0.606,0-1.099,0.49-1.099,1.098
				s0.492,1.099,1.099,1.099h3.293v4.384h-3.293c-0.606,0-1.099,0.492-1.099,1.099s0.492,1.099,1.099,1.099h3.293v4.385h-3.293
				c-0.606,0-1.099,0.492-1.099,1.099s0.492,1.098,1.099,1.098h3.293v4.386h-3.293c-0.606,0-1.099,0.491-1.099,1.098
				c0,0.607,0.492,1.098,1.099,1.098h3.293v2.214c0,3.027,2.464,5.491,5.492,5.491h2.214v3.294c0,0.606,0.492,1.099,1.099,1.099
				c0.607,0,1.099-0.492,1.099-1.099v-3.294h4.385v3.294c0,0.606,0.492,1.099,1.099,1.099c0.606,0,1.098-0.492,1.098-1.099v-3.294
				h4.385v3.294c0,0.606,0.493,1.099,1.099,1.099c0.607,0,1.099-0.492,1.099-1.099v-3.294h4.385v3.294
				c0,0.606,0.492,1.099,1.099,1.099c0.607,0,1.098-0.492,1.098-1.099v-3.294h4.385v3.294c0,0.606,0.492,1.099,1.099,1.099
				c0.607,0,1.099-0.492,1.099-1.099v-3.294h4.385v3.294c0,0.606,0.492,1.099,1.099,1.099c0.608,0,1.099-0.492,1.099-1.099v-3.294
				h2.212c3.028,0,5.492-2.464,5.492-5.491v-2.214h3.296c0.605,0,1.097-0.491,1.097-1.1c0-0.605-0.491-1.098-1.097-1.098h-3.296
				v-4.385h3.296c0.605,0,1.097-0.49,1.097-1.098s-0.491-1.099-1.097-1.099h-3.296v-4.384h3.296c0.605,0,1.097-0.493,1.097-1.1
				c0-0.605-0.491-1.099-1.097-1.099h-3.296v-4.384h3.296c0.605,0,1.097-0.492,1.097-1.099s-0.491-1.099-1.097-1.099h-3.296v-4.385
				L504.421,906.009L504.421,906.009z M498.928,934.547c0,1.816-1.479,3.295-3.295,3.295h-39.529c-1.818,0-3.296-1.479-3.296-3.295
				V895.02c0-1.818,1.478-3.296,3.296-3.296h39.529c1.817,0,3.295,1.478,3.295,3.296V934.547L498.928,934.547z"/>
			<path fill="#FFFFFF" d="M493.419,895.035h-35.102c-1.211,0-2.196,0.984-2.196,2.195v35.102c0,1.211,0.986,2.197,2.196,2.197
				h35.102c1.211,0,2.196-0.986,2.196-2.197V897.23C495.616,896.02,494.63,895.035,493.419,895.035z M485.29,924.203h-18.468
				v-18.469h18.468V924.203z"/>
		</g>
		<g id="cpu_14_">
			<path fill="#FFFFFF" d="M334.436,906.007c0.604,0,1.097-0.491,1.097-1.098c0-0.608-0.493-1.099-1.097-1.099h-3.296v-4.385h3.296
				c0.604,0,1.097-0.492,1.097-1.098c0-0.607-0.493-1.1-1.097-1.1h-3.296v-2.213c0-3.027-2.465-5.491-5.492-5.491h-2.212v-3.294
				c0-0.607-0.491-1.099-1.098-1.099c-0.606,0-1.099,0.491-1.099,1.099v3.294h-4.385v-3.294c0-0.607-0.492-1.099-1.099-1.099
				c-0.606,0-1.099,0.491-1.099,1.099v3.294h-4.385v-3.294c0-0.607-0.491-1.099-1.098-1.099c-0.606,0-1.099,0.491-1.099,1.099v3.294
				h-4.384v-3.294c0-0.607-0.492-1.099-1.099-1.099c-0.606,0-1.099,0.491-1.099,1.099v3.294h-4.384v-3.294
				c0-0.607-0.493-1.099-1.098-1.099c-0.608,0-1.099,0.491-1.099,1.099v3.294h-4.385v-3.294c0-0.607-0.492-1.099-1.099-1.099
				s-1.099,0.491-1.099,1.099v3.294h-2.214c-3.028,0-5.492,2.464-5.492,5.491v2.213h-3.293c-0.606,0-1.099,0.492-1.099,1.1
				c0,0.605,0.493,1.098,1.099,1.098h3.293v4.385h-3.293c-0.606,0-1.099,0.49-1.099,1.099c0,0.606,0.493,1.098,1.099,1.098h3.293
				v4.386h-3.293c-0.606,0-1.099,0.491-1.099,1.098c0,0.607,0.493,1.099,1.099,1.099h3.293v4.384h-3.293
				c-0.606,0-1.099,0.492-1.099,1.1c0,0.605,0.493,1.098,1.099,1.098h3.293v4.385h-3.293c-0.606,0-1.099,0.492-1.099,1.099
				s0.493,1.098,1.099,1.098h3.293v4.386h-3.293c-0.606,0-1.099,0.491-1.099,1.098c0,0.607,0.493,1.098,1.099,1.098h3.293v2.214
				c0,3.028,2.464,5.491,5.492,5.491h2.214v3.294c0,0.606,0.492,1.099,1.099,1.099s1.099-0.492,1.099-1.099v-3.294h4.385v3.294
				c0,0.606,0.492,1.099,1.099,1.099c0.605,0,1.098-0.492,1.098-1.099v-3.294h4.384v3.294c0,0.606,0.493,1.099,1.099,1.099
				c0.607,0,1.099-0.492,1.099-1.099v-3.294h4.384v3.294c0,0.606,0.493,1.099,1.099,1.099c0.607,0,1.098-0.492,1.098-1.099v-3.294
				h4.385v3.294c0,0.606,0.493,1.099,1.099,1.099c0.607,0,1.099-0.492,1.099-1.099v-3.294h4.385v3.294
				c0,0.606,0.493,1.099,1.099,1.099c0.607,0,1.098-0.492,1.098-1.099v-3.294h2.212c3.027,0,5.492-2.463,5.492-5.491v-2.214h3.296
				c0.604,0,1.097-0.491,1.097-1.099c0-0.606-0.493-1.099-1.097-1.099h-3.296v-4.385h3.296c0.604,0,1.097-0.49,1.097-1.098
				s-0.493-1.099-1.097-1.099h-3.296v-4.384h3.296c0.604,0,1.097-0.492,1.097-1.1c0-0.605-0.493-1.098-1.097-1.098h-3.296v-4.385
				h3.296c0.604,0,1.097-0.492,1.097-1.099s-0.493-1.098-1.097-1.098h-3.296v-4.386L334.436,906.007L334.436,906.007z
				 M328.942,934.545c0,1.816-1.479,3.295-3.295,3.295h-39.529c-1.817,0-3.295-1.479-3.295-3.295v-39.527
				c0-1.818,1.478-3.296,3.295-3.296h39.529c1.817,0,3.295,1.478,3.295,3.296V934.545L328.942,934.545z"/>
			<path fill="#FFFFFF" d="M323.433,895.033h-35.102c-1.211,0-2.196,0.986-2.196,2.197v35.102c0,1.211,0.985,2.195,2.196,2.195
				h35.102c1.21,0,2.197-0.984,2.197-2.195V897.23C325.631,896.02,324.644,895.033,323.433,895.033z M315.304,924.201h-18.468
				v-18.468h18.468V924.201z"/>
		</g>
		
			<rect id="cpu_back_3_" x="288.964" y="892.91" display="none" opacity="0.5" fill="#FFFFFF" enable-background="new    " width="207.771" height="44"/>
	</g>
	<g>
		<defs>
			<rect id="cpu_clip_1_" x="274.717" y="885.131" width="60.593" height="59.297"/>
		</defs>
		<clipPath id="cpu_clip_3_">
			<use xlink:href="#cpu_clip_1_"  overflow="visible"/>
		</clipPath>
		<path id="cpu_progress_1_" opacity="0.8" clip-path="url(#cpu_clip_3_)" fill="#FF0000" d="M288.741,893.165h157.668v44H288.741
			V893.165z M391.379,906.264c0.606,0,1.097-0.491,1.097-1.098c0-0.607-0.49-1.099-1.097-1.099h-3.296v-4.385h3.296
			c0.606,0,1.097-0.491,1.097-1.098s-0.49-1.1-1.097-1.1h-3.296v-2.212c0-3.028-2.464-5.492-5.492-5.492h-2.212v-3.293
			c0-0.607-0.491-1.1-1.098-1.1c-0.607,0-1.099,0.492-1.099,1.1v3.293h-4.385v-3.293c0-0.607-0.493-1.1-1.099-1.1
			c-0.606,0-1.099,0.492-1.099,1.1v3.293h-4.385v-3.293c0-0.607-0.491-1.1-1.098-1.1s-1.099,0.492-1.099,1.1v3.293h-4.385v-3.293
			c0-0.607-0.492-1.1-1.099-1.1c-0.606,0-1.099,0.492-1.099,1.1v3.293h-4.385v-3.293c0-0.607-0.492-1.1-1.099-1.1
			c-0.607,0-1.099,0.492-1.099,1.1v3.293h-4.385v-3.293c0-0.607-0.491-1.1-1.099-1.1c-0.606,0-1.099,0.492-1.099,1.1v3.293h-2.214
			c-3.028,0-5.492,2.464-5.492,5.492v2.212h-3.292c-0.607,0-1.099,0.493-1.099,1.1s0.492,1.098,1.099,1.098h3.292v4.385h-3.292
			c-0.607,0-1.099,0.491-1.099,1.099c0,0.606,0.492,1.098,1.099,1.098h3.292v4.386h-3.292c-0.607,0-1.099,0.491-1.099,1.098
			c0,0.607,0.492,1.099,1.099,1.099h3.292v4.385h-3.292c-0.607,0-1.099,0.492-1.099,1.098c0,0.607,0.492,1.099,1.099,1.099h3.292
			v4.386h-3.292c-0.607,0-1.099,0.491-1.099,1.098c0,0.607,0.492,1.098,1.099,1.098h3.292v4.386h-3.292
			c-0.607,0-1.099,0.491-1.099,1.098c0,0.607,0.492,1.099,1.099,1.099h3.292v2.213c0,3.027,2.464,5.492,5.492,5.492h2.214v3.293
			c0,0.607,0.493,1.099,1.099,1.099c0.608,0,1.099-0.491,1.099-1.099v-3.293h4.385v3.293c0,0.607,0.493,1.099,1.099,1.099
			c0.606,0,1.099-0.491,1.099-1.099v-3.293h4.385v3.293c0,0.607,0.492,1.099,1.099,1.099c0.607,0,1.099-0.491,1.099-1.099v-3.293
			h4.385v3.293c0,0.607,0.492,1.099,1.099,1.099s1.098-0.491,1.098-1.099v-3.293h4.385v3.293c0,0.607,0.492,1.099,1.099,1.099
			c0.607,0,1.099-0.491,1.099-1.099v-3.293h4.385v3.293c0,0.607,0.492,1.099,1.099,1.099c0.607,0,1.098-0.491,1.098-1.099v-3.293
			h2.212c3.027,0,5.492-2.465,5.492-5.492v-2.214h3.296c0.606,0,1.097-0.491,1.097-1.099c0-0.605-0.49-1.098-1.097-1.098h-3.296
			v-4.385h3.296c0.606,0,1.097-0.491,1.097-1.098c0-0.607-0.49-1.1-1.097-1.1h-3.296v-4.384h3.296c0.606,0,1.097-0.493,1.097-1.099
			c0-0.607-0.49-1.099-1.097-1.099h-3.296v-4.385h3.296c0.606,0,1.097-0.491,1.097-1.099c0-0.606-0.49-1.098-1.097-1.098h-3.296
			v-4.385H391.379L391.379,906.264z M385.886,934.802c0,1.817-1.479,3.295-3.294,3.295h-39.529c-1.817,0-3.295-1.478-3.295-3.295
			v-39.527c0-1.817,1.478-3.296,3.295-3.296h39.529c1.816,0,3.294,1.479,3.294,3.296V934.802L385.886,934.802z M380.377,895.29
			h-35.102c-1.211,0-2.196,0.985-2.196,2.196v35.102c0,1.211,0.986,2.197,2.196,2.197h35.102c1.211,0,2.196-0.986,2.196-2.197
			v-35.102C382.574,896.275,381.588,895.29,380.377,895.29z M372.248,924.459H353.78V905.99h18.468V924.459z M447.634,906.262
			c0.604,0,1.096-0.492,1.096-1.098c0-0.607-0.491-1.1-1.096-1.1h-3.297v-4.385h3.297c0.604,0,1.096-0.492,1.096-1.098
			c0-0.606-0.491-1.099-1.096-1.099h-3.297v-2.213c0-3.028-2.465-5.491-5.492-5.491h-2.212v-3.295c0-0.606-0.491-1.098-1.099-1.098
			c-0.606,0-1.098,0.491-1.098,1.098v3.295h-4.386v-3.295c0-0.606-0.491-1.098-1.099-1.098c-0.605,0-1.099,0.491-1.099,1.098v3.295
			h-4.385v-3.295c0-0.606-0.491-1.098-1.099-1.098c-0.605,0-1.098,0.491-1.098,1.098v3.295h-4.385v-3.295
			c0-0.606-0.492-1.098-1.099-1.098s-1.099,0.491-1.099,1.098v3.295h-4.385v-3.295c0-0.606-0.492-1.098-1.098-1.098
			c-0.607,0-1.1,0.491-1.1,1.098v3.295h-4.385v-3.295c0-0.606-0.491-1.098-1.098-1.098c-0.607,0-1.1,0.491-1.1,1.098v3.295h-2.214
			c-3.028,0-5.491,2.463-5.491,5.491v2.213h-3.294c-0.606,0-1.099,0.492-1.099,1.099c0,0.605,0.493,1.098,1.099,1.098h3.294v4.385
			h-3.294c-0.606,0-1.099,0.492-1.099,1.1c0,0.605,0.493,1.098,1.099,1.098h3.294v4.385h-3.294c-0.606,0-1.099,0.492-1.099,1.098
			c0,0.607,0.493,1.1,1.099,1.1h3.294v4.384h-3.294c-0.606,0-1.099,0.493-1.099,1.099c0,0.606,0.493,1.098,1.099,1.098h3.294v4.385
			h-3.294c-0.606,0-1.099,0.492-1.099,1.1c0,0.606,0.493,1.098,1.099,1.098h3.294v4.385h-3.294c-0.606,0-1.099,0.492-1.099,1.098
			c0,0.607,0.493,1.1,1.099,1.1h3.294v2.213c0,3.027,2.463,5.491,5.491,5.491h2.214v3.293c0,0.607,0.492,1.099,1.1,1.099
			c0.606,0,1.098-0.491,1.098-1.099v-3.293h4.385v3.293c0,0.607,0.492,1.099,1.1,1.099c0.605,0,1.098-0.491,1.098-1.099v-3.293
			h4.385v3.293c0,0.607,0.492,1.099,1.099,1.099s1.099-0.491,1.099-1.099v-3.293h4.385v3.293c0,0.607,0.492,1.099,1.098,1.099
			c0.607,0,1.099-0.491,1.099-1.099v-3.293h4.385v3.293c0,0.607,0.493,1.099,1.099,1.099c0.607,0,1.099-0.491,1.099-1.099v-3.293
			h4.386v3.293c0,0.607,0.491,1.099,1.098,1.099c0.607,0,1.099-0.491,1.099-1.099v-3.293h2.212c3.027,0,5.492-2.464,5.492-5.491
			v-2.214h3.297c0.604,0,1.096-0.491,1.096-1.099s-0.491-1.099-1.096-1.099h-3.297v-4.385h3.297c0.604,0,1.096-0.491,1.096-1.099
			c0-0.606-0.491-1.098-1.096-1.098h-3.297v-4.385h3.297c0.604,0,1.096-0.492,1.096-1.098c0-0.607-0.491-1.1-1.096-1.1h-3.297
			v-4.385h3.297c0.604,0,1.096-0.491,1.096-1.098c0-0.607-0.491-1.098-1.096-1.098h-3.297v-4.387h3.297V906.262z M442.14,934.799
			c0,1.818-1.479,3.296-3.295,3.296h-39.529c-1.816,0-3.295-1.478-3.295-3.296v-39.527c0-1.817,1.479-3.295,3.295-3.295h39.529
			c1.816,0,3.295,1.478,3.295,3.295V934.799L442.14,934.799z M436.631,895.287h-35.102c-1.211,0-2.196,0.986-2.196,2.197v35.102
			c0,1.211,0.986,2.196,2.196,2.196h35.102c1.212,0,2.196-0.985,2.196-2.196v-35.102
			C438.829,896.273,437.843,895.287,436.631,895.287z M428.502,924.455h-18.468v-18.467h18.468V924.455z M504.198,906.264
			c0.605,0,1.097-0.491,1.097-1.098c0-0.607-0.491-1.099-1.097-1.099h-3.296v-4.385h3.296c0.605,0,1.097-0.491,1.097-1.098
			s-0.491-1.1-1.097-1.1h-3.296v-2.212c0-3.028-2.464-5.492-5.492-5.492h-2.212v-3.293c0-0.607-0.49-1.1-1.099-1.1
			c-0.606,0-1.099,0.492-1.099,1.1v3.293h-4.385v-3.293c0-0.607-0.492-1.1-1.099-1.1s-1.099,0.492-1.099,1.1v3.293h-4.385v-3.293
			c0-0.607-0.491-1.1-1.098-1.1c-0.607,0-1.1,0.492-1.1,1.1v3.293h-4.385v-3.293c0-0.607-0.491-1.1-1.098-1.1s-1.1,0.492-1.1,1.1
			v3.293h-4.385v-3.293c0-0.607-0.492-1.1-1.098-1.1c-0.607,0-1.099,0.492-1.099,1.1v3.293h-4.385v-3.293
			c0-0.607-0.491-1.1-1.099-1.1c-0.606,0-1.099,0.492-1.099,1.1v3.293h-2.214c-3.028,0-5.492,2.464-5.492,5.492v2.212h-3.293
			c-0.606,0-1.099,0.493-1.099,1.1s0.492,1.098,1.099,1.098h3.293v4.385h-3.293c-0.606,0-1.099,0.491-1.099,1.099
			c0,0.606,0.492,1.098,1.099,1.098h3.293v4.386h-3.293c-0.606,0-1.099,0.491-1.099,1.098c0,0.607,0.492,1.099,1.099,1.099h3.293
			v4.385h-3.293c-0.606,0-1.099,0.492-1.099,1.098c0,0.607,0.492,1.1,1.099,1.1h3.293v4.385h-3.293
			c-0.606,0-1.099,0.491-1.099,1.098c0,0.607,0.492,1.098,1.099,1.098h3.293v4.386h-3.293c-0.606,0-1.099,0.491-1.099,1.098
			c0,0.607,0.492,1.099,1.099,1.099h3.293v2.213c0,3.027,2.464,5.492,5.492,5.492h2.214v3.293c0,0.607,0.492,1.1,1.099,1.1
			c0.607,0,1.099-0.492,1.099-1.1v-3.293h4.385v3.293c0,0.607,0.492,1.1,1.099,1.1c0.605,0,1.098-0.492,1.098-1.1v-3.293h4.385
			v3.293c0,0.607,0.493,1.1,1.1,1.1s1.098-0.492,1.098-1.1v-3.293h4.385v3.293c0,0.607,0.492,1.1,1.1,1.1
			c0.606,0,1.098-0.492,1.098-1.1v-3.293h4.385v3.293c0,0.607,0.492,1.1,1.099,1.1c0.607,0,1.099-0.492,1.099-1.1v-3.293h4.385
			v3.293c0,0.607,0.492,1.1,1.099,1.1c0.608,0,1.099-0.492,1.099-1.1v-3.293h2.212c3.028,0,5.492-2.465,5.492-5.492v-2.214h3.296
			c0.605,0,1.097-0.491,1.097-1.099c0-0.605-0.491-1.098-1.097-1.098h-3.296v-4.385h3.296c0.605,0,1.097-0.491,1.097-1.098
			c0-0.607-0.491-1.1-1.097-1.1h-3.296v-4.384h3.296c0.605,0,1.097-0.493,1.097-1.099c0-0.606-0.491-1.1-1.097-1.1h-3.296v-4.384
			h3.296c0.605,0,1.097-0.491,1.097-1.099c0-0.606-0.491-1.098-1.097-1.098h-3.296v-4.385H504.198L504.198,906.264z
			 M498.705,934.802c0,1.817-1.479,3.295-3.295,3.295h-39.528c-1.818,0-3.297-1.478-3.297-3.295v-39.527
			c0-1.817,1.479-3.296,3.297-3.296h39.528c1.817,0,3.295,1.479,3.295,3.296V934.802L498.705,934.802z M493.196,895.29h-35.102
			c-1.211,0-2.196,0.985-2.196,2.196v35.102c0,1.211,0.985,2.197,2.196,2.197h35.102c1.211,0,2.196-0.986,2.196-2.197v-35.102
			C495.394,896.275,494.407,895.29,493.196,895.29z M485.067,924.459h-18.469V905.99h18.469V924.459z M334.213,906.262
			c0.604,0,1.097-0.491,1.097-1.098c0-0.607-0.493-1.098-1.097-1.098h-3.296v-4.386h3.296c0.604,0,1.097-0.491,1.097-1.098
			s-0.493-1.099-1.097-1.099h-3.296v-2.213c0-3.027-2.465-5.492-5.492-5.492h-2.212v-3.293c0-0.607-0.491-1.1-1.098-1.1
			c-0.606,0-1.099,0.492-1.099,1.1v3.293h-4.385v-3.293c0-0.607-0.492-1.1-1.099-1.1c-0.606,0-1.099,0.492-1.099,1.1v3.293h-4.385
			v-3.293c0-0.607-0.491-1.1-1.098-1.1c-0.606,0-1.099,0.492-1.099,1.1v3.293h-4.384v-3.293c0-0.607-0.492-1.1-1.099-1.1
			c-0.606,0-1.099,0.492-1.099,1.1v3.293h-4.384v-3.293c0-0.607-0.493-1.1-1.098-1.1c-0.608,0-1.099,0.492-1.099,1.1v3.293h-4.385
			v-3.293c0-0.607-0.492-1.1-1.099-1.1s-1.099,0.492-1.099,1.1v3.293h-2.214c-3.028,0-5.492,2.465-5.492,5.492v2.213h-3.293
			c-0.606,0-1.099,0.492-1.099,1.099s0.493,1.098,1.099,1.098h3.293v4.386h-3.293c-0.606,0-1.099,0.49-1.099,1.098
			c0,0.606,0.493,1.098,1.099,1.098h3.293v4.386h-3.293c-0.606,0-1.099,0.491-1.099,1.099c0,0.606,0.493,1.098,1.099,1.098h3.293
			v4.385h-3.293c-0.606,0-1.099,0.492-1.099,1.099s0.493,1.099,1.099,1.099h3.293v4.385h-3.293c-0.606,0-1.099,0.491-1.099,1.098
			c0,0.607,0.493,1.098,1.099,1.098h3.293v4.386h-3.293c-0.606,0-1.099,0.491-1.099,1.098c0,0.608,0.493,1.099,1.099,1.099h3.293
			v2.213c0,3.028,2.464,5.492,5.492,5.492h2.214v3.293c0,0.607,0.492,1.1,1.099,1.1s1.099-0.492,1.099-1.1v-3.293h4.385v3.293
			c0,0.607,0.492,1.1,1.099,1.1c0.605,0,1.098-0.492,1.098-1.1v-3.293h4.384v3.293c0,0.607,0.493,1.1,1.099,1.1
			c0.607,0,1.099-0.492,1.099-1.1v-3.293h4.384v3.293c0,0.607,0.493,1.1,1.099,1.1c0.607,0,1.098-0.492,1.098-1.1v-3.293h4.385
			v3.293c0,0.607,0.493,1.1,1.099,1.1c0.607,0,1.099-0.492,1.099-1.1v-3.293h4.385v3.293c0,0.607,0.493,1.1,1.099,1.1
			c0.607,0,1.098-0.492,1.098-1.1v-3.293h2.212c3.027,0,5.492-2.464,5.492-5.492v-2.213h3.296c0.604,0,1.097-0.492,1.097-1.1
			c0-0.605-0.493-1.098-1.097-1.098h-3.296v-4.385h3.296c0.604,0,1.097-0.491,1.097-1.098c0-0.607-0.493-1.1-1.097-1.1h-3.296
			v-4.384h3.296c0.604,0,1.097-0.492,1.097-1.099s-0.493-1.099-1.097-1.099h-3.296v-4.385h3.296c0.604,0,1.097-0.491,1.097-1.099
			c0-0.605-0.493-1.098-1.097-1.098h-3.296v-4.385H334.213L334.213,906.262z M328.719,934.8c0,1.817-1.479,3.296-3.295,3.296
			h-39.529c-1.817,0-3.295-1.479-3.295-3.296v-39.527c0-1.817,1.478-3.296,3.295-3.296h39.529c1.817,0,3.295,1.479,3.295,3.296
			V934.8L328.719,934.8z M323.21,895.288h-35.102c-1.211,0-2.196,0.986-2.196,2.197v35.102c0,1.211,0.985,2.196,2.196,2.196h35.102
			c1.21,0,2.197-0.985,2.197-2.196v-35.102C325.408,896.274,324.421,895.288,323.21,895.288z M315.082,924.457h-18.468v-18.469
			h18.468V924.457z M288.741,893.165h207.771v44H288.741V893.165z"/>
	</g>
</g>
<g id="Layer_2">
	
		<line fill="none" stroke="#FFFFFF" stroke-width="30" stroke-miterlimit="10" x1="516.872" y1="534.82" x2="516.872" y2="1064.192"/>
</g>
<g id="Layer_5">
	<circle opacity="0.6" fill="#FF00E1" cx="516.872" cy="601.322" r="21.26"/>
	<circle opacity="0.8" fill="#FF00E1" cx="516.726" cy="572.568" r="23.107"/>
	<circle fill="#FF00E1" cx="517.133" cy="534.451" r="27.451"/>
	<circle opacity="0.4" fill="#FF00E1" cx="516.872" cy="626.582" r="18.425"/>
</g>
</svg>
