<?xml version="1.0" encoding="utf-8"?>
<!-- Generator: Adobe Illustrator 16.0.3, SVG Export Plug-In . SVG Version: 6.00 Build 0)  -->
<!DOCTYPE svg PUBLIC "-//W3C//DTD SVG 1.1//EN" "http://www.w3.org/Graphics/SVG/1.1/DTD/svg11.dtd">
<svg version="1.1" xmlns="http://www.w3.org/2000/svg" xmlns:xlink="http://www.w3.org/1999/xlink" x="0px" y="0px"
	 width="1021.473px" height="1021.473px" viewBox="-254.736 -254.736 1021.473 1021.473"
	 enable-background="new -254.736 -254.736 1021.473 1021.473" xml:space="preserve">
<g id="Layer_3">
	<rect x="-1161.323" y="-254.236" fill="#303030" stroke="#FFFFFF" stroke-miterlimit="10" width="2834.646" height="1020.473"/>
</g>
<g id="Layer_6">
	<g id="Outline_1_" display="none">
		<path display="inline" fill="none" stroke="#FFFFFF" stroke-width="12" stroke-miterlimit="10" d="M1458.441,371.643h-448.885
			c-12.85,0-23.558-10.707-23.558-23.558V65.393c0-13.065,10.708-23.559,23.56-23.559h448.883c13.062,0,23.559,10.49,23.559,23.559
			v282.69C1481.999,361.146,1471.289,371.643,1458.441,371.643z"/>
	</g>
	<g id="Fill_1_" opacity="0.5">
		<path fill="none" stroke="#FFFFFF" stroke-width="4" stroke-miterlimit="10" d="M1303.613,53.833h-5.567L987.518,343.859
			c0.209,1.398,0.637,2.603,1.279,4L1303.613,53.833z"/>
		<polygon fill="none" stroke="#FFFFFF" stroke-width="4" stroke-miterlimit="10" points="1268.493,53.833 1262.923,53.833 
			987.083,311.654 987.083,316.655 		"/>
		<polygon fill="none" stroke="#FFFFFF" stroke-width="4" stroke-miterlimit="10" points="1233.368,53.833 1228.013,53.833 
			987.083,278.854 987.083,284.051 		"/>
		<path fill="none" stroke="#FFFFFF" stroke-width="4" stroke-miterlimit="10" d="M1336.164,53.833h-5.563L1002.507,360.66
			c1.281,0.404,2.778,0.797,4.283,0.999L1336.164,53.833z"/>
		<polygon fill="none" stroke="#FFFFFF" stroke-width="4" stroke-miterlimit="10" points="1371.292,53.833 1365.929,53.833 
			1036.13,361.861 1041.484,361.861 		"/>
		<polygon fill="none" stroke="#FFFFFF" stroke-width="4" stroke-miterlimit="10" points="1100.161,53.833 1094.598,53.833 
			987.083,154.44 987.083,159.44 		"/>
		<polygon fill="none" stroke="#FFFFFF" stroke-width="4" stroke-miterlimit="10" points="1198.248,53.833 1192.895,53.833 
			987.083,246.05 987.083,251.252 		"/>
		<polygon fill="none" stroke="#FFFFFF" stroke-width="4" stroke-miterlimit="10" points="987.083,91.035 987.083,96.235 
			1032.273,53.833 1026.703,53.833 		"/>
		<polygon fill="none" stroke="#FFFFFF" stroke-width="4" stroke-miterlimit="10" points="1406.41,53.833 1401.056,53.833 
			1071.25,361.861 1076.604,361.861 		"/>
		<polygon fill="none" stroke="#FFFFFF" stroke-width="4" stroke-miterlimit="10" points="1130.57,53.833 1125.007,53.833 
			987.083,182.844 987.083,187.845 		"/>
		<polygon fill="none" stroke="#FFFFFF" stroke-width="4" stroke-miterlimit="10" points="1165.48,53.833 1160.126,53.833 
			987.083,215.646 987.083,220.646 		"/>
		<polygon fill="none" stroke="#FFFFFF" stroke-width="4" stroke-miterlimit="10" points="1065.042,53.833 1059.471,53.833 
			987.083,121.637 987.083,126.637 		"/>
		<polygon fill="none" stroke="#FFFFFF" stroke-width="4" stroke-miterlimit="10" points="1483.083,240.049 1483.083,235.049 
			1347.091,361.861 1352.654,361.861 		"/>
		<polygon fill="none" stroke="#FFFFFF" stroke-width="4" stroke-miterlimit="10" points="1483.083,207.246 1483.083,202.246 
			1311.962,361.861 1317.533,361.861 		"/>
		<polygon fill="none" stroke="#FFFFFF" stroke-width="4" stroke-miterlimit="10" points="1483.083,272.853 1483.083,267.853 
			1382.21,361.861 1387.564,361.861 		"/>
		<polygon fill="none" stroke="#FFFFFF" stroke-width="4" stroke-miterlimit="10" points="1483.083,336.259 1483.083,331.062 
			1450.097,361.861 1455.451,361.861 		"/>
		<polygon fill="none" stroke="#FFFFFF" stroke-width="4" stroke-miterlimit="10" points="1483.083,303.451 1483.083,298.255 
			1414.978,361.861 1420.33,361.861 		"/>
		<path fill="none" stroke="#FFFFFF" stroke-width="4" stroke-miterlimit="10" d="M1483.083,78.433v-2.598
			c0-0.8,0-1.602-0.218-2.402l-308.819,288.429h5.563L1483.083,78.433z"/>
		<polygon fill="none" stroke="#FFFFFF" stroke-width="4" stroke-miterlimit="10" points="1483.083,174.642 1483.083,169.442 
			1277.063,361.861 1282.408,361.861 		"/>
		<polygon fill="none" stroke="#FFFFFF" stroke-width="4" stroke-miterlimit="10" points="1441.531,53.833 1435.966,53.833 
			1106.159,361.861 1111.73,361.861 		"/>
		<path fill="none" stroke="#FFFFFF" stroke-width="4" stroke-miterlimit="10" d="M1471.087,56.831
			c-1.281-0.601-2.359-1.2-3.642-1.6l-328.521,306.63h5.563L1471.087,56.831z"/>
		<polygon fill="none" stroke="#FFFFFF" stroke-width="4" stroke-miterlimit="10" points="1483.083,111.237 1483.083,106.038 
			1209.166,361.861 1214.521,361.861 		"/>
		<polygon fill="none" stroke="#FFFFFF" stroke-width="4" stroke-miterlimit="10" points="1483.083,144.039 1483.083,138.841 
			1244.294,361.861 1249.647,361.861 		"/>
	</g>
	<g id="Outline_4_">
		<circle fill="none" stroke="#FFFFFF" stroke-width="8" stroke-miterlimit="10" cx="1026.062" cy="208.843" r="14.167"/>
		<path fill="none" stroke="#FFFFFF" stroke-width="12" stroke-miterlimit="10" d="M1458.441,257.762h-448.885
			c-12.85,0-23.558-3.313-23.558-7.289v-87.469c0-4.042,10.708-7.289,23.56-7.289h448.883c13.062,0,23.559,3.245,23.559,7.289
			v87.468C1481.999,254.514,1471.289,257.762,1458.441,257.762z"/>
	</g>
	<g id="Outline_2_">
		<path fill="none" stroke="#FFFFFF" stroke-width="12" stroke-miterlimit="10" d="M1457.81,155.88h-448.884
			c-12.851,0-23.559-3.313-23.559-7.289V61.123c0-4.042,10.708-7.289,23.559-7.289h448.884c13.062,0,23.559,3.245,23.559,7.289
			v87.468C1481.367,152.632,1470.657,155.88,1457.81,155.88z"/>
		<circle fill="none" stroke="#FFFFFF" stroke-width="8" stroke-miterlimit="10" cx="1026.062" cy="104.857" r="14.167"/>
	</g>
	<g id="Outline_3_">
		<circle fill="none" stroke="#FFFFFF" stroke-width="8" stroke-miterlimit="10" cx="1026.063" cy="312.596" r="14.168"/>
		<path fill="none" stroke="#FFFFFF" stroke-width="12" stroke-miterlimit="10" d="M1458.442,360.031h-448.884
			c-12.851,0-23.559-3.313-23.559-7.289v-87.469c0-4.042,10.708-7.289,23.559-7.289h448.884c13.062,0,23.559,3.245,23.559,7.289
			v87.468C1482,356.783,1471.29,360.031,1458.442,360.031z"/>
	</g>
	
		<rect x="1166.764" y="140.239" fill="#303030" stroke="#FFFFFF" stroke-width="12" stroke-miterlimit="10" width="133.207" height="133.206"/>
</g>
<g id="Layer_7">
	<g opacity="0.5">
		<path fill="none" stroke="#FFFFFF" stroke-width="4" stroke-miterlimit="10" d="M-645.196-27.75l-253.165,384.346
			c0.17,1.852,0.519,3.447,1.043,5.301L-640.657-27.75H-645.196z"/>
		<polygon fill="none" stroke="#FFFFFF" stroke-width="4" stroke-miterlimit="10" points="-675.111,-28.398 -911.575,330.861 
			-911.575,337.829 -670.335,-28.398 		"/>
		<polygon fill="none" stroke="#FFFFFF" stroke-width="4" stroke-miterlimit="10" points="-705.037,-28.398 -911.575,285.154 
			-911.575,292.398 -700.446,-28.398 		"/>
		<path fill="none" stroke="#FFFFFF" stroke-width="4" stroke-miterlimit="10" d="M-620.346-22.989l-260.313,395.707
			c1.017,0.522,2.204,1.029,3.398,1.29l261.33-396.997H-620.346z"/>
		<polygon fill="none" stroke="#FFFFFF" stroke-width="4" stroke-miterlimit="10" points="-594.355,-16.632 -856.743,381.721 
			-852.484,381.721 -590.087,-16.632 		"/>
		<polygon fill="none" stroke="#FFFFFF" stroke-width="4" stroke-miterlimit="10" points="-829.391,-12.459 -911.575,112.546 
			-911.575,118.759 -825.138,-12.459 		"/>
		<polygon fill="none" stroke="#FFFFFF" stroke-width="4" stroke-miterlimit="10" points="-735.143,-28.398 -911.575,239.444 
			-911.575,246.692 -730.553,-28.398 		"/>
		<polygon fill="none" stroke="#FFFFFF" stroke-width="4" stroke-miterlimit="10" points="-567.771,-11.372 -830.613,387.661 
			-826.346,387.661 -563.503,-11.372 		"/>
		<polygon fill="none" stroke="#FFFFFF" stroke-width="4" stroke-miterlimit="10" points="-801.344,-15.756 -911.575,151.843 
			-911.575,158.339 -796.896,-15.756 		"/>
		<polygon fill="none" stroke="#FFFFFF" stroke-width="4" stroke-miterlimit="10" points="-765.013,-25.61 -911.575,197.162 
			-911.575,204.044 -760.478,-25.61 		"/>
		<polygon fill="none" stroke="#FFFFFF" stroke-width="4" stroke-miterlimit="10" points="-866.463,-0.699 -911.575,67.984 
			-911.575,73.049 -862.991,-0.699 		"/>
		<polygon fill="none" stroke="#FFFFFF" stroke-width="4" stroke-miterlimit="10" points="-591.412,390.112 -486.378,230.661 
			-486.378,224.115 -595.893,390.112 		"/>
		<polygon fill="none" stroke="#FFFFFF" stroke-width="4" stroke-miterlimit="10" points="-628.295,400.821 -486.378,185.373 
			-486.378,178.406 -633.072,400.821 		"/>
		<polygon fill="none" stroke="#FFFFFF" stroke-width="4" stroke-miterlimit="10" points="-559.167,386.274 -486.378,276.021 
			-486.378,269.827 -563.249,386.274 		"/>
		<polygon fill="none" stroke="#FFFFFF" stroke-width="4" stroke-miterlimit="10" points="-521.792,370.538 -486.378,316.956 
			-486.378,312.189 -524.813,370.538 		"/>
		<path fill="none" stroke="#FFFFFF" stroke-width="4" stroke-miterlimit="10" d="M-498.574,17.145L-751.3,400.821h4.552
			l248.352-377.025V20.34C-498.396,19.277-498.396,18.209-498.574,17.145z"/>
		<polygon fill="none" stroke="#FFFFFF" stroke-width="4" stroke-miterlimit="10" points="-658.406,400.821 -486.378,139.941 
			-486.378,132.696 -662.989,400.821 		"/>
		<polygon fill="none" stroke="#FFFFFF" stroke-width="4" stroke-miterlimit="10" points="-543.106,-3.429 -802.86,390.914 
			-798.473,390.914 -538.722,-3.429 		"/>
		<path fill="none" stroke="#FFFFFF" stroke-width="4" stroke-miterlimit="10" d="M-519.315,3.228l-259.457,393.637h4.394
			L-516.44,5.282C-517.453,4.509-518.305,3.741-519.315,3.228z"/>
		<polygon fill="none" stroke="#FFFFFF" stroke-width="4" stroke-miterlimit="10" points="-716.604,400.821 -486.378,51.59 
			-486.378,44.345 -721.193,400.821 		"/>
		<polygon fill="none" stroke="#FFFFFF" stroke-width="4" stroke-miterlimit="10" points="-686.491,400.821 -486.378,97.298 
			-486.378,90.055 -691.081,400.821 		"/>
	</g>
	<path fill="none" stroke="#FFFFFF" stroke-width="8" stroke-miterlimit="10" d="M-487.733,38.238
		c0,36.802-94.879,66.636-211.919,66.636S-911.571,75.04-911.571,38.238 M-487.733,38.238c0-36.803-94.879-66.637-211.919-66.637
		S-911.571,1.436-911.571,38.238 M-487.733,185.289V38.238 M-911.571,38.238v147.051 M-911.571,185.289v147.05h0.216
		 M-487.949,332.339h0.216v-147.05 M-911.355,332.339c-0.134,0.975-0.216,1.954-0.216,2.938c0,36.802,94.879,66.637,211.919,66.637
		s211.919-29.835,211.919-66.637c0-0.983-0.082-1.963-0.216-2.938 M-911.571,185.289c0,36.802,94.879,66.636,211.919,66.636
		s211.919-29.834,211.919-66.636"/>
	
		<rect x="-767.376" y="140.32" fill="#303030" stroke="#FFFFFF" stroke-width="12" stroke-miterlimit="10" width="133.207" height="133.206"/>
</g>
<g id="Workstation_1_">
	<g id="Group">
		<g id="Outline">
			<path fill="none" stroke="#FFFFFF" stroke-width="12" stroke-miterlimit="10" d="M480.442,369.827H31.558
				C18.708,369.827,8,359.12,8,346.27V63.577c0-13.065,10.708-23.559,23.559-23.559h448.883c13.062,0,23.559,10.49,23.559,23.559
				v282.69C504,359.33,493.29,369.827,480.442,369.827z"/>
			<path fill="none" stroke="#FFFFFF" stroke-width="12" stroke-miterlimit="10" d="M381.926,400.663H256H130.07
				c-18.412,0-33.193,14.78-33.193,33.196v38.122H256h159.123v-38.122C415.122,415.654,400.342,400.663,381.926,400.663z"/>
		</g>
		<g id="Fill" opacity="0.5">
			<path fill="none" stroke="#FFFFFF" stroke-width="4" stroke-miterlimit="10" d="M324.53,40.02h-5.567L8.434,350.553
				c0.209,1.497,0.637,2.786,1.28,4.283L324.53,40.02z"/>
			<polygon fill="none" stroke="#FFFFFF" stroke-width="4" stroke-miterlimit="10" points="289.41,40.02 283.84,40.02 8,316.07 
				8,321.425 			"/>
			<polygon fill="none" stroke="#FFFFFF" stroke-width="4" stroke-miterlimit="10" points="254.285,40.02 248.93,40.02 8,280.95 
				8,286.516 			"/>
			<path fill="none" stroke="#FFFFFF" stroke-width="4" stroke-miterlimit="10" d="M357.081,40.02h-5.563L23.424,368.541
				c1.281,0.434,2.778,0.854,4.283,1.07L357.081,40.02z"/>
			<polygon fill="none" stroke="#FFFFFF" stroke-width="4" stroke-miterlimit="10" points="392.209,40.02 386.846,40.02 
				57.047,369.827 62.401,369.827 			"/>
			<polygon fill="none" stroke="#FFFFFF" stroke-width="4" stroke-miterlimit="10" points="121.078,40.02 115.514,40.02 8,147.74 
				8,153.094 			"/>
			<polygon fill="none" stroke="#FFFFFF" stroke-width="4" stroke-miterlimit="10" points="219.165,40.02 213.811,40.02 8,245.827 
				8,251.396 			"/>
			<polygon fill="none" stroke="#FFFFFF" stroke-width="4" stroke-miterlimit="10" points="8,79.852 8,85.42 53.191,40.02 
				47.62,40.02 			"/>
			<polygon fill="none" stroke="#FFFFFF" stroke-width="4" stroke-miterlimit="10" points="427.327,40.02 421.973,40.02 
				92.167,369.827 97.521,369.827 			"/>
			<polygon fill="none" stroke="#FFFFFF" stroke-width="4" stroke-miterlimit="10" points="151.488,40.02 145.924,40.02 8,178.153 
				8,183.507 			"/>
			<polygon fill="none" stroke="#FFFFFF" stroke-width="4" stroke-miterlimit="10" points="186.397,40.02 181.043,40.02 8,213.273 
				8,218.626 			"/>
			<polygon fill="none" stroke="#FFFFFF" stroke-width="4" stroke-miterlimit="10" points="85.959,40.02 80.388,40.02 8,112.617 
				8,117.971 			"/>
			<polygon fill="none" stroke="#FFFFFF" stroke-width="4" stroke-miterlimit="10" points="504,239.403 504,234.048 
				368.008,369.827 373.571,369.827 			"/>
			<polygon fill="none" stroke="#FFFFFF" stroke-width="4" stroke-miterlimit="10" points="504,204.279 504,198.926 
				332.879,369.827 338.45,369.827 			"/>
			<polygon fill="none" stroke="#FFFFFF" stroke-width="4" stroke-miterlimit="10" points="504,274.525 504,269.172 
				403.127,369.827 408.481,369.827 			"/>
			<polygon fill="none" stroke="#FFFFFF" stroke-width="4" stroke-miterlimit="10" points="504,342.414 504,336.85 471.014,369.827 
				476.368,369.827 			"/>
			<polygon fill="none" stroke="#FFFFFF" stroke-width="4" stroke-miterlimit="10" points="504,307.287 504,301.723 
				435.895,369.827 441.247,369.827 			"/>
			<path fill="none" stroke="#FFFFFF" stroke-width="4" stroke-miterlimit="10" d="M504,66.359v-2.782c0-0.856,0-1.715-0.218-2.572
				L194.963,369.827h5.563L504,66.359z"/>
			<polygon fill="none" stroke="#FFFFFF" stroke-width="4" stroke-miterlimit="10" points="504,169.37 504,163.803 297.979,369.827 
				303.325,369.827 			"/>
			<polygon fill="none" stroke="#FFFFFF" stroke-width="4" stroke-miterlimit="10" points="462.448,40.02 456.883,40.02 
				127.076,369.827 132.647,369.827 			"/>
			<path fill="none" stroke="#FFFFFF" stroke-width="4" stroke-miterlimit="10" d="M492.004,43.229
				c-1.281-0.644-2.359-1.285-3.642-1.713L159.842,369.827h5.563L492.004,43.229z"/>
			<polygon fill="none" stroke="#FFFFFF" stroke-width="4" stroke-miterlimit="10" points="504,101.482 504,95.915 230.083,369.827 
				235.437,369.827 			"/>
			<polygon fill="none" stroke="#FFFFFF" stroke-width="4" stroke-miterlimit="10" points="504,136.604 504,131.038 
				265.211,369.827 270.564,369.827 			"/>
		</g>
	</g>
	
		<rect x="190.252" y="140.783" fill="#303030" stroke="#FFFFFF" stroke-width="12" stroke-miterlimit="10" width="133.207" height="133.207"/>
</g>
<g id="Layer_2">
	<g id="memory_1_">
		<rect id="memory_back" x="272.845" y="-32.5" opacity="0.5" fill="#FFFFFF" width="206.007" height="44"/>
		<rect id="memory_fill" x="375.849" y="-32.5" opacity="0.8" fill="#00CFFF" width="103.003" height="44"/>
		<g id="memory">
			<path fill="#FFFFFF" d="M490.798-26.86v-1.714h4.548v-2.828h-4.548v-1.114h-4.438v-6.377h-30.171v6.267h-4.548v1.115h-4.549
				v2.828h4.549v1.713h4.548v3.823h-4.548v1.114h-4.549v2.828h4.549v1.713h4.548v4.387h-4.548v1.114h-4.549v2.83h4.549v1.714h4.548
				v4.104h-4.548v1.115h-4.549v2.828h4.549v1.713h4.548v3.662h-4.548v1.114h-4.549v2.827h4.549v1.715h4.548v6.266h30.17v-6.156
				h4.437v-1.714h4.549V7.196h-4.549V6.082h-4.437V2.421h4.437V0.708h4.549V-2.12h-4.549v-1.114h-4.437v-4.104h4.437v-1.713h4.549
				v-2.829h-4.549v-1.114h-4.437v-4.387h4.437v-1.713h4.549v-2.828h-4.549v-1.115h-4.437v-3.82h4.438V-26.86z M479.704-31.353
				c-1.285,0-2.328-1.042-2.328-2.329c0-1.286,1.043-2.33,2.328-2.33c1.287,0,2.33,1.044,2.33,2.33
				C482.034-32.395,480.991-31.353,479.704-31.353z"/>
		</g>
	</g>
	<g id="cpu_1_">
		<rect id="cpu_back" x="39.093" y="-32.5" opacity="0.5" fill="#FFFFFF" width="207.771" height="44"/>
		<rect id="cpu_fill" x="39.093" y="-32.5" opacity="0.8" fill="#CE0000" width="157.668" height="44"/>
		<g id="cpu">
			<path fill="#FFFFFF" d="M82.199-20.123c0.664,0,1.204-0.539,1.204-1.204c0-0.666-0.54-1.205-1.204-1.205h-3.615v-4.81h3.615
				c0.664,0,1.204-0.539,1.204-1.204s-0.54-1.205-1.204-1.205h-3.615v-2.427c0-3.321-2.703-6.023-6.024-6.023h-2.426v-3.613
				c0-0.666-0.539-1.205-1.205-1.205c-0.665,0-1.205,0.539-1.205,1.205v3.613h-4.809v-3.613c0-0.666-0.54-1.205-1.205-1.205
				c-0.665,0-1.205,0.539-1.205,1.205v3.613h-4.809v-3.613c0-0.666-0.539-1.205-1.205-1.205c-0.665,0-1.205,0.539-1.205,1.205v3.613
				h-4.809v-3.613c0-0.666-0.539-1.205-1.205-1.205c-0.665,0-1.205,0.539-1.205,1.205v3.613h-4.809v-3.613
				c0-0.666-0.54-1.205-1.205-1.205c-0.666,0-1.205,0.539-1.205,1.205v3.613h-4.809v-3.613c0-0.666-0.539-1.205-1.205-1.205
				c-0.665,0-1.205,0.539-1.205,1.205v3.613h-2.429c-3.321,0-6.023,2.702-6.023,6.023v2.427h-3.612c-0.665,0-1.205,0.54-1.205,1.205
				s0.54,1.204,1.205,1.204h3.612v4.81h-3.612c-0.665,0-1.205,0.539-1.205,1.205c0,0.665,0.54,1.204,1.205,1.204h3.612v4.81h-3.612
				c-0.665,0-1.205,0.539-1.205,1.204c0,0.666,0.54,1.205,1.205,1.205h3.612v4.809h-3.612c-0.665,0-1.205,0.54-1.205,1.205
				s0.54,1.205,1.205,1.205h3.612v4.809h-3.612c-0.665,0-1.205,0.539-1.205,1.205c0,0.665,0.54,1.204,1.205,1.204h3.612v4.81h-3.612
				c-0.665,0-1.205,0.539-1.205,1.204c0,0.666,0.54,1.205,1.205,1.205h3.612v2.427c0,3.321,2.702,6.023,6.023,6.023h2.429v3.613
				c0,0.666,0.54,1.205,1.205,1.205c0.666,0,1.205-0.539,1.205-1.205v-3.613h4.809v3.613c0,0.666,0.54,1.205,1.205,1.205
				c0.665,0,1.205-0.539,1.205-1.205v-3.613h4.809v3.613c0,0.666,0.54,1.205,1.205,1.205c0.666,0,1.205-0.539,1.205-1.205v-3.613
				h4.809v3.613c0,0.666,0.54,1.205,1.205,1.205c0.666,0,1.205-0.539,1.205-1.205v-3.613h4.809v3.613
				c0,0.666,0.54,1.205,1.205,1.205c0.666,0,1.205-0.539,1.205-1.205v-3.613h4.809v3.613c0,0.666,0.54,1.205,1.205,1.205
				c0.666,0,1.205-0.539,1.205-1.205v-3.613h2.426c3.321,0,6.024-2.702,6.024-6.023V8.751h3.615c0.664,0,1.204-0.539,1.204-1.205
				c0-0.665-0.54-1.204-1.204-1.204h-3.615v-4.81h3.615c0.664,0,1.204-0.539,1.204-1.204c0-0.666-0.54-1.205-1.204-1.205h-3.615
				v-4.809h3.615c0.664,0,1.204-0.54,1.204-1.205s-0.54-1.205-1.204-1.205h-3.615v-4.809h3.615c0.664,0,1.204-0.539,1.204-1.205
				c0-0.665-0.54-1.204-1.204-1.204h-3.615v-4.81H82.199z M76.174,11.178c0,1.993-1.622,3.614-3.614,3.614H29.204
				c-1.993,0-3.614-1.621-3.614-3.614v-43.355c0-1.993,1.621-3.614,3.614-3.614H72.56c1.993,0,3.614,1.621,3.614,3.614V11.178
				L76.174,11.178z"/>
			<path fill="#FFFFFF" stroke="#FFFFFF" stroke-width="0" stroke-linecap="round" stroke-linejoin="round" d="M70.132-32.159h-38.5
				c-1.329,0-2.409,1.081-2.409,2.409v38.5c0,1.328,1.081,2.409,2.409,2.409h38.5c1.328,0,2.409-1.081,2.409-2.409v-38.5
				C72.542-31.078,71.46-32.159,70.132-32.159z M61.216-0.167H40.96v-20.256h20.256V-0.167z"/>
		</g>
	</g>
</g>
<g id="Layer_4">
	<g display="none">
		<path display="inline" fill="#FFFFFF" d="M347.67,442.988h1.18v4.142c0,0.51,0.413,0.923,0.923,0.923h3.715
			c0.51,0,0.923-0.413,0.923-0.923v-4.142h1.845v4.142c0,0.51,0.413,0.923,0.923,0.923h3.715c0.51,0,0.923-0.413,0.923-0.923v-4.142
			h1.18c0.51,0,0.923-0.413,0.923-0.922c0-0.51-0.413-0.923-0.923-0.923h-0.553v-12.9h2.522l8.054,4.59
			c1.494,0.859,2.757,3.043,2.757,4.768v6.238c0,0.511,0.413,0.924,0.923,0.924s0.922-0.413,0.922-0.924v-6.238
			c0-2.383-1.617-5.179-3.685-6.369l-8.27-4.712c-0.139-0.08-0.297-0.121-0.456-0.121h-2.768v-4.718c0-0.51-0.413-0.923-0.923-0.923
			h-1.554v-7.675c0-0.509-0.413-0.922-0.922-0.922h-7.422c-0.51,0-0.923,0.413-0.923,0.922v7.675h-1.554
			c-0.51,0-0.923,0.413-0.923,0.923v19.463h-0.553c-0.509,0-0.923,0.413-0.923,0.923C346.747,442.575,347.16,442.988,347.67,442.988
			L347.67,442.988z M352.565,446.207h-1.871v-3.219h1.871V446.207z M359.97,446.207h-1.87v-3.219h1.87V446.207z M352.545,414.006
			h5.576v6.752h-5.576V414.006z M350.068,422.604h10.529v18.54h-10.529V422.604z"/>
		<path display="inline" fill="#FFFFFF" d="M376.698,446.607c-2.57,0-4.662,2.092-4.662,4.662c0,2.255,1.609,4.141,3.739,4.57
			v12.287h-37.799l2.262-5.273c0.659-1.535,2.627-2.832,4.297-2.832h28.424c0.51,0,0.922-0.413,0.922-0.923
			s-0.412-0.923-0.922-0.923h-2.768v-19.994c0-0.331-0.179-0.638-0.468-0.802l-4.059-2.302c-0.443-0.251-1.007-0.095-1.258,0.348
			c-0.252,0.443-0.096,1.007,0.348,1.258l3.591,2.036v11.627H347.67c-0.509,0-0.923,0.413-0.923,0.923v3.69
			c0,0.509,0.414,0.922,0.923,0.922h17.908c0.51,0,0.923-0.413,0.923-0.922c0-0.51-0.413-0.923-0.923-0.923h-16.985v-1.846h19.753
			v5.985h-23.811c-2.409,0-5.042,1.734-5.992,3.949l-2.813,6.561c-0.122,0.285-0.094,0.612,0.077,0.871
			c0.171,0.26,0.46,0.415,0.771,0.415h40.121c0.51,0,0.923-0.413,0.923-0.923v-13.21c2.13-0.43,3.739-2.315,3.739-4.57
			C381.36,448.699,379.27,446.607,376.698,446.607L376.698,446.607z M376.698,454.087c-1.553,0-2.817-1.264-2.817-2.817
			s1.264-2.817,2.817-2.817s2.816,1.264,2.816,2.817C379.515,452.822,378.252,454.087,376.698,454.087z"/>
	</g>
</g>
<g id="Layer_8">
	
		<line fill="none" stroke="#D81FFF" stroke-width="40" stroke-miterlimit="10" x1="323.459" y1="205.672" x2="1165.48" y2="205.672"/>
	
		<line fill="none" stroke="#D81FFF" stroke-width="40" stroke-miterlimit="10" x1="190.252" y1="207.386" x2="-634.17" y2="207.386"/>
</g>
<g id="Layer_5">
</g>
</svg>
