<?xml version="1.0" encoding="utf-8"?>
<!-- Generator: Adobe Illustrator 16.0.3, SVG Export Plug-In . SVG Version: 6.00 Build 0)  -->
<!DOCTYPE svg PUBLIC "-//W3C//DTD SVG 1.1//EN" "http://www.w3.org/Graphics/SVG/1.1/DTD/svg11.dtd">
<svg version="1.1" id="Workstation_1_" xmlns="http://www.w3.org/2000/svg" xmlns:xlink="http://www.w3.org/1999/xlink" x="0px"
	 y="0px" width="512px" height="512px" viewBox="0 0 512 512" enable-background="new 0 0 512 512" xml:space="preserve">
<g id="Group">
	<g id="Outline">
		<path fill="none" stroke="#FFFFFF" stroke-width="12" stroke-miterlimit="10" d="M480.442,369.827H31.558
			C18.708,369.827,8,359.12,8,346.27V63.577c0-13.065,10.708-23.559,23.559-23.559h448.883c13.062,0,23.559,10.49,23.559,23.559
			v282.69C504,359.33,493.29,369.827,480.442,369.827z"/>
		<path fill="none" stroke="#FFFFFF" stroke-width="12" stroke-miterlimit="10" d="M381.926,400.663H256h-125.93
			c-18.412,0-33.193,14.78-33.193,33.196v38.122H256h159.123v-38.122C415.122,415.654,400.342,400.663,381.926,400.663z"/>
	</g>
	<g id="Fill" display="none" opacity="0.6">
		<path display="inline" fill="none" stroke="#FFFFFF" stroke-width="4" stroke-miterlimit="10" d="M324.53,40.02h-5.567
			L8.434,350.553c0.209,1.497,0.637,2.786,1.28,4.283L324.53,40.02z"/>
		<polygon display="inline" fill="none" stroke="#FFFFFF" stroke-width="4" stroke-miterlimit="10" points="289.41,40.02 
			283.84,40.02 8,316.07 8,321.425 		"/>
		<polygon display="inline" fill="none" stroke="#FFFFFF" stroke-width="4" stroke-miterlimit="10" points="254.285,40.02 
			248.93,40.02 8,280.95 8,286.516 		"/>
		<path display="inline" fill="none" stroke="#FFFFFF" stroke-width="4" stroke-miterlimit="10" d="M357.081,40.02h-5.563
			L23.424,368.541c1.281,0.434,2.778,0.854,4.283,1.07L357.081,40.02z"/>
		<polygon display="inline" fill="none" stroke="#FFFFFF" stroke-width="4" stroke-miterlimit="10" points="392.209,40.02 
			386.846,40.02 57.047,369.827 62.401,369.827 		"/>
		<polygon display="inline" fill="none" stroke="#FFFFFF" stroke-width="4" stroke-miterlimit="10" points="121.078,40.02 
			115.514,40.02 8,147.74 8,153.094 		"/>
		<polygon display="inline" fill="none" stroke="#FFFFFF" stroke-width="4" stroke-miterlimit="10" points="219.165,40.02 
			213.811,40.02 8,245.827 8,251.396 		"/>
		<polygon display="inline" fill="none" stroke="#FFFFFF" stroke-width="4" stroke-miterlimit="10" points="8,79.852 8,85.42 
			53.191,40.02 47.62,40.02 		"/>
		<polygon display="inline" fill="none" stroke="#FFFFFF" stroke-width="4" stroke-miterlimit="10" points="427.327,40.02 
			421.973,40.02 92.167,369.827 97.521,369.827 		"/>
		<polygon display="inline" fill="none" stroke="#FFFFFF" stroke-width="4" stroke-miterlimit="10" points="151.488,40.02 
			145.924,40.02 8,178.153 8,183.507 		"/>
		<polygon display="inline" fill="none" stroke="#FFFFFF" stroke-width="4" stroke-miterlimit="10" points="186.397,40.02 
			181.043,40.02 8,213.273 8,218.626 		"/>
		<polygon display="inline" fill="none" stroke="#FFFFFF" stroke-width="4" stroke-miterlimit="10" points="85.959,40.02 
			80.388,40.02 8,112.617 8,117.971 		"/>
		<polygon display="inline" fill="none" stroke="#FFFFFF" stroke-width="4" stroke-miterlimit="10" points="504,239.403 
			504,234.048 368.008,369.827 373.571,369.827 		"/>
		<polygon display="inline" fill="none" stroke="#FFFFFF" stroke-width="4" stroke-miterlimit="10" points="504,204.279 
			504,198.926 332.879,369.827 338.45,369.827 		"/>
		<polygon display="inline" fill="none" stroke="#FFFFFF" stroke-width="4" stroke-miterlimit="10" points="504,274.525 
			504,269.172 403.127,369.827 408.481,369.827 		"/>
		<polygon display="inline" fill="none" stroke="#FFFFFF" stroke-width="4" stroke-miterlimit="10" points="504,342.414 504,336.85 
			471.014,369.827 476.368,369.827 		"/>
		<polygon display="inline" fill="none" stroke="#FFFFFF" stroke-width="4" stroke-miterlimit="10" points="504,307.287 
			504,301.723 435.895,369.827 441.247,369.827 		"/>
		<path display="inline" fill="none" stroke="#FFFFFF" stroke-width="4" stroke-miterlimit="10" d="M504,66.359v-2.782
			c0-0.856,0-1.715-0.218-2.572L194.963,369.827h5.563L504,66.359z"/>
		<polygon display="inline" fill="none" stroke="#FFFFFF" stroke-width="4" stroke-miterlimit="10" points="504,169.37 504,163.803 
			297.979,369.827 303.325,369.827 		"/>
		<polygon display="inline" fill="none" stroke="#FFFFFF" stroke-width="4" stroke-miterlimit="10" points="462.448,40.02 
			456.883,40.02 127.076,369.827 132.647,369.827 		"/>
		<path display="inline" fill="none" stroke="#FFFFFF" stroke-width="4" stroke-miterlimit="10" d="M492.004,43.229
			c-1.281-0.644-2.359-1.285-3.642-1.713l-328.52,328.311h5.563L492.004,43.229z"/>
		<polygon display="inline" fill="none" stroke="#FFFFFF" stroke-width="4" stroke-miterlimit="10" points="504,101.482 504,95.915 
			230.083,369.827 235.437,369.827 		"/>
		<polygon display="inline" fill="none" stroke="#FFFFFF" stroke-width="4" stroke-miterlimit="10" points="504,136.604 
			504,131.038 265.211,369.827 270.565,369.827 		"/>
	</g>
</g>
</svg>
