<?xml version="1.0" encoding="utf-8"?>
<!-- Generator: Adobe Illustrator 16.0.3, SVG Export Plug-In . SVG Version: 6.00 Build 0)  -->
<!DOCTYPE svg PUBLIC "-//W3C//DTD SVG 1.1//EN" "http://www.w3.org/Graphics/SVG/1.1/DTD/svg11.dtd">
<svg version="1.1" id="Layer_1" xmlns="http://www.w3.org/2000/svg" xmlns:xlink="http://www.w3.org/1999/xlink" x="0px" y="0px"
	 width="64px" height="64px" viewBox="0 0 64 64" enable-background="new 0 0 64 64" xml:space="preserve">
<g>
	<path fill="#FFFFFF" d="M45.666,18.567C44.137,16.855,42.096,16,39.398,16c-0.729,0-1.457,0.17-2.26,0.428
		c-0.729,0.257-1.457,0.685-2.113,1.198c-0.657,0.513-1.238,1.026-1.676,1.454c-0.438,0.428-0.949,0.941-1.385,1.456
		c-0.438-0.515-0.876-0.942-1.386-1.456c-0.438-0.428-1.02-0.94-1.677-1.454c-0.655-0.513-1.384-0.941-2.113-1.198
		C26.06,16.171,25.257,16,24.528,16c-2.623,0-4.738,0.855-6.267,2.567C16.729,20.278,16,22.674,16,25.754
		c0,0.941,0.146,1.881,0.438,2.909c0.291,1.026,0.581,1.796,0.948,2.48c0.362,0.685,0.729,1.371,1.239,2.054
		c0.436,0.684,0.8,1.113,1.02,1.369c0.219,0.257,0.364,0.428,0.51,0.514l11.081,12.577c0.217,0.257,0.436,0.344,0.8,0.344
		c0.293,0,0.583-0.087,0.803-0.344l11.079-12.49C46.613,31.999,48,28.833,48,25.754C47.927,22.674,47.198,20.363,45.666,18.567
		L45.666,18.567z"/>
</g>
</svg>
