<?xml version="1.0" encoding="utf-8"?>
<!-- Generator: Adobe Illustrator 16.0.3, SVG Export Plug-In . SVG Version: 6.00 Build 0)  -->
<!DOCTYPE svg PUBLIC "-//W3C//DTD SVG 1.1//EN" "http://www.w3.org/Graphics/SVG/1.1/DTD/svg11.dtd">
<svg version="1.1" xmlns="http://www.w3.org/2000/svg" xmlns:xlink="http://www.w3.org/1999/xlink" x="0px" y="0px"
	 width="285.518px" height="285.518px" viewBox="-110.759 -110.759 285.518 285.518"
	 enable-background="new -110.759 -110.759 285.518 285.518" xml:space="preserve">
<g id="HIDE_ME">
	<rect x="-123.905" y="-123.905" fill="#353535" width="311.811" height="311.811"/>
</g>
<g id="Layer_1">
	<g>
		<path fill="none" stroke="#FFFFFF" stroke-width="2.0526" stroke-miterlimit="10" stroke-dasharray="3.9858,3.9858" d="
			M140.393,173.732H-76.38c-18.348,0-33.353-15.242-33.353-33.885V-75.848c0-18.638,15.005-33.885,33.353-33.885h216.772
			c18.34,0,33.34,15.247,33.34,33.885v216.275C173.732,159.061,158.732,173.732,140.393,173.732z"/>
	</g>
	<g>
		<path fill="#FFFFFF" d="M-3.598,39.457h4.352v15.26c0,1.877,1.522,3.391,3.399,3.391h13.69c1.877,0,3.399-1.514,3.399-3.391
			v-15.26h6.795v15.26c0,1.877,1.522,3.391,3.399,3.391h13.694c1.877,0,3.399-1.514,3.399-3.391v-15.26h4.343
			c1.886,0,3.408-1.522,3.408-3.404c0-1.877-1.522-3.399-3.408-3.399h-2.033v-47.536h9.291L89.813,2.03
			c5.511,3.17,10.155,11.211,10.155,17.569v22.99c0,1.877,1.522,3.399,3.4,3.399c1.877,0,3.399-1.522,3.399-3.399v-22.99
			c0-8.78-5.951-19.083-13.581-23.469L62.71-21.236c-0.502-0.29-1.09-0.45-1.679-0.45h-10.19v-17.379c0-1.877-1.522-3.4-3.399-3.4
			h-5.735v-28.279c0-1.877-1.522-3.4-3.391-3.4h-27.35c-1.877,0-3.399,1.522-3.399,3.4v28.279H1.844c-1.877,0-3.404,1.522-3.404,3.4
			v71.718h-2.038c-1.877,0-3.395,1.522-3.395,3.399C-6.993,37.935-5.475,39.457-3.598,39.457L-3.598,39.457z M14.439,51.316H7.553
			V39.457h6.886V51.316z M41.724,51.316h-6.886V39.457h6.886V51.316z M14.366-67.344h20.545v24.879H14.366V-67.344z M5.244-35.666
			h38.798v68.319H5.244V-35.666z"/>
		<path fill="#FFFFFF" d="M103.368,52.787c-9.464,0-17.181,7.708-17.181,17.172c0,8.313,5.935,15.26,13.78,16.843v45.286H-39.312
			l8.331-19.43c2.426-5.657,9.68-10.44,15.835-10.44H89.587c1.878,0,3.4-1.522,3.4-3.4c0-1.877-1.522-3.399-3.4-3.399H79.389V21.745
			c0-1.224-0.658-2.357-1.713-2.958L62.71,10.304c-1.627-0.926-3.702-0.351-4.628,1.28c-0.926,1.635-0.355,3.711,1.271,4.637
			l13.244,7.5v42.847H-3.598c-1.877,0-3.395,1.522-3.395,3.391v13.599c0,1.886,1.518,3.408,3.395,3.408H62.39
			c1.886,0,3.399-1.522,3.399-3.408c0-1.868-1.514-3.391-3.399-3.391H-0.198v-6.8h72.795v22.051h-87.744
			c-8.88,0-18.582,6.393-22.081,14.551l-10.368,24.17c-0.45,1.063-0.346,2.266,0.286,3.218c0.627,0.951,1.695,1.531,2.837,1.531
			h147.84c1.877,0,3.399-1.522,3.399-3.408V86.802c7.854-1.583,13.78-8.529,13.78-16.843
			C120.548,60.495,112.849,52.787,103.368,52.787L103.368,52.787z M103.368,80.349c-5.719,0-10.381-4.654-10.381-10.39
			c0-5.718,4.662-10.372,10.381-10.372c5.727,0,10.381,4.654,10.381,10.372C113.749,75.694,109.095,80.349,103.368,80.349z"/>
	</g>
</g>
</svg>
