<?xml version="1.0" encoding="utf-8"?>
<!-- Generator: Adobe Illustrator 21.0.0, SVG Export Plug-In . SVG Version: 6.00 Build 0)  -->
<svg version="1.1" id="Layer_1" xmlns="http://www.w3.org/2000/svg" xmlns:xlink="http://www.w3.org/1999/xlink" x="0px" y="0px"
	 viewBox="0 0 285.5 285.5" style="enable-background:new 0 0 285.5 285.5;" xml:space="preserve">
<style type="text/css">
	.st0{display:none;}
	.st1{display:inline;fill:#353535;}
	.st2{fill:none;stroke:#FFFFFF;stroke-width:6;stroke-miterlimit:10;stroke-dasharray:10,10;}
	.st3{display:inline;fill:#FFFFFF;}
	.st4{fill:#FFFFFF;}
</style>
<g id="HIDE_ME" class="st0">
	<rect x="-13.1" y="-13.1" class="st1" width="311.8" height="311.8"/>
</g>
<g id="Layer_1_1_">
	<g id="border">
		<path class="st2" d="M251.2,284.5H34.4C16,284.5,1,269.2,1,250.6V34.9C1,16.3,16,1,34.4,1h216.8c18.3,0,33.3,15.2,33.3,33.9v216.3
			C284.5,269.8,269.5,284.5,251.2,284.5z"/>
	</g>
	<g class="st0">
		<path class="st3" d="M107.2,150.2h4.4v15.3c0,1.9,1.5,3.4,3.4,3.4h13.7c1.9,0,3.4-1.5,3.4-3.4v-15.3h6.8v15.3
			c0,1.9,1.5,3.4,3.4,3.4h13.7c1.9,0,3.4-1.5,3.4-3.4v-15.3h4.3c1.9,0,3.4-1.5,3.4-3.4c0-1.9-1.5-3.4-3.4-3.4h-2V95.9h9.3l29.7,16.9
			c5.5,3.2,10.2,11.2,10.2,17.6v23c0,1.9,1.5,3.4,3.4,3.4c1.9,0,3.4-1.5,3.4-3.4v-23c0-8.8-6-19.1-13.6-23.5l-30.5-17.4
			c-0.5-0.3-1.1-0.5-1.7-0.5h-10.2V71.7c0-1.9-1.5-3.4-3.4-3.4h-5.7V40c0-1.9-1.5-3.4-3.4-3.4h-27.4c-1.9,0-3.4,1.5-3.4,3.4v28.3
			h-5.7c-1.9,0-3.4,1.5-3.4,3.4v71.7h-2c-1.9,0-3.4,1.5-3.4,3.4C103.8,148.7,105.3,150.2,107.2,150.2L107.2,150.2z M125.2,162.1
			h-6.9v-11.9h6.9V162.1z M152.5,162.1h-6.9v-11.9h6.9V162.1z M125.1,43.4h20.5v24.9h-20.5V43.4z M116,75.1h38.8v68.3H116V75.1z"/>
		<path class="st3" d="M214.1,163.5c-9.5,0-17.2,7.7-17.2,17.2c0,8.3,5.9,15.3,13.8,16.8v45.3H71.4l8.3-19.4
			c2.4-5.7,9.7-10.4,15.8-10.4h104.7c1.9,0,3.4-1.5,3.4-3.4c0-1.9-1.5-3.4-3.4-3.4h-10.2v-73.7c0-1.2-0.7-2.4-1.7-3l-15-8.5
			c-1.6-0.9-3.7-0.4-4.6,1.3c-0.9,1.6-0.4,3.7,1.3,4.6l13.2,7.5v42.8h-76.2c-1.9,0-3.4,1.5-3.4,3.4v13.6c0,1.9,1.5,3.4,3.4,3.4h66
			c1.9,0,3.4-1.5,3.4-3.4c0-1.9-1.5-3.4-3.4-3.4h-62.6v-6.8h72.8v22.1H95.6c-8.9,0-18.6,6.4-22.1,14.6l-10.4,24.2
			c-0.5,1.1-0.3,2.3,0.3,3.2c0.6,1,1.7,1.5,2.8,1.5h147.8c1.9,0,3.4-1.5,3.4-3.4v-48.7c7.9-1.6,13.8-8.5,13.8-16.8
			C231.3,171.3,223.6,163.5,214.1,163.5L214.1,163.5z M214.1,191.1c-5.7,0-10.4-4.7-10.4-10.4c0-5.7,4.7-10.4,10.4-10.4
			c5.7,0,10.4,4.7,10.4,10.4C224.5,186.5,219.9,191.1,214.1,191.1z"/>
	</g>
</g>
<g id="case">
	<g>
		<g>
			<g>
				<path class="st4" d="M241.8,80.6h-55.3V66.8c0-7.6-6.2-13.8-13.8-13.8h-55.3c-7.6,0-13.8,6.2-13.8,13.8v13.8H48.4
					c-7.6,0-13.8,6.2-13.8,13.8V122h221V94.4C255.6,86.8,249.4,80.6,241.8,80.6z M172.8,80.6h-55.3V66.8h55.3V80.6z"/>
				<rect x="117.5" y="135.9" class="st4" width="55.3" height="13.8"/>
				<path class="st4" d="M186.6,149.7c0,7.6-6.2,13.8-13.8,13.8h-55.3c-7.6,0-13.8-6.2-13.8-13.8v-13.8H34.6v82.9
					c0,7.6,6.2,13.8,13.8,13.8h193.4c7.6,0,13.8-6.2,13.8-13.8v-82.9h-69.1V149.7z"/>
			</g>
		</g>
	</g>
</g>
</svg>
