<?xml version="1.0" encoding="utf-8"?>
<!-- Generator: Adobe Illustrator 16.0.3, SVG Export Plug-In . SVG Version: 6.00 Build 0)  -->
<!DOCTYPE svg PUBLIC "-//W3C//DTD SVG 1.1//EN" "http://www.w3.org/Graphics/SVG/1.1/DTD/svg11.dtd">
<svg version="1.1" id="Layer_1" xmlns="http://www.w3.org/2000/svg" xmlns:xlink="http://www.w3.org/1999/xlink" x="0px" y="0px"
	 width="64px" height="64px" viewBox="0 0 64 64" enable-background="new 0 0 64 64" xml:space="preserve">
<path fill="#FFFFFF" d="M47.525,24.399c-0.309-0.167-0.77-0.252-1.235-0.252c-0.157,0-0.313,0-0.466,0l-14.11,1.932l6.05-8.904
	c0.151-0.167,0.151-0.252,0.151-0.335c0-0.252-0.151-0.42-0.466-0.587C37.141,16.083,36.831,16,36.365,16H24.738
	c-0.309,0-0.775,0.083-0.927,0.167c-0.314,0.085-0.466,0.252-0.624,0.42l-7.128,15.874c-0.157,0.338,0,0.59,0.461,0.758
	c0.314,0.167,0.623,0.252,1.089,0.252c0.152,0,0.309,0,0.461,0l14.419-1.932l-6.977,15.536c-0.152,0.17,0,0.422,0.157,0.59
	C25.822,47.833,26.136,48,26.597,48c0.314,0,0.466,0,0.466,0c0.623,0,1.241-0.167,1.55-0.502L47.84,25.155
	C48.15,24.902,47.992,24.652,47.525,24.399L47.525,24.399z"/>
</svg>
