<?xml version="1.0" encoding="utf-8"?>
<!-- Generator: Adobe Illustrator 16.0.3, SVG Export Plug-In . SVG Version: 6.00 Build 0)  -->
<!DOCTYPE svg PUBLIC "-//W3C//DTD SVG 1.1//EN" "http://www.w3.org/Graphics/SVG/1.1/DTD/svg11.dtd">
<svg version="1.1" id="Layer_1" xmlns="http://www.w3.org/2000/svg" xmlns:xlink="http://www.w3.org/1999/xlink" x="0px" y="0px"
	 width="64px" height="64px" viewBox="0 0 64 64" enable-background="new 0 0 64 64" xml:space="preserve">
<path fill="#414042" stroke="#FFFFFF" stroke-width="2.0526" stroke-miterlimit="10" d="M44.236,48H19.765
	C17.694,48,16,46.279,16,44.175v-24.35C16,17.721,17.694,16,19.765,16h24.471C46.307,16,48,17.721,48,19.825V44.24
	C48,46.344,46.307,48,44.236,48z"/>
<g display="none">
	<path display="inline" fill="#FFFFFF" d="M40.596,21.801c0.063-0.127,0.188-0.255,0.313-0.319c0.377-0.063,0.69,0.063,1.005,0.255
		c0.25,0.191,0.438,0.446,0.313,0.764c-0.813,2.231-1.566,4.462-2.385,6.63c-0.878-0.382-1.693-0.765-2.57-1.147
		C38.4,25.944,39.466,23.905,40.596,21.801z"/>
	<path display="inline" fill="#FFFFFF" d="M21.459,24.924c0.69-0.191,1.442,0.319,1.507,1.083c0.125,0.702-0.44,1.466-1.193,1.466
		c-0.627,0.063-1.255-0.51-1.315-1.148C20.392,25.689,20.831,25.051,21.459,24.924z"/>
	<path display="inline" fill="#FFFFFF" d="M25.35,25.753c0.627-0.191,1.255,0.573,0.939,1.147c-0.188,0.574-1.128,0.701-1.442,0.191
		C24.471,26.645,24.784,25.817,25.35,25.753z"/>
	<path display="inline" fill="#FFFFFF" d="M33.066,30.343c0.377-0.893,1.317-1.594,2.324-1.594c0.5-0.063,1.002,0.127,1.439,0.382
		c0.939,0.447,1.882,0.829,2.887,1.275c0.691,0.319,1.191,0.893,1.443,1.594c0.25,0.639,0.188,1.338-0.063,1.977
		C38.4,32.701,35.701,31.554,33.066,30.343z"/>
	<path display="inline" fill="#FFFFFF" d="M24.848,29.131c1.003-0.127,2.008,0.574,2.258,1.53c0.188,0.637,0,1.402-0.375,1.912
		c-0.44,0.575-1.255,0.892-2.008,0.765c-0.502-0.064-1.004-0.382-1.318-0.828c-0.438-0.637-0.502-1.53-0.125-2.231
		C23.53,29.642,24.157,29.195,24.848,29.131z"/>
	<path display="inline" fill="#FFFFFF" d="M32.378,31.554c0.502,0.255,1.002,0.509,1.505,0.828c-0.941,1.785-2.635,3.125-4.456,3.89
		c-1.191,0.511-2.383,0.826-3.638,1.02c0.627,0.637,1.315,1.212,2.07,1.721c0.939-0.189,1.819-0.572,2.511-1.273
		c-0.377,0.701-0.816,1.404-1.443,1.977c0.627,0.383,1.316,0.702,2.007,1.021c0.502,0,0.941-0.192,1.38-0.448
		c1.004-0.509,1.881-1.21,2.698-1.976c-0.502,1.147-1.066,2.23-1.882,3.125c0.815,0.188,1.632,0.381,2.511,0.445
		c0.815-1.021,1.442-2.232,2.006-3.443c0.564-1.209,1.006-2.422,1.444-3.633c0.502,0.19,1.066,0.317,1.568,0.51
		c-0.941,2.742-2.134,5.418-3.767,7.842c-0.188,0.316-0.564,0.508-0.939,0.445c-2.071-0.191-4.078-0.701-5.96-1.528
		c-2.448-1.085-4.706-2.679-6.4-4.783c-0.188-0.192-0.377-0.446-0.377-0.765c0-0.319,0.188-0.639,0.502-0.767
		c0.25-0.127,0.563-0.063,0.877-0.063c1.507-0.13,2.951-0.448,4.331-1.021C30.243,34.041,31.625,33.02,32.378,31.554z"/>
</g>
<path display="none" fill="#FFFFFF" stroke="#FFFFFF" stroke-width="0.5" stroke-miterlimit="10" d="M43.879,43.301l-2.305-2.305
	c0.124-0.125,0.156-0.316,0.076-0.475l-1.042-2.084c0.598-0.795,0.544-1.929-0.179-2.651l-1.93-1.93l0,0L28.218,23.575l0.871-0.871
	c0.16-0.161,0.16-0.42,0-0.581c-0.161-0.16-0.42-0.16-0.581,0l-0.871,0.872l-1.162,1.161l-2.582-2.582l0.871-0.871
	c0.161-0.161,0.161-0.42,0-0.581s-0.42-0.161-0.581,0l-4.064,4.064c-0.161,0.161-0.161,0.42,0,0.581
	c0.08,0.081,0.185,0.12,0.29,0.12s0.21-0.04,0.291-0.12l0.871-0.871l2.582,2.582l-1.161,1.162L22.12,28.51
	c-0.16,0.161-0.16,0.42,0,0.581c0.081,0.08,0.186,0.12,0.291,0.12s0.21-0.041,0.291-0.12l0.871-0.871l12.211,12.211
	c0.396,0.396,0.915,0.593,1.436,0.593c0.43,0,0.855-0.143,1.215-0.413l2.085,1.042c0.059,0.029,0.122,0.043,0.184,0.043
	c0.107,0,0.212-0.042,0.291-0.12l2.305,2.305c0.08,0.08,0.186,0.12,0.291,0.12c0.104,0,0.21-0.04,0.29-0.12
	C44.039,43.721,44.039,43.461,43.879,43.301z M29.988,33.476l1.162-1.162c0.161-0.16,0.161-0.42,0-0.581s-0.42-0.161-0.581,0
	l-1.162,1.161l-0.581-0.581l1.161-1.162c0.162-0.16,0.162-0.42,0-0.581c-0.16-0.161-0.419-0.161-0.58,0l-1.161,1.162l-0.743-0.743
	l0.581-0.581l0,0l2.323-2.323l0,0l0.582-0.581l6.23,6.23H30.25L29.988,33.476z M28.084,29.249l-2.771-2.771l1.162-1.162l2.771,2.771
	L28.084,29.249z M27.637,24.155l2.771,2.771l-0.581,0.581l-2.771-2.771L27.637,24.155z M22.156,23.32l1.162-1.162l2.577,2.578
	l-1.162,1.162L22.156,23.32z M24.733,27.059l2.771,2.771l-0.58,0.581l-2.771-2.771L24.733,27.059z M36.363,39.851l-5.292-5.293
	h6.968l1.81,1.81c0.471,0.471,0.471,1.237,0,1.708l-0.017,0.017l0,0l-1.743,1.742c0,0.001,0,0.002,0,0.002l-0.016,0.015
	C37.602,40.321,36.835,40.321,36.363,39.851z M39.072,40.012l0.937-0.937l0.774,1.549l-0.162,0.163L39.072,40.012z"/>
<g>
	<path fill="#FFFFFF" d="M43.706,25.144c0.393-0.392,0.393-1.023,0-1.415L40.278,20.3c-0.563-0.563-1.22-0.195-1.416,0
		c-0.392,0.392-0.392,1.023,0,1.416l1.014,1.009l-1.249,1.249l-1.836-1.837l-1.509-1.509c-0.549-0.549-1.22-0.195-1.416,0
		c-0.392,0.392-0.392,1.023,0,1.416l0.804,0.798l-8.282,8.272c-1.553,1.553-1.764,3.938-0.632,5.716l-5.462,5.461
		c-0.392,0.392-0.392,1.023,0,1.416c0.393,0.391,1.024,0.391,1.416,0l5.461-5.457c2.63,1.567,4.849,0.235,5.716-0.631l8.272-8.278
		l0.804,0.804c0.392,0.392,1.023,0.392,1.415,0c0.393-0.392,0.393-1.023,0-1.416l-3.345-3.345l1.249-1.249l1.009,1.009
		C42.683,25.536,43.314,25.536,43.706,25.144L43.706,25.144z M36.08,24.252l3.674,3.679l-8.282,8.277
		c-1.273,1.269-2.954,0.72-3.674,0c-1.014-1.009-1.014-2.655,0-3.669l0.005-0.004l1.244,1.243c0.392,0.392,1.023,0.392,1.416,0
		c0.392-0.392,0.392-1.023,0-1.415l-1.244-1.244l0.96-0.97l1.244,1.244c0.392,0.392,1.023,0.392,1.415,0
		c0.392-0.393,0.392-1.023,0-1.416l-1.244-1.244l0.965-0.965l1.244,1.244c0.392,0.393,1.023,0.393,1.416,0
		c0.392-0.392,0.392-1.023,0-1.415l-1.244-1.244L36.08,24.252L36.08,24.252z"/>
</g>
</svg>
