<?xml version="1.0" encoding="utf-8"?>
<!-- Generator: Adobe Illustrator 16.0.3, SVG Export Plug-In . SVG Version: 6.00 Build 0)  -->
<!DOCTYPE svg PUBLIC "-//W3C//DTD SVG 1.1//EN" "http://www.w3.org/Graphics/SVG/1.1/DTD/svg11.dtd">
<svg version="1.1" id="Layer_1" xmlns="http://www.w3.org/2000/svg" xmlns:xlink="http://www.w3.org/1999/xlink" x="0px" y="0px"
	 width="64px" height="64px" viewBox="0 0 64 64" enable-background="new 0 0 64 64" xml:space="preserve">
<path fill="#414042" stroke="#FFFFFF" stroke-width="2.0526" stroke-miterlimit="10" d="M44.236,48H19.765
	C17.694,48,16,46.279,16,44.175v-24.35C16,17.721,17.694,16,19.765,16h24.471C46.307,16,48,17.721,48,19.825V44.24
	C48,46.344,46.307,48,44.236,48z"/>
<g>
	<path fill="#FFFFFF" d="M40.596,21.801c0.063-0.127,0.188-0.255,0.313-0.319c0.377-0.063,0.69,0.063,1.005,0.255
		c0.25,0.191,0.438,0.446,0.313,0.764c-0.814,2.231-1.567,4.462-2.385,6.63c-0.878-0.382-1.693-0.765-2.57-1.147
		C38.4,25.944,39.466,23.905,40.596,21.801z"/>
	<path fill="#FFFFFF" d="M21.459,24.924c0.69-0.191,1.442,0.319,1.507,1.083c0.125,0.702-0.44,1.466-1.193,1.466
		c-0.627,0.063-1.255-0.51-1.315-1.148C20.392,25.689,20.831,25.051,21.459,24.924z"/>
	<path fill="#FFFFFF" d="M25.35,25.753c0.627-0.191,1.255,0.573,0.939,1.147c-0.188,0.574-1.128,0.701-1.442,0.191
		C24.471,26.645,24.784,25.817,25.35,25.753z"/>
	<path fill="#FFFFFF" d="M33.066,30.343c0.377-0.893,1.318-1.594,2.324-1.594c0.5-0.063,1.002,0.127,1.44,0.382
		c0.94,0.447,1.882,0.829,2.887,1.275c0.691,0.319,1.191,0.893,1.443,1.594c0.25,0.639,0.188,1.338-0.063,1.977
		C38.4,32.701,35.701,31.554,33.066,30.343z"/>
	<path fill="#FFFFFF" d="M24.848,29.131c1.003-0.127,2.008,0.574,2.258,1.53c0.188,0.637,0,1.402-0.375,1.912
		c-0.44,0.575-1.255,0.892-2.008,0.765c-0.502-0.064-1.004-0.382-1.318-0.828c-0.438-0.637-0.502-1.53-0.125-2.231
		C23.53,29.642,24.157,29.195,24.848,29.131z"/>
	<path fill="#FFFFFF" d="M32.378,31.554c0.502,0.255,1.002,0.509,1.505,0.828c-0.941,1.785-2.635,3.125-4.456,3.89
		c-1.191,0.51-2.383,0.826-3.638,1.019c0.627,0.637,1.315,1.212,2.07,1.721c0.939-0.19,1.819-0.573,2.511-1.274
		c-0.377,0.701-0.816,1.404-1.443,1.977c0.627,0.383,1.316,0.702,2.007,1.021c0.502,0,0.941-0.192,1.38-0.448
		c1.004-0.509,1.881-1.21,2.698-1.976c-0.502,1.148-1.066,2.231-1.882,3.125c0.815,0.189,1.632,0.381,2.511,0.446
		c0.815-1.021,1.442-2.233,2.006-3.444c0.564-1.209,1.006-2.422,1.444-3.633c0.502,0.191,1.066,0.318,1.568,0.51
		c-0.941,2.742-2.134,5.418-3.767,7.842c-0.188,0.316-0.564,0.508-0.939,0.445c-2.071-0.191-4.078-0.701-5.96-1.528
		c-2.448-1.085-4.706-2.679-6.4-4.783c-0.188-0.192-0.377-0.446-0.377-0.765c0-0.319,0.188-0.639,0.502-0.766
		c0.25-0.127,0.563-0.063,0.877-0.063c1.507-0.129,2.951-0.448,4.331-1.021C30.243,34.041,31.625,33.02,32.378,31.554z"/>
</g>
</svg>
