<?xml version="1.0" encoding="utf-8"?>
<!-- Generator: Adobe Illustrator 16.0.3, SVG Export Plug-In . SVG Version: 6.00 Build 0)  -->
<!DOCTYPE svg PUBLIC "-//W3C//DTD SVG 1.1//EN" "http://www.w3.org/Graphics/SVG/1.1/DTD/svg11.dtd">
<svg version="1.1" id="Layer_1" xmlns="http://www.w3.org/2000/svg" xmlns:xlink="http://www.w3.org/1999/xlink" x="0px" y="0px"
	 width="257.17px" height="257.17px" viewBox="0 0 257.17 257.17" enable-background="new 0 0 257.17 257.17" xml:space="preserve">
<path display="none" fill="#414042" stroke="#FFFFFF" stroke-width="2.0526" stroke-miterlimit="10" d="M225.099,255.118H30.018
	C13.497,255.118,0,241.407,0,224.63V30.496C0,13.722,13.497,0,30.018,0h195.096c16.504,0,30.004,13.722,30.004,30.496v194.648
	C255.12,241.921,241.62,255.118,225.099,255.118z"/>
<g>
	<path fill="#FFFFFF" d="M128.062,57.943c38.021,0,69.023,31.497,69.023,70.132s-31.024,70.153-69.023,70.153
		c-38.028,0-69.035-31.517-69.035-70.152S90.034,57.943,128.062,57.943 M128.062,47.771c-43.529,0-79.039,36.074-79.039,80.281
		c0,44.242,35.51,80.305,79.039,80.305c43.518,0,79.02-36.063,79.02-80.305C207.098,83.861,171.58,47.771,128.062,47.771
		L128.062,47.771z"/>
</g>
<path fill="#FFFFFF" d="M230.595,88.934c-1.993-16.778-8.984-32.026-20.491-43.7c-16.49-16.774-40.025-23.38-65.019-20.831
	l-17.007,104.176L230.595,88.934z"/>
</svg>
