<?xml version="1.0" encoding="utf-8"?>
<!-- Generator: Adobe Illustrator 16.0.3, SVG Export Plug-In . SVG Version: 6.00 Build 0)  -->
<!DOCTYPE svg PUBLIC "-//W3C//DTD SVG 1.1//EN" "http://www.w3.org/Graphics/SVG/1.1/DTD/svg11.dtd">
<svg version="1.1" id="Layer_1" xmlns="http://www.w3.org/2000/svg" xmlns:xlink="http://www.w3.org/1999/xlink" x="0px" y="0px"
	 width="257.17px" height="257.17px" viewBox="0 0 257.17 257.17" enable-background="new 0 0 257.17 257.17" xml:space="preserve">
<path fill="#414042" stroke="#FFFFFF" stroke-width="2.0526" stroke-miterlimit="10" d="M225.096,255.118H30.028
	C13.518,255.118,0,241.399,0,224.63V30.496C0,13.722,13.51,0,30.028,0h195.067c16.514,0,30.022,13.722,30.022,30.496v194.647
	C255.12,241.905,241.602,255.118,225.096,255.118z"/>
<g>
	<path fill="#FF0000" d="M144.985,201.593h29.634v-25.219h5.127c7.11,0,13.042-6.865,13.042-15.119v-60.027
		c0-8.252-5.932-15.127-13.042-15.127h-5.127V59.528h-29.634v12.375h18.975v14.197h-24.906V59.528h-29.629v12.375h18.959v14.197
		h-26.469V59.528H72.277v12.375h18.967v14.652c-5.525,1.826-9.875,7.342-9.875,14.66l-7.115-9.611l-21.736,35.732l22.92-12.818
		l5.923,5.037v21.52l-5.923,5.053l-22.92-12.838l21.736,35.743l7.115-9.615v2.289c0,7.326,4.356,13.274,9.875,14.66v13.298H72.277
		v12.371h29.638v-25.209h26.469v12.838h-18.959v12.371h29.629v-25.209h24.905v12.838h-18.974V201.593z"/>
	<polygon fill="#322C31" points="105.479,99.397 93.621,98.933 90.843,124.138 	"/>
	<polygon fill="#322C31" points="105.479,159.901 93.621,159.901 90.843,134.69 	"/>
</g>
<path fill="#FFFFFF" d="M216.054,60.517c3.479,0,6.283-3.348,6.283-6.953v-9.892c0-3.597-2.805-6.505-6.283-6.505H39.564
	c-3.468,0-6.295,2.908-6.295,6.505v10.499c0,3.604,2.828,6.346,6.295,6.346h6.073v132.707h-6.073c-3.468,0-6.295,3.237-6.295,6.842
	v11.438c0,3.597,2.828,6.454,6.295,6.454h176.49c3.479,0,6.283-2.641,6.283-6.236v-11.975c0-3.611-2.805-6.508-6.283-6.508h-5.979
	v-42.9c2.958-0.537,4.759-2.927,4.759-6.143v-29.85c0-3.205-1.801-6.027-4.759-6.561V60.524h5.979V60.517z M76.389,193.224H54.197
	v-57.045h22.192V193.224z M76.389,123.142H54.197V60.519h22.192V123.142z M107.989,193.224h-22.3v-57.045h22.3V193.224z
	 M107.989,123.142h-22.3l0.008-62.51l22.292-0.113V123.142z M138.955,193.224h-22.247v-57.045h22.247V193.224z M138.955,123.142
	h-22.247V60.519h22.247V123.142z M170.082,193.224h-22.445v-57.045h16.997v8.025c0,3.208,2.506,5.59,5.448,6.135v37.48V193.224z
	 M170.082,107.78c-2.942,0.533-5.448,3.683-5.448,6.886v8.476h-16.997V60.519h22.445v41.235V107.78z M200.94,193.224h-21.932
	v-42.885h21.932V193.224z M181.914,126.403c0-4.664,3.687-8.467,8.191-8.467c4.498,0,8.169,3.803,8.169,8.467
	c0,2.701-1.227,5.104-3.143,6.668v3.107c0,2.871-2.245,5.207-5.026,5.207c-2.789,0-5.042-2.336-5.042-5.207v-3.107
	C183.156,131.507,181.914,129.104,181.914,126.403z M200.94,107.78h-21.932V60.519h21.932V107.78z"/>
</svg>
