<?xml version="1.0" encoding="utf-8"?>
<!-- Generator: Adobe Illustrator 16.0.3, SVG Export Plug-In . SVG Version: 6.00 Build 0)  -->
<!DOCTYPE svg PUBLIC "-//W3C//DTD SVG 1.1//EN" "http://www.w3.org/Graphics/SVG/1.1/DTD/svg11.dtd">
<svg version="1.1" id="Layer_1" xmlns="http://www.w3.org/2000/svg" xmlns:xlink="http://www.w3.org/1999/xlink" x="0px" y="0px"
	 width="64px" height="64px" viewBox="0 0 64 64" enable-background="new 0 0 64 64" xml:space="preserve">
<path fill="#414042" stroke="#FFFFFF" stroke-width="2.0526" stroke-miterlimit="10" d="M44.236,48H19.765
	C17.694,48,16,46.279,16,44.175v-24.35C16,17.721,17.694,16,19.765,16h24.471C46.307,16,48,17.721,48,19.825V44.24
	C48,46.344,46.307,48,44.236,48z"/>
<g display="none">
	<path display="inline" fill="#FFFFFF" stroke="#FFFFFF" stroke-width="0.6" stroke-miterlimit="10" d="M44.085,25.48
		c-0.374-0.084-0.749,0.15-0.833,0.526c-0.006,0.016-0.12,0.486-0.485,1.124l-6.563-6.562c0.607-0.34,1.066-0.46,1.139-0.478
		c0.372-0.086,0.605-0.458,0.521-0.833c-0.084-0.374-0.459-0.61-0.833-0.524c-0.071,0.016-6.927,1.706-5.67,11.677
		c-9.047-0.707-12.486,4.862-12.633,5.111c-0.167,0.279-0.115,0.629,0.104,0.849c0.039,0.038,0.084,0.074,0.134,0.104
		c0.33,0.197,0.758,0.09,0.956-0.236c0.037-0.066,0.331-0.529,0.925-1.136l7.394,7.395c-0.606,0.594-1.068,0.885-1.133,0.926
		c-0.33,0.195-0.439,0.623-0.24,0.955c0.029,0.051,0.065,0.096,0.106,0.137c0.22,0.219,0.568,0.271,0.848,0.104
		c0.251-0.148,5.819-3.586,5.111-12.634c9.971,1.257,11.661-5.6,11.679-5.668C44.694,25.941,44.461,25.565,44.085,25.48z
		 M29.396,41.132l-7.186-7.184c0.75-0.528,1.696-1.052,2.868-1.458l5.776,5.776C30.448,39.439,29.924,40.385,29.396,41.132z
		 M31.37,36.264l-4.287-4.289c1.28-0.227,2.751-0.308,4.44-0.153C31.679,33.511,31.596,34.984,31.37,36.264z M32.782,30.564
		c-0.212-1.481-0.234-2.752-0.125-3.852l3.97,3.969C35.528,30.793,34.259,30.772,32.782,30.564z M38.724,30.26l-5.65-5.651
		c0.418-1.322,1.055-2.27,1.709-2.943l6.883,6.88C40.987,29.202,40.041,29.841,38.724,30.26z"/>
</g>
<g display="none">
	<g display="inline">
		<path fill="#FFFFFF" d="M39.719,23.356c0-0.748-0.79-1.356-1.76-1.356c-0.971,0-1.76,0.608-1.76,1.356
			c0,0.412-0.073,0.822-0.209,1.233h-8.543c-0.092-0.278-0.155-0.556-0.186-0.834h5.646c0.285,0,0.516-0.179,0.516-0.399
			c0-0.22-0.23-0.398-0.516-0.398h-5.747C26.939,22.404,26.27,22,25.479,22c-0.971,0-1.76,0.608-1.76,1.356
			c0,3.16,2.655,5.898,5.682,8.644c-2.938,2.662-5.682,5.44-5.682,8.644c0,0.748,0.789,1.356,1.76,1.356
			c0.751,0,1.394-0.365,1.646-0.877h9.189C36.565,41.635,37.208,42,37.959,42c0.97,0,1.76-0.608,1.76-1.356
			c0-3.167-2.658-5.902-5.682-8.644C36.975,29.337,39.719,26.56,39.719,23.356z M35.652,25.386c-0.15,0.292-0.328,0.584-0.529,0.877
			H28.31c-0.201-0.292-0.378-0.584-0.526-0.877H35.652z M29.686,27.937c-0.274-0.293-0.533-0.584-0.773-0.877h5.608
			c-0.239,0.292-0.499,0.583-0.772,0.877H29.686z M32.967,28.733c-0.397,0.391-0.816,0.784-1.248,1.179
			c-0.432-0.394-0.851-0.787-1.252-1.179H32.967z M24.752,23.356c0-0.309,0.326-0.56,0.727-0.56s0.727,0.251,0.727,0.56
			c0,1.78,1.145,3.47,2.734,5.143c0.029,0.051,0.073,0.096,0.127,0.133c0.609,0.633,1.279,1.263,1.974,1.896
			c-0.217,0.195-0.436,0.391-0.655,0.587c-0.102,0.091-0.202,0.181-0.303,0.272C27.229,28.793,24.752,26.214,24.752,23.356z
			 M26.205,40.644c0,0.309-0.326,0.56-0.727,0.56s-0.727-0.251-0.727-0.56c0-3.265,3.262-6.185,6.416-9.009
			c3.119-2.792,6.064-5.43,6.064-8.278c0-0.309,0.326-0.56,0.727-0.56s0.727,0.251,0.727,0.56c0,3.264-3.262,6.185-6.416,9.009
			C29.15,35.157,26.205,37.796,26.205,40.644z M28.85,37.021c0.236-0.291,0.492-0.583,0.764-0.876h4.216
			c0.271,0.293,0.527,0.584,0.763,0.876H28.85z M35.184,37.818c0.196,0.293,0.369,0.584,0.514,0.877h-7.953
			c0.145-0.292,0.317-0.584,0.516-0.877H35.184z M30.387,35.349c0.423-0.417,0.869-0.837,1.332-1.261
			c0.461,0.422,0.91,0.842,1.334,1.261H30.387z M27.253,40.326c0.025-0.277,0.082-0.556,0.169-0.834h8.596
			c0.086,0.277,0.143,0.556,0.167,0.834H27.253z M38.686,40.644c0,0.309-0.326,0.56-0.727,0.56s-0.727-0.251-0.727-0.56
			c0-2.501-2.26-4.823-4.835-7.171c0.217-0.195,0.436-0.391,0.655-0.588c0.102-0.09,0.202-0.181,0.304-0.271
			C36.205,35.204,38.686,37.779,38.686,40.644z"/>
	</g>
</g>
<g display="none">
	<g display="inline">
		<path fill="#FFFFFF" d="M107.235-199.469h-5.1c-5.633,0-10.199,4.566-10.199,10.199s4.566,10.199,10.199,10.199h5.1
			c5.633,0,10.199-4.566,10.199-10.199S112.868-199.469,107.235-199.469z"/>
	</g>
</g>
<g>
	<path fill="#FFFFFF" stroke="#FFFFFF" stroke-width="0.6" stroke-miterlimit="10" d="M43.497,26.24
		c-0.346-0.08-0.689,0.138-0.77,0.483c-0.003,0.009-0.06,0.229-0.202,0.552c-0.091-0.022-0.184-0.033-0.281-0.033
		c-0.143,0-0.281,0.03-0.409,0.074l-5.319-5.315c0.015-0.072,0.025-0.146,0.025-0.222c0-0.077-0.011-0.15-0.025-0.224
		c0.408-0.196,0.703-0.278,0.755-0.292c0.346-0.079,0.558-0.422,0.482-0.77c-0.079-0.345-0.424-0.562-0.77-0.483
		c-0.019,0.005-0.582,0.145-1.336,0.573c-0.116-0.035-0.237-0.06-0.364-0.06c-0.69,0-1.256,0.562-1.256,1.254
		c0,0.018,0.005,0.032,0.005,0.047c-0.708,0.72-1.393,1.711-1.852,3.056c-0.394,0.212-0.665,0.623-0.665,1.102
		c0,0.27,0.088,0.518,0.23,0.722c-0.171,1.157-0.196,2.503,0.002,4.078l0.152,1.304c0.133,1.45,0.07,2.721-0.105,3.843
		c-0.082,0.015-0.157,0.033-0.23,0.06l-3.577-3.574c0.028-0.074,0.046-0.147,0.061-0.225c0.796-0.118,2.446-0.2,3.327-0.192
		l-0.125-1.266c-1.178-0.013-2.661,0.11-3.633,0.301c-0.218-0.182-0.496-0.297-0.806-0.297c-0.546,0-1.006,0.354-1.179,0.84
		c-1.119,0.397-2.066,0.892-2.834,1.4c-0.049-0.006-0.099-0.014-0.148-0.014c-0.64,0-1.16,0.478-1.24,1.091
		c-0.844,0.762-1.274,1.375-1.319,1.452c-0.154,0.259-0.105,0.578,0.098,0.782c0.036,0.034,0.078,0.068,0.124,0.099
		c0.305,0.181,0.7,0.083,0.884-0.22c0.033-0.056,0.273-0.427,0.736-0.922c0.13,0.093,0.277,0.157,0.438,0.193l6.343,6.34
		c0,0.1,0.015,0.193,0.035,0.283c-0.492,0.463-0.864,0.701-0.917,0.735c-0.305,0.183-0.405,0.576-0.225,0.883
		c0.028,0.047,0.061,0.089,0.099,0.125c0.204,0.204,0.526,0.252,0.783,0.098c0.067-0.036,0.54-0.336,1.157-0.921
		c0.103,0.027,0.209,0.047,0.32,0.047c0.694,0,1.256-0.563,1.256-1.256c0-0.186-0.042-0.359-0.113-0.52
		c0.536-0.787,1.048-1.768,1.443-2.961c0.416-0.204,0.705-0.626,0.705-1.124c0-0.269-0.087-0.517-0.231-0.721
		c0.222-1.226,0.307-2.621,0.183-4.205c0,0-0.087-1.306-0.142-1.312c-0.196-1.369-0.215-2.542-0.114-3.556l3.664,3.662
		c-0.731,0.074-2.082,0.086-2.992,0.013l0.079,1.292c1.131,0.042,2.654-0.02,3.549-0.189c0.212,0.162,0.475,0.261,0.759,0.261
		c0.533,0,0.987-0.333,1.169-0.801c1.269-0.502,2.227-1.184,2.94-1.874c0.043,0.003,0.085,0.012,0.127,0.012
		c0.691,0,1.255-0.562,1.255-1.254c0-0.137-0.025-0.265-0.066-0.389c0.387-0.63,0.545-1.083,0.55-1.101
		C44.061,26.664,43.844,26.318,43.497,26.24z M30.146,40.534l-6.25-6.248c0.002-0.023,0.006-0.044,0.006-0.067
		c0-0.102-0.016-0.2-0.037-0.295c0.563-0.378,1.243-0.749,2.044-1.06c0.229,0.237,0.548,0.387,0.902,0.387
		c0.013,0,0.025-0.005,0.036-0.005l3.896,3.897c0,0.008-0.002,0.018-0.002,0.025c0,0.527,0.325,0.976,0.785,1.163
		c-0.341,0.896-0.749,1.646-1.166,2.254C30.292,40.563,30.221,40.545,30.146,40.534z M34.005,25.75
		c-0.036-0.195-0.12-0.371-0.236-0.521c0.326-0.943,0.772-1.668,1.249-2.223c0.087,0.018,0.176,0.03,0.268,0.03
		c0.094,0,0.184-0.011,0.27-0.031l5.44,5.439c0,0.018-0.007,0.035-0.007,0.054c0,0.322,0.126,0.614,0.327,0.835
		c-0.557,0.473-1.276,0.914-2.205,1.24c-0.185-0.347-0.527-0.592-0.931-0.65L34.005,25.75z"/>
</g>
</svg>
