<?xml version="1.0" encoding="utf-8"?>
<!-- Generator: Adobe Illustrator 16.0.3, SVG Export Plug-In . SVG Version: 6.00 Build 0)  -->
<!DOCTYPE svg PUBLIC "-//W3C//DTD SVG 1.1//EN" "http://www.w3.org/Graphics/SVG/1.1/DTD/svg11.dtd">
<svg version="1.1" id="Layer_1" xmlns="http://www.w3.org/2000/svg" xmlns:xlink="http://www.w3.org/1999/xlink" x="0px" y="0px"
	 width="257.17px" height="257.17px" viewBox="-96.585 -96.585 257.17 257.17"
	 enable-background="new -96.585 -96.585 257.17 257.17" xml:space="preserve">
<path fill="#414042" stroke="#FFFFFF" stroke-width="2.0526" stroke-miterlimit="10" d="M129.535,159.559H-65.531
	c-16.51,0-30.028-13.718-30.028-30.488V-65.063c0-16.774,13.51-30.496,30.028-30.496h195.066c16.514,0,30.023,13.722,30.023,30.496
	v194.648C159.559,146.347,146.041,159.559,129.535,159.559z"/>
<path fill="#FFFFFF" d="M118.914,98.193L57.886,36.188c-0.506-0.498-0.996-0.992-1.992-1.503l10.988-11.67
	c0.498-0.51,0.996-1.02,1.502-1.53c14.499,5.594,30.997,2.542,42.53-9.144c8.49-8.634,12.491-20.348,11.51-32.536
	c0-1.515-0.996-2.531-2.514-3.037c-1.502-0.506-2.498,0-3.494,1.012L96.906-2.4L77.403-7.496l-5.518-20.838l19.519-19.803
	c1.004-1.016,1.502-2.546,1.004-3.558c-0.506-1.515-1.502-2.032-3.012-2.55c-11.993-1.012-23.511,3.052-32.032,11.702
	c-11.51,11.698-14.498,28.974-8.98,43.21c-0.506,0.51-0.996,1.016-1.502,1.514l-16.02,15.26L1.854-12.055
	c-0.494-0.502-1-0.502-1-1.012c0.506-0.502,0.506-1.024,1-2.036c6,1.012,17.514-11.184,27.016-20.846L0.854-64.394
	c-12.506,12.706-21.514,21.356-20.502,27.433c-2.996,1.522-5.502,3.052-7,5.096l-4,4.064c-2.513,2.55-3.996,5.598-4.506,9.152
	c-0.502,0.502-0.996,1.012-0.996,1.514l-1.498,2.032c0,0,0,0,0,0.514l-1.498,2.032c-0.996,1.012-1.514,2.527-2.514,3.554
	c-0.494,0.502-0.494,1.012-0.996,1.515l0,0l-0.502,1.02c-0.494,1.534-1.49,2.546-1.992,4.068l0,0
	c-0.502,2.04-1.498,3.554-2.008,5.598l-0.494,1.012c0,0.51-0.502,1.522-0.502,2.032l-0.495,2.542
	c-0.502,1.522-0.502,3.558-0.502,5.08v1.02c0,1.522,0,3.052,0,4.076c0,0.499,0,1.012,0,1.515v0.518c0,0.502,0,1.012,0,2.032
	l0.502,2.032c0,0.51,0,1.012,0,1.012c0,1.028,0.495,2.044,0.495,2.538l1.498,5.084c0.494,1.53,2.008,2.546,3.483,2.546
	c1.019,0,1.521-0.521,2.015-1.016c0.498-0.519,1-1.028,1-2.04l0.502-5.096c0-0.502,0-1.012,0.502-1.515
	c0-0.51,0.502-1.02,0.502-1.02l0.502-2.032c0-0.502,0-0.502,0.494-1.02c0,0,0-0.502,0.502-0.502c0-0.502,0.502-1.012,0.502-1.012
	c0.502-1.02,0.502-1.526,0.996-2.538c0-0.51,0.502-0.51,0.502-1.012c0.502-1.028,0.997-1.53,1.499-2.542l0,0l0.996-1.514
	c0.506-0.51,0.506-0.51,1-1.02l0.502-0.51c0.502-1.016,1.498-1.522,2.494-2.538l0.502-0.51c0.502-0.502,1.498-1.02,2.008-1.522
	c0.494,0,0.494-0.502,0.996-0.502c0.494-0.51,0.494-0.51,0.996-0.51c0.495-0.502,1.502-1.012,1.997-1.012l1.498-1.02l1.498-0.502
	c0.502-0.502,0.996-0.502,1.513-0.502c0.495,0,0.495,0,0.997-0.51c0.494,0,0.494,0,0.494-0.51c0.502,0,0.502,0,0.996-0.502h0.506
	c0.502,0.502,0.996,1.53,1.498,2.032l29.008,29.48l-61.534,59.952l0,0c-7.51,7.622-8.993,19.316-1.498,26.938
	c7.491,7.622,18.008,5.598,26.004-2.04l0,0l54.017-57.948c0.502,0.522,0.502,1.044,0.997,1.044l61.024,61.973
	c6.988,7.124,18.008,7.124,24.521,0C125.91,116.505,125.91,105.309,118.914,98.193L118.914,98.193z M-30.14,111.896
	c-2.996,3.067-7.51,3.067-10.004,0c-3.008-3.052-3.008-7.599,0-10.145c3.004-3.052,7.51-3.052,10.004,0
	C-27.144,104.297-27.144,109.373-30.14,111.896L-30.14,111.896z"/>
</svg>
