<?xml version="1.0" encoding="utf-8"?>
<!-- Generator: Adobe Illustrator 16.0.3, SVG Export Plug-In . SVG Version: 6.00 Build 0)  -->
<!DOCTYPE svg PUBLIC "-//W3C//DTD SVG 1.1//EN" "http://www.w3.org/Graphics/SVG/1.1/DTD/svg11.dtd">
<svg version="1.1" id="Layer_1" xmlns="http://www.w3.org/2000/svg" xmlns:xlink="http://www.w3.org/1999/xlink" x="0px" y="0px"
	 width="64px" height="64px" viewBox="0 0 64 64" enable-background="new 0 0 64 64" xml:space="preserve">
<path fill="#414042" stroke="#FFFFFF" stroke-width="2.0526" stroke-miterlimit="10" d="M44.43,48H19.571
	c-2.104,0-3.827-1.721-3.827-3.824V19.825c0-2.104,1.722-3.825,3.827-3.825H44.43c2.104,0,3.826,1.721,3.826,3.825V44.24
	C48.256,46.343,46.533,48,44.43,48z"/>
<path fill="#FFFFFF" d="M43.076,40.303l-7.777-7.777c-0.064-0.063-0.127-0.125-0.254-0.189l1.4-1.464
	c0.064-0.064,0.127-0.128,0.191-0.192c1.848,0.702,3.951,0.319,5.42-1.147c1.082-1.083,1.592-2.552,1.467-4.081
	c0-0.19-0.127-0.317-0.32-0.381c-0.191-0.063-0.318,0-0.445,0.127l-2.486,2.486l-2.486-0.639l-0.703-2.614l2.488-2.484
	c0.127-0.127,0.191-0.319,0.127-0.446c-0.064-0.19-0.191-0.255-0.383-0.32c-1.529-0.127-2.996,0.383-4.082,1.468
	c-1.467,1.467-1.848,3.634-1.145,5.42c-0.064,0.064-0.127,0.127-0.191,0.19l-2.042,1.914l-3.697-3.7
	c-0.063-0.063-0.127-0.063-0.127-0.127c0.064-0.063,0.064-0.128,0.127-0.255c0.765,0.127,2.232-1.403,3.443-2.615l-3.57-3.568
	c-1.594,1.594-2.742,2.679-2.613,3.441c-0.382,0.191-0.701,0.383-0.892,0.639l-0.51,0.51c-0.32,0.32-0.509,0.702-0.574,1.148
	c-0.064,0.063-0.127,0.127-0.127,0.19l-0.191,0.255c0,0,0,0,0,0.064l-0.191,0.255c-0.127,0.127-0.193,0.317-0.32,0.446
	c-0.063,0.063-0.063,0.127-0.127,0.19l0,0l-0.064,0.128c-0.063,0.192-0.19,0.319-0.254,0.51l0,0
	c-0.064,0.256-0.191,0.446-0.256,0.702l-0.063,0.127c0,0.064-0.064,0.191-0.064,0.255l-0.063,0.319
	c-0.064,0.191-0.064,0.446-0.064,0.637v0.128c0,0.191,0,0.383,0,0.511c0,0.063,0,0.127,0,0.19v0.065c0,0.063,0,0.127,0,0.255
	l0.064,0.255c0,0.064,0,0.127,0,0.127c0,0.129,0.063,0.256,0.063,0.318l0.191,0.638c0.063,0.192,0.256,0.319,0.444,0.319
	c0.13,0,0.194-0.065,0.257-0.127c0.063-0.065,0.127-0.129,0.127-0.256l0.064-0.639c0-0.063,0-0.127,0.064-0.19
	c0-0.064,0.064-0.128,0.064-0.128l0.064-0.255c0-0.063,0-0.063,0.063-0.128c0,0,0-0.063,0.064-0.063
	c0-0.063,0.064-0.127,0.064-0.127c0.064-0.128,0.064-0.191,0.127-0.318c0-0.064,0.064-0.064,0.064-0.127
	c0.064-0.129,0.127-0.192,0.191-0.319l0,0l0.127-0.19c0.064-0.064,0.064-0.064,0.127-0.128l0.064-0.064
	c0.064-0.127,0.191-0.191,0.318-0.318l0.064-0.064c0.064-0.063,0.191-0.128,0.256-0.191c0.063,0,0.063-0.063,0.127-0.063
	c0.063-0.064,0.063-0.064,0.127-0.064c0.063-0.063,0.191-0.127,0.254-0.127l0.191-0.128l0.191-0.063
	c0.064-0.063,0.127-0.063,0.193-0.063c0.063,0,0.063,0,0.127-0.064c0.063,0,0.063,0,0.063-0.064c0.064,0,0.064,0,0.127-0.063h0.064
	c0.064,0.063,0.127,0.192,0.191,0.255l3.697,3.698l-7.842,7.52l0,0c-0.957,0.956-1.146,2.423-0.191,3.379
	c0.955,0.956,2.295,0.702,3.314-0.256l0,0l6.884-7.268c0.064,0.065,0.064,0.13,0.127,0.13l7.777,7.774
	c0.891,0.893,2.295,0.893,3.125,0C43.968,42.6,43.968,41.195,43.076,40.303L43.076,40.303z M24.081,42.021
	c-0.382,0.385-0.957,0.385-1.275,0c-0.383-0.383-0.383-0.953,0-1.272c0.383-0.383,0.957-0.383,1.275,0
	C24.463,41.068,24.463,41.705,24.081,42.021L24.081,42.021z"/>
</svg>
