<?xml version="1.0" encoding="utf-8"?>
<!-- Generator: Adobe Illustrator 21.0.0, SVG Export Plug-In . SVG Version: 6.00 Build 0)  -->
<svg version="1.1" id="Layer_1" xmlns="http://www.w3.org/2000/svg" xmlns:xlink="http://www.w3.org/1999/xlink" x="0px" y="0px"
	 viewBox="0 0 257.2 257.2" style="enable-background:new 0 0 257.2 257.2;" xml:space="preserve">
<style type="text/css">
	.st0{fill:#414042;stroke:#FFFFFF;stroke-width:2.0526;stroke-miterlimit:10;}
	.st1{fill:#FFFFFF;}
	.st2{fill:none;}
</style>
<path class="st0" d="M225.1,255.1H30c-16.5,0-30-13.7-30-30.5V30.5C0,13.7,13.5,0,30,0h195.1c16.5,0,30,13.7,30,30.5v194.6
	C255.1,241.9,241.6,255.1,225.1,255.1z"/>
<g>
	<path class="st1" d="M130.5,32.4c51.1,0,92.8,42.4,92.8,94.3S181.6,221,130.5,221c-51.1,0-92.8-42.4-92.8-94.4
		S79.3,32.4,130.5,32.4 M130.5,18.7c-58.5,0-106.3,48.5-106.3,108c0,59.5,47.8,108,106.3,108c58.5,0,106.3-48.5,106.3-108
		C236.8,67.2,189,18.7,130.5,18.7L130.5,18.7z"/>
</g>
<g id="Layer_2">
	<polyline class="st1" points="127.6,126.7 183,18.7 236.8,72.7 	"/>
	<path class="st2" d="M236.8,72.7c0-29.8-24-54-53.8-54"/>
</g>
</svg>
