<?xml version="1.0" encoding="utf-8"?>
<!-- Generator: Adobe Illustrator 16.0.3, SVG Export Plug-In . SVG Version: 6.00 Build 0)  -->
<!DOCTYPE svg PUBLIC "-//W3C//DTD SVG 1.1//EN" "http://www.w3.org/Graphics/SVG/1.1/DTD/svg11.dtd">
<svg version="1.1" id="Layer_1" xmlns="http://www.w3.org/2000/svg" xmlns:xlink="http://www.w3.org/1999/xlink" x="0px" y="0px"
	 width="257.17px" height="257.17px" viewBox="-96.585 -96.585 257.17 257.17"
	 enable-background="new -96.585 -96.585 257.17 257.17" xml:space="preserve">
<path fill="#414042" stroke="#FFFFFF" stroke-width="2.0526" stroke-miterlimit="10" d="M129.554,159.559H-65.542
	c-16.514,0-30.018-13.718-30.018-30.496V-65.063c0-16.774,13.504-30.496,30.018-30.496h195.095
	c16.505,0,30.005,13.722,30.005,30.496v194.648C159.559,146.354,146.059,159.559,129.554,159.559z"/>
<g display="none">
	<path display="inline" fill="#FFFFFF" d="M100.528-49.313c0.507-1.012,1.503-2.032,2.5-2.542c3.005-0.502,5.504,0.502,8.011,2.032
		c1.993,1.522,3.488,3.558,2.491,6.092c-6.478,17.786-12.479,35.572-19.012,52.856c-7-3.044-13.501-6.096-20.492-9.144
		C83.026-16.282,91.521-32.535,100.528-49.313z"/>
	<path display="inline" fill="#FFFFFF" d="M-52.038-24.415c5.5-1.522,11.496,2.546,12.013,8.634c0.997,5.598-3.507,11.69-9.51,11.69
		c-4.998,0.502-10.004-4.068-10.483-9.152C-60.543-18.314-57.044-23.402-52.038-24.415z"/>
	<path display="inline" fill="#FFFFFF" d="M-21.016-17.804c4.999-1.522,10.004,4.57,7.486,9.144
		c-1.499,4.578-8.992,5.59-11.495,1.522C-28.023-10.692-25.528-17.294-21.016-17.804z"/>
	<path display="inline" fill="#FFFFFF" d="M40.502,18.788c3.005-7.116,10.495-12.706,18.529-12.706
		C63.018,5.58,67.02,7.094,70.5,9.126c7.481,3.566,15.003,6.61,23.014,10.168c5.513,2.542,9.499,7.116,11.508,12.706
		c1.992,5.092,1.502,10.666-0.507,15.758C83.026,37.59,61.508,28.446,40.502,18.788z"/>
	<path display="inline" fill="#FFFFFF" d="M-25.018,9.126c7.996-1.012,16.007,4.578,18,12.2c1.499,5.076,0,11.176-2.99,15.244
		c-3.507,4.586-10.004,7.108-16.007,6.096c-4.002-0.514-8.004-3.044-10.511-6.602c-3.492-5.077-4.002-12.196-0.997-17.787
		C-35.528,13.202-30.526,9.636-25.018,9.126z"/>
	<path display="inline" fill="#FFFFFF" d="M35.013,28.446c4.002,2.032,7.988,4.056,11.998,6.598
		c-7.506,14.232-21.006,24.914-35.526,31.01c-9.495,4.08-18.997,6.587-29.001,8.137c4.998,5.084,10.483,9.661,16.501,13.726
		c7.486-1.511,14.504-4.563,20.021-10.152C16,83.354,12.501,88.959,7.499,93.521c5.002,3.052,10.495,5.598,16.003,8.144
		c4.002,0,7.501-1.533,11.001-3.573c8.008-4.057,14.999-9.646,21.508-15.75c-4.002,9.14-8.502,17.774-15.003,24.914
		c6.501,1.494,13.01,3.036,20.017,3.542c6.501-8.136,11.5-17.79,15.992-27.444c4.5-9.639,8.019-19.308,11.515-28.962
		c4.002,1.51,8.502,2.522,12.504,4.063c-7.506,21.862-17.012,43.194-30.029,62.519c-1.503,2.522-4.5,4.049-7.49,3.55
		c-16.513-1.525-32.512-5.59-47.515-12.184c-19.519-8.65-37.519-21.356-51.026-38.134c-1.499-1.534-3.005-3.559-3.005-6.097
		c0-2.546,1.499-5.092,4.001-6.119c1.993-1.013,4.493-0.498,6.996-0.498c12.013-1.044,23.524-3.574,34.525-8.145
		C17.994,48.271,29.01,40.128,35.013,28.446z"/>
</g>
<path display="none" fill="#FFFFFF" stroke="#FFFFFF" stroke-width="0.5" stroke-miterlimit="10" d="M126.704,122.095
	l-18.374-18.374c0.988-0.996,1.245-2.522,0.607-3.783l-8.315-16.615c4.772-6.337,4.345-15.384-1.417-21.138L83.813,46.793l0,0
	L1.846-35.166l6.945-6.945c1.277-1.285,1.277-3.348,0-4.633c-1.281-1.277-3.348-1.277-4.632,0l-6.941,6.953l-9.265,9.257
	l-20.585-20.585l6.944-6.944c1.281-1.285,1.281-3.348,0-4.633c-1.284-1.284-3.348-1.284-4.632,0l-32.399,32.4
	c-1.285,1.285-1.285,3.348,0,4.632c0.638,0.646,1.475,0.958,2.312,0.958s1.674-0.319,2.32-0.958l6.941-6.945l20.585,20.585
	l-9.253,9.265l-6.952,6.933c-1.277,1.285-1.277,3.352,0,4.632c0.646,0.639,1.483,0.958,2.32,0.958s1.674-0.327,2.32-0.958
	l6.945-6.945l97.351,97.359c3.153,3.153,7.295,4.718,11.453,4.718c3.426,0,6.813-1.137,9.685-3.285l16.615,8.3
	c0.475,0.233,0.98,0.342,1.471,0.342c0.849,0,1.689-0.326,2.32-0.949l18.374,18.374c0.639,0.638,1.487,0.957,2.32,0.957
	s1.674-0.319,2.313-0.957C127.98,125.442,127.98,123.372,126.704,122.095z M15.958,43.771l9.265-9.269
	c1.285-1.276,1.285-3.348,0-4.632c-1.285-1.281-3.348-1.281-4.632,0l-9.261,9.261l-4.632-4.637l9.253-9.265
	c1.292-1.273,1.292-3.348,0-4.632c-1.273-1.281-3.34-1.281-4.621,0l-9.257,9.265l-5.925-5.921L0.78,19.31l0,0L19.302,0.788l0,0
	l4.636-4.632l49.668,49.672H18.048L15.958,43.771z M0.78,10.068l-22.092-22.091l9.265-9.265L10.044,0.803L0.78,10.068z
	 M-2.782-30.542L19.31-8.454l-4.632,4.633L-7.415-25.913L-2.782-30.542z M-46.482-37.202l9.265-9.261l20.546,20.55l-9.265,9.265
	L-46.482-37.202z M-25.937-7.391L-3.845,14.7l-4.625,4.633L-30.561-2.759L-25.937-7.391z M66.786,94.596L24.592,52.398h55.555
	L94.58,66.825c3.753,3.752,3.753,9.864,0,13.617l-0.14,0.132l0,0l-13.897,13.89c0,0.008,0,0.016,0,0.016l-0.124,0.116
	C76.658,98.333,70.547,98.333,66.786,94.596z M88.383,95.873l7.467-7.467l6.174,12.349l-1.292,1.3L88.383,95.873z"/>
<g>
	<path fill="#FFFFFF" d="M125.326-22.659c3.138-3.126,3.138-8.155,0-11.281L97.99-61.279c-4.484-4.488-9.716-1.553-11.289,0
		c-3.114,3.126-3.114,8.16,0,11.289l8.09,8.047l-9.958,9.958L70.196-46.63L58.167-58.663c-4.383-4.375-9.724-1.553-11.289,0
		c-3.122,3.126-3.122,8.155,0,11.289l6.408,6.361L-12.74,24.938c-12.383,12.379-14.065,31.392-5.042,45.569l-43.544,43.537
		c-3.126,3.129-3.126,8.159,0,11.289c3.134,3.114,8.163,3.114,11.289,0L-6.5,81.828c20.966,12.487,38.659,1.868,45.569-5.03
		L105.021,10.8l6.407,6.412c3.13,3.126,8.159,3.126,11.281,0c3.138-3.126,3.138-8.156,0-11.289l-26.666-26.67l9.958-9.958
		l8.043,8.046C117.174-19.533,122.204-19.533,125.326-22.659L125.326-22.659z M64.528-29.771L93.817-0.438L27.792,65.548
		c-10.148,10.113-23.551,5.738-29.293,0c-8.082-8.042-8.082-21.169,0-29.25l0.043-0.031l9.915,9.903c3.126,3.13,8.155,3.13,11.289,0
		c3.126-3.122,3.126-8.151,0-11.277l-9.915-9.915l7.653-7.735l9.915,9.919c3.125,3.126,8.155,3.126,11.281,0
		c3.13-3.134,3.13-8.155,0-11.289l-9.915-9.919l7.688-7.692l9.919,9.919c3.13,3.133,8.159,3.133,11.289,0
		c3.13-3.126,3.13-8.156,0-11.282l-9.919-9.918L64.528-29.771L64.528-29.771z"/>
</g>
</svg>
