<?xml version="1.0" encoding="utf-8"?>
<!-- Generator: Adobe Illustrator 16.0.3, SVG Export Plug-In . SVG Version: 6.00 Build 0)  -->
<!DOCTYPE svg PUBLIC "-//W3C//DTD SVG 1.1//EN" "http://www.w3.org/Graphics/SVG/1.1/DTD/svg11.dtd">
<svg version="1.1" id="Layer_1" xmlns="http://www.w3.org/2000/svg" xmlns:xlink="http://www.w3.org/1999/xlink" x="0px" y="0px"
	 width="257.17px" height="257.17px" viewBox="-96.585 -96.585 257.17 257.17"
	 enable-background="new -96.585 -96.585 257.17 257.17" xml:space="preserve">
<path fill="#414042" stroke="#FFFFFF" stroke-width="2.0526" stroke-miterlimit="10" d="M129.535,159.559H-65.531
	c-16.51,0-30.028-13.718-30.028-30.488V-65.063c0-16.774,13.51-30.496,30.028-30.496h195.066c16.514,0,30.023,13.722,30.023,30.496
	v194.648C159.559,146.347,146.041,159.559,129.535,159.559z"/>
<g>
	<path fill="#FF0000" d="M49.426,106.033h29.633V80.815h5.127c7.111,0,13.042-6.866,13.042-15.119V5.669
		c0-8.252-5.931-15.127-13.042-15.127h-5.127V-36.03H49.426v12.375h18.974v14.197H43.494V-36.03H13.865v12.375h18.959v14.197H6.355
		V-36.03h-29.637v12.375h18.966v14.652c-5.525,1.826-9.874,7.342-9.874,14.66l-7.115-9.611l-21.736,35.732l22.92-12.819l5.923,5.038
		v21.519l-5.923,5.053l-22.92-12.838l21.736,35.743l7.115-9.615v2.289c0,7.326,4.356,13.274,9.874,14.66v13.298h-18.966v12.371
		H6.355V81.268h26.469v12.838H13.865v12.371h29.629V81.268h24.905v12.838H49.426V106.033z"/>
	<polygon fill="#322C31" points="9.919,3.839 -1.939,3.373 -4.717,28.578 	"/>
	<polygon fill="#322C31" points="9.919,64.342 -1.939,64.342 -4.717,39.132 	"/>
</g>
<path fill="#FFFFFF" d="M120.493-35.042c3.479,0,6.283-3.348,6.283-6.953v-9.892c0-3.597-2.805-6.505-6.283-6.505H-55.995
	c-3.468,0-6.295,2.908-6.295,6.505v10.499c0,3.604,2.828,6.345,6.295,6.345h6.073V97.664h-6.073c-3.468,0-6.295,3.238-6.295,6.843
	v11.438c0,3.597,2.828,6.454,6.295,6.454h176.488c3.479,0,6.283-2.64,6.283-6.236v-11.975c0-3.612-2.805-6.508-6.283-6.508h-5.978
	V54.78c2.958-0.537,4.759-2.927,4.759-6.143v-29.85c0-3.204-1.801-6.026-4.759-6.56v-47.262h5.978V-35.042z M-19.17,97.664h-22.192
	V40.619h22.192V97.664z M-19.17,27.582h-22.192v-62.623h22.192V27.582z M12.429,97.664h-22.3V40.619h22.3V97.664z M12.429,27.582
	h-22.3l0.008-62.51l22.292-0.113V27.582z M43.395,97.664H21.149V40.619h22.246V97.664z M43.395,27.582H21.149v-62.623h22.246V27.582
	z M74.522,97.664H52.077V40.619h16.997v8.026c0,3.208,2.506,5.59,5.448,6.135v37.48V97.664z M74.522,12.221
	c-2.942,0.533-5.448,3.683-5.448,6.886v8.475H52.077v-62.623h22.445V6.195V12.221z M105.381,97.664H83.449V54.78h21.932V97.664z
	 M86.354,30.844c0-4.664,3.687-8.467,8.192-8.467c4.498,0,8.169,3.803,8.169,8.467c0,2.702-1.227,5.104-3.143,6.668v3.107
	c0,2.872-2.245,5.208-5.026,5.208c-2.789,0-5.042-2.336-5.042-5.208v-3.107C87.596,35.947,86.354,33.546,86.354,30.844z
	 M105.381,12.221H83.449v-47.262h21.932V12.221z"/>
</svg>
