<?xml version="1.0" encoding="utf-8"?>
<!-- Generator: Adobe Illustrator 16.0.3, SVG Export Plug-In . SVG Version: 6.00 Build 0)  -->
<!DOCTYPE svg PUBLIC "-//W3C//DTD SVG 1.1//EN" "http://www.w3.org/Graphics/SVG/1.1/DTD/svg11.dtd">
<svg version="1.1" id="Layer_1" xmlns="http://www.w3.org/2000/svg" xmlns:xlink="http://www.w3.org/1999/xlink" x="0px" y="0px"
	 width="257.17px" height="257.17px" viewBox="-96.585 -96.585 257.17 257.17"
	 enable-background="new -96.585 -96.585 257.17 257.17" xml:space="preserve">
<path fill="#414042" stroke="#FFFFFF" stroke-width="2.0526" stroke-miterlimit="10" d="M129.538,159.559h-195.08
	c-16.506,0-30.018-13.718-30.018-30.496V-65.063c0-16.774,13.504-30.496,30.018-30.496h195.095
	c16.505,0,30.005,13.722,30.005,30.496v194.648C159.061,146.354,145.561,159.559,129.538,159.559z"/>
<g>
	<path fill="#FFFFFF" d="M117.034,25.892H103.55c-2.99-35.055-31.018-63.013-65.539-66.057v-13.738H25.009v13.738
		C-9.505-37.121-37.019-9.17-40.542,25.892h-13.497v13.208h13.489c3.005,35.051,30.527,63.53,65.551,66.605v13.719h13.002v-13.719
		c34.521-3.06,62.035-31.523,65.531-66.605h13.492L117.034,25.892L117.034,25.892z M38.493,92.479V79.772h-12.99v12.706
		c-27.53-3.052-49.014-25.412-52.027-52.856h12.5V26.41h-12.492c3.005-27.951,25.007-49.813,52.027-52.849v12.71h12.998v-12.71
		C66.023-23.395,87.512-1.533,90.517,26.41H78.013v13.212h12.504C87.526,67.066,65.524,88.928,38.493,92.479L38.493,92.479z"/>
	<path fill="#FFFFFF" d="M51.511,32.502c0,11.177-9.016,19.811-19.519,19.811c-11.001,0-19.499-9.133-19.499-19.811
		c0-11.161,9.008-19.794,19.499-19.794C42.511,12.692,51.511,21.334,51.511,32.502L51.511,32.502z"/>
</g>
</svg>
