<?xml version="1.0" encoding="utf-8"?>
<!-- Generator: Adobe Illustrator 16.0.3, SVG Export Plug-In . SVG Version: 6.00 Build 0)  -->
<!DOCTYPE svg PUBLIC "-//W3C//DTD SVG 1.1//EN" "http://www.w3.org/Graphics/SVG/1.1/DTD/svg11.dtd">
<svg version="1.1" id="Layer_1" xmlns="http://www.w3.org/2000/svg" xmlns:xlink="http://www.w3.org/1999/xlink" x="0px" y="0px"
	 width="64px" height="64px" viewBox="0 0 64 64" enable-background="new 0 0 64 64" xml:space="preserve">
<path fill="#414042" stroke="#FFFFFF" stroke-width="2.0526" stroke-miterlimit="10" d="M44.234,48H19.765
	C17.695,48,16,46.279,16,44.175v-24.35C16,17.721,17.694,16,19.765,16h24.471C46.307,16,48,17.721,48,19.825V44.24
	C47.938,46.344,46.244,48,44.234,48z"/>
<g>
	<path fill="#FFFFFF" d="M42.666,31.234h-1.691c-0.375-4.397-3.891-7.904-8.221-8.286v-1.723h-1.631v1.723
		c-4.329,0.382-7.78,3.888-8.222,8.286h-1.693v1.657H22.9c0.377,4.396,3.829,7.969,8.222,8.354v1.721h1.631v-1.721
		c4.33-0.383,7.781-3.954,8.22-8.354h1.692L42.666,31.234L42.666,31.234z M32.814,39.586v-1.594h-1.629v1.594
		c-3.453-0.383-6.148-3.188-6.526-6.63h1.568v-1.657H24.66c0.377-3.506,3.137-6.248,6.526-6.629v1.594h1.63V24.67
		c3.451,0.382,6.148,3.124,6.525,6.629h-1.57v1.657h1.57C38.965,36.398,36.205,39.141,32.814,39.586L32.814,39.586z"/>
	<path fill="#FFFFFF" d="M34.447,32.063c0,1.402-1.131,2.485-2.448,2.485c-1.38,0-2.446-1.146-2.446-2.485
		c0-1.4,1.13-2.483,2.446-2.483C33.318,29.578,34.447,30.662,34.447,32.063L34.447,32.063z"/>
</g>
</svg>
