<?xml version="1.0" encoding="utf-8"?>
<!-- Generator: Adobe Illustrator 16.0.3, SVG Export Plug-In . SVG Version: 6.00 Build 0)  -->
<!DOCTYPE svg PUBLIC "-//W3C//DTD SVG 1.1//EN" "http://www.w3.org/Graphics/SVG/1.1/DTD/svg11.dtd">
<svg version="1.1" id="Layer_1" xmlns="http://www.w3.org/2000/svg" xmlns:xlink="http://www.w3.org/1999/xlink" x="0px" y="0px"
	 width="64px" height="64px" viewBox="0 0 64 64" enable-background="new 0 0 64 64" xml:space="preserve">
<path fill="#414042" stroke="#FFFFFF" stroke-width="2.0526" stroke-miterlimit="10" d="M44.234,48H19.765
	C17.693,48,16,46.28,16,44.176V19.825C16,17.721,17.693,16,19.765,16h24.471C46.307,16,48,17.721,48,19.825V44.24
	C48,46.345,46.307,48,44.234,48z"/>
<g>
	<path fill="#FFFFFF" d="M32.063,23.268c4.769,0,8.658,3.951,8.658,8.797s-3.892,8.799-8.658,8.799c-4.77,0-8.659-3.953-8.659-8.799
		S27.293,23.268,32.063,23.268 M32.063,21.992c-5.46,0-9.914,4.525-9.914,10.07c0,5.549,4.454,10.073,9.914,10.073
		c5.458,0,9.912-4.523,9.912-10.073C41.977,26.519,37.521,21.992,32.063,21.992L32.063,21.992z"/>
</g>
<path fill="#FFFFFF" d="M44.924,27.155c-0.25-2.104-1.127-4.017-2.57-5.481c-2.069-2.104-5.021-2.933-8.156-2.613l-2.133,13.067
	L44.924,27.155z"/>
</svg>
