<?xml version="1.0" encoding="utf-8"?>
<!-- Generator: Adobe Illustrator 21.0.0, SVG Export Plug-In . SVG Version: 6.00 Build 0)  -->
<svg version="1.1" id="Layer_1" xmlns="http://www.w3.org/2000/svg" xmlns:xlink="http://www.w3.org/1999/xlink" x="0px" y="0px"
	 viewBox="0 0 257.2 257.2" style="enable-background:new 0 0 257.2 257.2;" xml:space="preserve">
<style type="text/css">
	.st0{fill:#414042;stroke:#FFFFFF;stroke-width:2.0526;stroke-miterlimit:10;}
	.st1{display:none;}
	.st2{display:inline;fill:#FF0000;}
	.st3{display:inline;fill:#322C31;}
	.st4{fill:#FFFFFF;}
</style>
<path class="st0" d="M225.1,255.1H30c-16.5,0-30-13.7-30-30.5V30.5C0,13.7,13.5,0,30,0h195.1c16.5,0,30,13.7,30,30.5v194.6
	C255.1,241.9,241.6,255.1,225.1,255.1z"/>
<g class="st1">
	<path class="st2" d="M145,201.6h29.6v-25.2h5.1c7.1,0,13-6.9,13-15.1v-60c0-8.3-5.9-15.1-13-15.1h-5.1V59.5H145v12.4h19v14.2h-24.9
		V59.5h-29.6v12.4h19v14.2h-26.5V59.5H72.3v12.4h19v14.7c-5.5,1.8-9.9,7.3-9.9,14.7l-7.1-9.6l-21.7,35.7l22.9-12.8l5.9,5v21.5
		l-5.9,5.1l-22.9-12.8L74.3,169l7.1-9.6v2.3c0,7.3,4.4,13.3,9.9,14.7v13.3h-19V202h29.6v-25.2h26.5v12.8h-19V202h29.6v-25.2H164
		v12.8h-19V201.6z"/>
	<polygon class="st3" points="105.5,99.4 93.6,98.9 90.8,124.1 	"/>
	<polygon class="st3" points="105.5,159.9 93.6,159.9 90.8,134.7 	"/>
</g>
<path class="st4" d="M216.1,60.5c3.5,0,6.3-3.3,6.3-7v-9.9c0-3.6-2.8-6.5-6.3-6.5H39.6c-3.5,0-6.3,2.9-6.3,6.5v10.5
	c0,3.6,2.8,6.3,6.3,6.3h6.1v132.7h-6.1c-3.5,0-6.3,3.2-6.3,6.8v11.4c0,3.6,2.8,6.5,6.3,6.5h176.5c3.5,0,6.3-2.6,6.3-6.2v-12
	c0-3.6-2.8-6.5-6.3-6.5h-6v-42.9c3-0.5,4.8-2.9,4.8-6.1v-29.8c0-3.2-1.8-6-4.8-6.6V60.5L216.1,60.5L216.1,60.5z M76.4,193.2H54.2
	v-57h22.2V193.2z M76.4,123.1H54.2V60.5h22.2V123.1z M108,193.2H85.7v-57H108V193.2z M108,123.1H85.7l0-62.5l22.3-0.1V123.1z
	 M139,193.2h-22.2v-57H139V193.2z M139,123.1h-22.2V60.5H139V123.1z M170.1,193.2h-22.4v-57h17v8c0,3.2,2.5,5.6,5.4,6.1v37.5
	L170.1,193.2L170.1,193.2z M170.1,107.8c-2.9,0.5-5.4,3.7-5.4,6.9v8.5h-17V60.5h22.4v41.2V107.8z M200.9,193.2H179v-42.9h21.9V193.2
	z M181.9,126.4c0-4.7,3.7-8.5,8.2-8.5c4.5,0,8.2,3.8,8.2,8.5c0,2.7-1.2,5.1-3.1,6.7v3.1c0,2.9-2.2,5.2-5,5.2c-2.8,0-5-2.3-5-5.2
	v-3.1C183.2,131.5,181.9,129.1,181.9,126.4z M200.9,107.8H179V60.5h21.9V107.8z"/>
</svg>
