<?xml version="1.0" encoding="utf-8"?>
<!-- Generator: Adobe Illustrator 16.0.3, SVG Export Plug-In . SVG Version: 6.00 Build 0)  -->
<!DOCTYPE svg PUBLIC "-//W3C//DTD SVG 1.1//EN" "http://www.w3.org/Graphics/SVG/1.1/DTD/svg11.dtd">
<svg version="1.1" id="Layer_1" xmlns="http://www.w3.org/2000/svg" xmlns:xlink="http://www.w3.org/1999/xlink" x="0px" y="0px"
	 width="257.17px" height="257.17px" viewBox="-96.585 -96.585 257.17 257.17"
	 enable-background="new -96.585 -96.585 257.17 257.17" xml:space="preserve">
<path fill="#414042" stroke="#FFFFFF" stroke-width="2.0526" stroke-miterlimit="10" d="M129.538,159.559h-195.08
	c-16.521,0-30.018-13.71-30.018-30.488V-65.063c0-16.774,13.497-30.496,30.018-30.496h195.095c16.505,0,30.005,13.722,30.005,30.496
	v194.648C159.559,146.362,146.059,159.559,129.538,159.559z"/>
<g>
	<path fill="#FFFFFF" d="M32.502-37.615c38.021,0,69.023,31.497,69.023,70.132S70.5,102.67,32.502,102.67
		c-38.028,0-69.035-31.517-69.035-70.152S-5.526-37.615,32.502-37.615 M32.502-47.787c-43.529,0-79.039,36.074-79.039,80.281
		c0,44.242,35.51,80.305,79.039,80.305c43.518,0,79.02-36.063,79.02-80.305C111.537-11.697,76.02-47.787,32.502-47.787
		L32.502-47.787z"/>
</g>
<path fill="#FFFFFF" d="M135.034-6.625c-1.993-16.778-8.984-32.026-20.491-43.7c-16.49-16.774-40.025-23.38-65.018-20.831
	L32.518,33.02L135.034-6.625z"/>
</svg>
