<?xml version="1.0" encoding="utf-8"?>
<!-- Generator: Adobe Illustrator 16.0.3, SVG Export Plug-In . SVG Version: 6.00 Build 0)  -->
<!DOCTYPE svg PUBLIC "-//W3C//DTD SVG 1.1//EN" "http://www.w3.org/Graphics/SVG/1.1/DTD/svg11.dtd">
<svg version="1.1" id="Layer_1" xmlns="http://www.w3.org/2000/svg" xmlns:xlink="http://www.w3.org/1999/xlink" x="0px" y="0px"
	 width="257.17px" height="257.17px" viewBox="-96.585 -96.585 257.17 257.17"
	 enable-background="new -96.585 -96.585 257.17 257.17" xml:space="preserve">
<path fill="#414042" stroke="#FFFFFF" stroke-width="2.0526" stroke-miterlimit="10" d="M129.554,159.559H-65.542
	c-16.514,0-30.018-13.718-30.018-30.496V-65.063c0-16.774,13.504-30.496,30.018-30.496h195.095
	c16.505,0,30.005,13.722,30.005,30.496v194.648C159.559,146.354,146.059,159.559,129.554,159.559z"/>
<g>
	<path fill="#FFFFFF" d="M100.528-49.313c0.507-1.012,1.503-2.032,2.5-2.542c3.005-0.502,5.504,0.502,8.011,2.032
		c1.993,1.522,3.488,3.558,2.491,6.092c-6.485,17.786-12.487,35.572-19.012,52.856c-7-3.044-13.501-6.096-20.492-9.144
		C83.026-16.282,91.521-32.535,100.528-49.313z"/>
	<path fill="#FFFFFF" d="M-52.038-24.415c5.5-1.522,11.496,2.546,12.013,8.634c0.997,5.598-3.507,11.69-9.51,11.69
		c-4.998,0.502-10.004-4.068-10.483-9.152C-60.543-18.314-57.044-23.402-52.038-24.415z"/>
	<path fill="#FFFFFF" d="M-21.016-17.804c4.999-1.522,10.004,4.57,7.486,9.144c-1.499,4.578-8.992,5.59-11.495,1.522
		C-28.023-10.692-25.528-17.294-21.016-17.804z"/>
	<path fill="#FFFFFF" d="M40.502,18.788c3.005-7.116,10.503-12.706,18.529-12.706c3.986-0.502,7.988,1.012,11.477,3.044
		c7.489,3.566,15.003,6.61,23.014,10.168c5.513,2.542,9.499,7.116,11.508,12.706c1.992,5.092,1.494,10.666-0.499,15.758
		C83.026,37.59,61.508,28.446,40.502,18.788z"/>
	<path fill="#FFFFFF" d="M-25.018,9.126c7.996-1.012,16.007,4.578,18,12.2c1.499,5.076,0,11.176-2.99,15.244
		c-3.507,4.586-10.004,7.108-16.007,6.096c-4.002-0.514-8.004-3.044-10.511-6.602c-3.492-5.077-4.002-12.196-0.997-17.787
		C-35.528,13.202-30.526,9.636-25.018,9.126z"/>
	<path fill="#FFFFFF" d="M35.013,28.446c4.002,2.032,7.988,4.056,11.998,6.598c-7.506,14.232-21.006,24.914-35.526,31.01
		c-9.495,4.072-18.997,6.587-29.001,8.129c4.998,5.076,10.483,9.661,16.501,13.718c7.486-1.511,14.504-4.563,20.021-10.152
		C16,83.338,12.501,88.943,7.499,93.506c5.002,3.052,10.495,5.598,16.003,8.144c4.002,0,7.501-1.533,11.001-3.573
		c8.008-4.057,14.999-9.646,21.508-15.75c-4.002,9.147-8.502,17.782-15.003,24.914c6.501,1.502,13.01,3.036,20.017,3.55
		c6.501-8.144,11.5-17.798,15.992-27.452c4.5-9.639,8.019-19.308,11.515-28.962c4.002,1.518,8.502,2.53,12.504,4.063
		c-7.506,21.862-17.012,43.195-30.029,62.519c-1.503,2.522-4.5,4.049-7.49,3.551c-16.513-1.526-32.512-5.591-47.515-12.185
		c-19.519-8.65-37.519-21.356-51.026-38.134c-1.499-1.534-3.005-3.559-3.005-6.097c0-2.546,1.499-5.092,4.001-6.111
		c1.993-1.013,4.493-0.498,6.996-0.498C-15.021,60.448-3.51,57.91,7.491,53.34C17.994,48.271,29.01,40.128,35.013,28.446z"/>
</g>
</svg>
