<?xml version="1.0" encoding="utf-8"?>
<!-- Generator: Adobe Illustrator 16.0.3, SVG Export Plug-In . SVG Version: 6.00 Build 0)  -->
<!DOCTYPE svg PUBLIC "-//W3C//DTD SVG 1.1//EN" "http://www.w3.org/Graphics/SVG/1.1/DTD/svg11.dtd">
<svg version="1.1" id="Layer_1" xmlns="http://www.w3.org/2000/svg" xmlns:xlink="http://www.w3.org/1999/xlink" x="0px" y="0px"
	 width="257.17px" height="257.171px" viewBox="0 0 257.17 257.171" enable-background="new 0 0 257.17 257.171"
	 xml:space="preserve">
<path fill="#414042" stroke="#FFFFFF" stroke-width="2.0526" stroke-miterlimit="10" d="M225.114,255.119H30.018
	C13.504,255.119,0,241.399,0,224.622V30.496C0,13.722,13.504,0,30.018,0h195.096c16.504,0,30.004,13.722,30.004,30.496v194.647
	C255.12,241.913,241.62,255.119,225.114,255.119z"/>
<g>
	<path fill="#FFFFFF" stroke="#FFFFFF" stroke-width="0.6" stroke-miterlimit="10" d="M219.22,81.64
		c-2.765-0.638-5.489,1.098-6.144,3.85c-0.018,0.07-0.482,1.826-1.604,4.399c-0.729-0.175-1.479-0.261-2.242-0.261
		c-1.137,0-2.24,0.237-3.263,0.587l-42.406-42.373c0.132-0.572,0.202-1.164,0.202-1.771c0-0.611-0.094-1.195-0.202-1.783
		c3.254-1.565,5.605-2.219,6.025-2.328c2.764-0.631,4.453-3.367,3.839-6.139c-0.631-2.752-3.379-4.479-6.144-3.854
		c-0.155,0.042-4.642,1.156-10.65,4.57c-0.919-0.28-1.884-0.479-2.896-0.479c-5.504,0-10.012,4.48-10.012,9.997
		c0,0.144,0.039,0.257,0.039,0.377c-5.644,5.737-11.11,13.641-14.765,24.36c-3.143,1.689-5.303,4.967-5.303,8.786
		c0,2.152,0.701,4.13,1.833,5.757c-1.362,9.223-1.565,19.955,0.016,32.514l1.211,10.394c1.063,11.562,0.561,21.689-0.837,30.644
		c-0.654,0.109-1.25,0.257-1.833,0.482l-28.52-28.494c0.227-0.592,0.37-1.172,0.487-1.794c6.349-0.938,19.503-1.593,26.525-1.53
		l-0.997-10.094c-9.394-0.105-21.215,0.876-28.962,2.402c-1.74-1.452-3.955-2.371-6.428-2.371c-4.352,0-8.019,2.822-9.4,6.7
		c-8.918,3.165-16.471,7.108-22.594,11.156c-0.39-0.054-0.786-0.116-1.18-0.116c-5.104,0-9.246,3.808-9.884,8.696
		c-6.731,6.073-10.156,10.962-10.519,11.577c-1.227,2.063-0.838,4.608,0.782,6.235c0.288,0.266,0.623,0.546,0.989,0.786
		c2.433,1.44,5.582,0.662,7.046-1.752c0.266-0.451,2.18-3.401,5.87-7.35c1.036,0.74,2.208,1.246,3.492,1.542l50.566,50.544
		c0,0.794,0.121,1.526,0.281,2.258c-3.924,3.69-6.891,5.574-7.311,5.847c-2.434,1.473-3.228,4.595-1.794,7.038
		c0.222,0.383,0.485,0.726,0.79,0.997c1.627,1.627,4.192,2.018,6.239,0.786c0.537-0.28,4.307-2.678,9.227-7.334
		c0.821,0.202,1.666,0.374,2.55,0.374c5.54,0,10.02-4.493,10.02-10.014c0-1.494-0.335-2.865-0.902-4.157
		c4.273-6.275,8.357-14.107,11.511-23.604c3.311-1.629,5.614-4.991,5.614-8.963c0-2.155-0.693-4.134-1.848-5.753
		c1.783-9.778,2.461-20.889,1.474-33.518c0,0-0.693-10.413-1.146-10.471c-1.55-10.912-1.713-20.266-0.896-28.348l29.212,29.197
		c-5.816,0.587-16.6,0.684-23.855,0.1l0.633,10.3c9.016,0.335,21.146-0.159,28.293-1.506c1.688,1.292,3.799,2.082,6.057,2.082
		c4.243,0,7.863-2.653,9.327-6.387c10.111-4.002,17.751-9.44,23.427-14.94c0.343,0.023,0.678,0.097,1.013,0.097
		c5.504,0,10.004-4.48,10.004-9.997c0-1.094-0.187-2.114-0.514-3.104c3.083-5.021,4.345-8.634,4.376-8.778
		C223.712,85.017,221.983,82.259,219.22,81.64z M112.78,195.596l-49.828-49.813c0.016-0.18,0.047-0.351,0.047-0.537
		c0-0.811-0.125-1.588-0.292-2.352c4.487-3.014,9.907-5.972,16.295-8.446c1.826,1.892,4.368,3.083,7.189,3.083
		c0.105,0,0.198-0.039,0.288-0.039l31.062,31.064c0,0.063-0.017,0.147-0.017,0.194c0,4.196,2.59,7.794,6.257,9.271
		c-2.718,7.147-5.973,13.127-9.297,17.971C113.943,195.823,113.378,195.682,112.78,195.596z M143.543,77.729
		c-0.288-1.553-0.957-2.958-1.876-4.154c2.601-7.517,6.148-13.298,9.95-17.724c0.698,0.144,1.399,0.241,2.146,0.241
		c0.748,0,1.479-0.089,2.165-0.249l43.357,43.362c0,0.144-0.07,0.28-0.07,0.432c0,2.565,1.021,4.893,2.616,6.657
		c-4.445,3.772-10.168,7.287-17.58,9.888c-1.479-2.768-4.196-4.722-7.427-5.186L143.543,77.729z"/>
</g>
</svg>
