<?xml version="1.0" encoding="utf-8"?>
<!-- Generator: Adobe Illustrator 16.0.3, SVG Export Plug-In . SVG Version: 6.00 Build 0)  -->
<!DOCTYPE svg PUBLIC "-//W3C//DTD SVG 1.1//EN" "http://www.w3.org/Graphics/SVG/1.1/DTD/svg11.dtd">
<svg version="1.1" id="Layer_1" xmlns="http://www.w3.org/2000/svg" xmlns:xlink="http://www.w3.org/1999/xlink" x="0px" y="0px"
	 width="64px" height="64px" viewBox="0 0 64 64" enable-background="new 0 0 64 64" xml:space="preserve">
<circle fill="#6D6E71" cx="32" cy="32" r="16"/>
<g>
	<path fill="#FFFFFF" d="M31.385,20.616l-7.744,7.743c-0.153,0.154-0.256,0.411-0.256,0.616c0,0.256,0.104,0.461,0.256,0.615
		c0.154,0.206,0.411,0.257,0.617,0.257h4.103v6.358c0,0.258,0.102,0.462,0.256,0.617c0.205,0.203,0.409,0.254,0.615,0.254h5.435
		c0.256,0,0.462-0.102,0.615-0.254c0.206-0.206,0.258-0.411,0.258-0.617v-6.358h4.103c0.256,0,0.461-0.103,0.615-0.257
		c0.205-0.205,0.256-0.411,0.256-0.615c0-0.256-0.104-0.462-0.256-0.616l-7.744-7.743c-0.155-0.206-0.412-0.257-0.616-0.257
		C31.692,20.359,31.539,20.461,31.385,20.616L31.385,20.616z"/>
	<path fill="#FFFFFF" d="M34.667,40.104h-5.281c-0.565,0-0.976-0.463-0.976-0.976l0,0c0-0.563,0.462-0.974,0.976-0.974h5.281
		c0.563,0,0.976,0.461,0.976,0.974l0,0C35.691,39.641,35.23,40.104,34.667,40.104z"/>
	<path fill="#FFFFFF" d="M34.667,42.977h-5.281c-0.565,0-0.976-0.463-0.976-0.977l0,0c0-0.563,0.462-0.975,0.976-0.975h5.281
		c0.563,0,0.976,0.461,0.976,0.975l0,0C35.691,42.564,35.23,42.977,34.667,42.977z"/>
</g>
</svg>
