<?xml version="1.0" encoding="utf-8"?>
<!-- Generator: Adobe Illustrator 16.0.3, SVG Export Plug-In . SVG Version: 6.00 Build 0)  -->
<!DOCTYPE svg PUBLIC "-//W3C//DTD SVG 1.1//EN" "http://www.w3.org/Graphics/SVG/1.1/DTD/svg11.dtd">
<svg version="1.1" id="Layer_1" xmlns="http://www.w3.org/2000/svg" xmlns:xlink="http://www.w3.org/1999/xlink" x="0px" y="0px"
	 width="64px" height="64px" viewBox="0 0 64 64" enable-background="new 0 0 64 64" xml:space="preserve">
<g>
	<path fill="#FFFFFF" d="M37.096,47.898h6.76v-5.662h1.172c1.621,0,2.974-1.541,2.974-3.396V25.362c0-1.853-1.353-3.396-2.974-3.396
		h-1.172V16h-6.76v2.778h4.326v3.188h-5.679V16h-6.761v2.778h4.325v3.188h-6.039V16h-6.761v2.778h4.328v3.292
		c-1.261,0.41-2.253,1.648-2.253,3.292l-1.624-2.159L16,31.227l5.229-2.878l1.353,1.13v4.835l-1.353,1.133L16,32.564l4.958,8.026
		l1.624-2.161v0.516c0,1.646,0.993,2.98,2.253,3.291v2.986h-4.328V48h6.761v-5.66h6.039v2.883h-4.325V48h6.761v-5.66h5.679v2.883
		h-4.326V47.898z"/>
	<polygon fill="#322C31" points="28.081,24.952 25.377,24.848 24.743,30.507 	"/>
	<polygon fill="#322C31" points="28.081,38.534 25.377,38.534 24.743,32.875 	"/>
</g>
</svg>
