<?xml version="1.0" encoding="utf-8"?>
<!-- Generator: Adobe Illustrator 21.0.0, SVG Export Plug-In . SVG Version: 6.00 Build 0)  -->
<svg version="1.1" id="Layer_1" xmlns="http://www.w3.org/2000/svg" xmlns:xlink="http://www.w3.org/1999/xlink" x="0px" y="0px"
	 viewBox="0 0 255.1 255.1" style="enable-background:new 0 0 255.1 255.1;" xml:space="preserve">
<style type="text/css">
	.st0{fill:#FFFFFF;}
	.st1{fill:#322C31;}
</style>
<g>
	<path class="st0" d="M168.2,254.3h53.9v-45.1h9.3c12.9,0,23.7-12.3,23.7-27.1V74.6c0-14.8-10.8-27.1-23.7-27.1h-9.3V0h-53.9v22.1
		h34.5v25.4h-45.3V0h-53.9v22.1H138v25.4H89.8V0H35.9v22.1h34.5v26.2c-10.1,3.3-18,13.1-18,26.2L39.5,57.4L0,121.4l41.7-22.9l10.8,9
		V146l-10.8,9L0,132.1l39.5,64l12.9-17.2v4.1c0,13.1,7.9,23.8,18,26.2V233H35.9v22.1h53.9V210H138v23h-34.5v22.1h53.9V210h45.3v23
		h-34.5V254.3z"/>
	<polygon class="st1" points="96.3,71.4 74.8,70.5 69.7,115.7 	"/>
	<polygon class="st1" points="96.3,179.7 74.8,179.7 69.7,134.5 	"/>
</g>
</svg>
