<?xml version="1.0" encoding="utf-8"?>
<!-- Generator: Adobe Illustrator 16.0.3, SVG Export Plug-In . SVG Version: 6.00 Build 0)  -->
<!DOCTYPE svg PUBLIC "-//W3C//DTD SVG 1.1//EN" "http://www.w3.org/Graphics/SVG/1.1/DTD/svg11.dtd">
<svg version="1.1" id="Layer_1" xmlns="http://www.w3.org/2000/svg" xmlns:xlink="http://www.w3.org/1999/xlink" x="0px" y="0px"
	 width="255.118px" height="255.118px" viewBox="-95.558 -95.559 255.118 255.118"
	 enable-background="new -95.558 -95.559 255.118 255.118" xml:space="preserve">
<g>
	<path fill="#FF0000" d="M72.616,158.749h53.889v-45.141h9.342c12.923,0,23.713-12.285,23.713-27.078V-20.922
		c0-14.773-10.79-27.075-23.713-27.075h-9.342v-47.562H72.616v22.146h34.487v25.416h-45.27v-47.562H7.933v22.146H42.41v25.416
		h-48.14v-47.562h-53.9v22.146h34.504v26.245c-10.051,3.27-17.96,13.138-17.96,26.246l-12.947-17.21l-39.525,63.971l41.686-22.944
		l10.786,9.008v38.551l-10.786,9.031L-95.558,36.5l39.525,63.982l12.947-17.222v4.11c0,13.119,7.917,23.754,17.96,26.237v23.809
		H-59.63v22.142h53.9v-45.125h48.14v22.983H7.933v22.142h53.901v-45.125h45.27v22.983H72.616V158.749z"/>
	<polygon fill="#322C31" points="0.751,-24.188 -20.806,-25.018 -25.858,20.096 	"/>
	<polygon fill="#322C31" points="0.751,84.094 -20.806,84.094 -25.858,38.976 	"/>
</g>
</svg>
