<?xml version="1.0" encoding="utf-8"?>
<!-- Generator: Adobe Illustrator 21.0.0, SVG Export Plug-In . SVG Version: 6.00 Build 0)  -->
<svg version="1.1" id="Layer_1" xmlns="http://www.w3.org/2000/svg" xmlns:xlink="http://www.w3.org/1999/xlink" x="0px" y="0px"
	 viewBox="0 0 227 56.8" style="enable-background:new 0 0 227 56.8;" xml:space="preserve">
<style type="text/css">
	.st0{display:none;}
	.st1{display:inline;}
	.st2{fill:#161616;stroke:#FFFFFF;stroke-miterlimit:10;}
	.st3{opacity:0.8;}
	.st4{fill:none;stroke:#FFFFFF;stroke-width:12;stroke-miterlimit:10;}
	.st5{opacity:0.5;}
	.st6{fill:none;stroke:#FFFFFF;stroke-width:4;stroke-miterlimit:10;}
	.st7{fill:#303030;stroke:#FFFFFF;stroke-width:12;stroke-miterlimit:10;}
	.st8{fill:#FFFFFF;}
	.st9{opacity:0.8;clip-path:url(#SVGID_2_);fill:#00CFFF;enable-background:new    ;}
	.st10{opacity:0.8;clip-path:url(#SVGID_4_);fill:#FF0000;enable-background:new    ;}
	.st11{display:none;opacity:0.8;fill:#CE0000;enable-background:new    ;}
	.st12{display:none;opacity:0.5;fill:#FFFFFF;enable-background:new    ;}
	.st13{display:none;opacity:0.8;}
</style>
<g id="Layer_4" class="st0">
	<g id="Layer_3" class="st1">
		<rect x="-674.2" y="-315" class="st2" width="1256.7" height="1181.1"/>
	</g>
</g>
<g id="Layer_11">
	<g id="Workstation_2_" class="st3">
		<g id="Group_1_">
			<g id="Outline_1_">
				<path class="st4" d="M213.8,407.6h-448.9c-12.8,0-23.6-10.7-23.6-23.6V101.3c0-13.1,10.7-23.6,23.6-23.6h448.9
					c13.1,0,23.6,10.5,23.6,23.6V384C237.4,397.1,226.7,407.6,213.8,407.6z"/>
				<path class="st4" d="M115.3,438.4H-10.6h-125.9c-18.4,0-33.2,14.8-33.2,33.2v38.1h159.1h159.1v-38.1
					C148.5,453.4,133.7,438.4,115.3,438.4z"/>
			</g>
			<g id="Fill_1_" class="st5">
				<path class="st6" d="M57.9,77.8h-5.6l-310.5,310.5c0.2,1.5,0.6,2.8,1.3,4.3L57.9,77.8z"/>
				<polygon class="st6" points="22.8,77.8 17.2,77.8 -258.6,353.8 -258.6,359.2 				"/>
				<polygon class="st6" points="-12.3,77.8 -17.7,77.8 -258.6,318.7 -258.6,324.3 				"/>
				<path class="st6" d="M90.4,77.8h-5.6l-328.1,328.5c1.3,0.4,2.8,0.9,4.3,1.1L90.4,77.8z"/>
				<polygon class="st6" points="125.6,77.8 120.2,77.8 -209.6,407.6 -204.2,407.6 				"/>
				<polygon class="st6" points="-145.6,77.8 -151.1,77.8 -258.6,185.5 -258.6,190.9 				"/>
				<polygon class="st6" points="-47.5,77.8 -52.8,77.8 -258.6,283.6 -258.6,289.2 				"/>
				<polygon class="st6" points="-258.6,117.6 -258.6,123.2 -213.4,77.8 -219,77.8 				"/>
				<polygon class="st6" points="160.7,77.8 155.3,77.8 -174.5,407.6 -169.1,407.6 				"/>
				<polygon class="st6" points="-115.1,77.8 -120.7,77.8 -258.6,215.9 -258.6,221.3 				"/>
				<polygon class="st6" points="-80.2,77.8 -85.6,77.8 -258.6,251 -258.6,256.4 				"/>
				<polygon class="st6" points="-180.7,77.8 -186.2,77.8 -258.6,150.4 -258.6,155.7 				"/>
				<polygon class="st6" points="237.4,277.2 237.4,271.8 101.4,407.6 106.9,407.6 				"/>
				<polygon class="st6" points="237.4,242 237.4,236.7 66.2,407.6 71.8,407.6 				"/>
				<polygon class="st6" points="237.4,312.3 237.4,306.9 136.5,407.6 141.8,407.6 				"/>
				<polygon class="st6" points="237.4,380.2 237.4,374.6 204.4,407.6 209.7,407.6 				"/>
				<polygon class="st6" points="237.4,345.1 237.4,339.5 169.3,407.6 174.6,407.6 				"/>
				<path class="st6" d="M237.4,104.1v-2.8c0-0.9,0-1.7-0.2-2.6L-71.7,407.6h5.6L237.4,104.1z"/>
				<polygon class="st6" points="237.4,207.1 237.4,201.6 31.3,407.6 36.7,407.6 				"/>
				<polygon class="st6" points="195.8,77.8 190.2,77.8 -139.6,407.6 -134,407.6 				"/>
				<path class="st6" d="M225.4,81c-1.3-0.6-2.4-1.3-3.6-1.7l-328.5,328.3h5.6L225.4,81z"/>
				<polygon class="st6" points="237.4,139.2 237.4,133.7 -36.6,407.6 -31.2,407.6 				"/>
				<polygon class="st6" points="237.4,174.4 237.4,168.8 -1.4,407.6 3.9,407.6 				"/>
			</g>
		</g>
		<rect x="-76.4" y="178.5" class="st7" width="133.2" height="133.2"/>
	</g>
	<g id="memory_6_">
		<g id="memory_11_">
			<path class="st8" d="M222.5,12v-1.7h4.5V7.5h-4.5V6.4H218V0h-30.2v6.3h-4.5v1.1h-4.5v2.8h4.5v1.7h4.5v3.8h-4.5v1.1h-4.5v2.8h4.5
				v1.7h4.5v4.4h-4.5v1.1h-4.5v2.8h4.5v1.7h4.5v4.1h-4.5v1.1h-4.5v2.8h4.5v1.7h4.5v3.7h-4.5V46h-4.5v2.8h4.5v1.7h4.5v6.3H218v-6.2
				h4.4v-1.7h4.5v-2.8h-4.5V45H218v-3.7h4.4v-1.7h4.5v-2.8h-4.5v-1.1H218v-4.1h4.4v-1.7h4.5V27h-4.5v-1.1H218v-4.4h4.4v-1.7h4.5V17
				h-4.5v-1.1H218V12L222.5,12L222.5,12L222.5,12z M211.4,7.5c-1.3,0-2.3-1-2.3-2.3c0-1.3,1-2.3,2.3-2.3c1.3,0,2.3,1,2.3,2.3
				C213.7,6.5,212.6,7.5,211.4,7.5z"/>
		</g>
		<g id="memory_10_">
			<path class="st8" d="M43.7,12v-1.7h4.5V7.5h-4.5V6.4h-4.4V0H9.1v6.3H4.5v1.1H0v2.8h4.5v1.7h4.5v3.8H4.5v1.1H0v2.8h4.5v1.7h4.5
				v4.4H4.5v1.1H0v2.8h4.5v1.7h4.5v4.1H4.5v1.1H0v2.8h4.5v1.7h4.5v3.7H4.5V46H0v2.8h4.5v1.7h4.5v6.3h30.2v-6.2h4.4v-1.7h4.5v-2.8
				h-4.5V45h-4.4v-3.7h4.4v-1.7h4.5v-2.8h-4.5v-1.1h-4.4v-4.1h4.4v-1.7h4.5V27h-4.5v-1.1h-4.4v-4.4h4.4v-1.7h4.5V17h-4.5v-1.1h-4.4
				V12L43.7,12L43.7,12L43.7,12L43.7,12z M32.6,7.5c-1.3,0-2.3-1-2.3-2.3c0-1.3,1-2.3,2.3-2.3c1.3,0,2.3,1,2.3,2.3
				C34.9,6.5,33.9,7.5,32.6,7.5z"/>
		</g>
		<g id="memory_9_">
			<path class="st8" d="M88,12v-1.7h4.5V7.5H88V6.4h-4.4V0H53.4v6.3h-4.5v1.1h-4.5v2.8h4.5v1.7h4.5v3.8h-4.5v1.1h-4.5v2.8h4.5v1.7
				h4.5v4.4h-4.5v1.1h-4.5v2.8h4.5v1.7h4.5v4.1h-4.5v1.1h-4.5v2.8h4.5v1.7h4.5v3.7h-4.5V46h-4.5v2.8h4.5v1.7h4.5v6.3h30.2v-6.2H88
				v-1.7h4.5v-2.8H88V45h-4.4v-3.7H88v-1.7h4.5v-2.8H88v-1.1h-4.4v-4.1H88v-1.7h4.5V27H88v-1.1h-4.4v-4.4H88v-1.7h4.5V17H88v-1.1
				h-4.4V12L88,12L88,12L88,12L88,12z M76.9,7.5c-1.3,0-2.3-1-2.3-2.3c0-1.3,1-2.3,2.3-2.3c1.3,0,2.3,1,2.3,2.3
				C79.2,6.5,78.2,7.5,76.9,7.5z"/>
		</g>
		<g id="memory_8_">
			<path class="st8" d="M132.9,12v-1.7h4.5V7.5h-4.5V6.4h-4.4V0H98.3v6.3h-4.5v1.1h-4.5v2.8h4.5v1.7h4.5v3.8h-4.5v1.1h-4.5v2.8h4.5
				v1.7h4.5v4.4h-4.5v1.1h-4.5v2.8h4.5v1.7h4.5v4.1h-4.5v1.1h-4.5v2.8h4.5v1.7h4.5v3.7h-4.5V46h-4.5v2.8h4.5v1.7h4.5v6.3h30.2v-6.2
				h4.4v-1.7h4.5v-2.8h-4.5V45h-4.4v-3.7h4.4v-1.7h4.5v-2.8h-4.5v-1.1h-4.4v-4.1h4.4v-1.7h4.5V27h-4.5v-1.1h-4.4v-4.4h4.4v-1.7h4.5
				V17h-4.5v-1.1h-4.4V12L132.9,12L132.9,12L132.9,12z M121.8,7.5c-1.3,0-2.3-1-2.3-2.3c0-1.3,1-2.3,2.3-2.3c1.3,0,2.3,1,2.3,2.3
				C124.2,6.5,123.1,7.5,121.8,7.5z"/>
		</g>
		<g id="memory_7_">
			<path class="st8" d="M177.2,12v-1.7h4.5V7.5h-4.5V6.4h-4.4V0h-30.2v6.3H138v1.1h-4.5v2.8h4.5v1.7h4.5v3.8H138v1.1h-4.5v2.8h4.5
				v1.7h4.5v4.4H138v1.1h-4.5v2.8h4.5v1.7h4.5v4.1H138v1.1h-4.5v2.8h4.5v1.7h4.5v3.7H138V46h-4.5v2.8h4.5v1.7h4.5v6.3h30.2v-6.2h4.4
				v-1.7h4.5v-2.8h-4.5V45h-4.4v-3.7h4.4v-1.7h4.5v-2.8h-4.5v-1.1h-4.4v-4.1h4.4v-1.7h4.5V27h-4.5v-1.1h-4.4v-4.4h4.4v-1.7h4.5V17
				h-4.5v-1.1h-4.4V12L177.2,12L177.2,12L177.2,12z M166.1,7.5c-1.3,0-2.3-1-2.3-2.3c0-1.3,1-2.3,2.3-2.3c1.3,0,2.3,1,2.3,2.3
				C168.4,6.5,167.4,7.5,166.1,7.5z"/>
		</g>
	</g>
	<g class="st0">
		<g class="st1">
			<defs>
				<rect id="SVGID_1_" x="0" y="-0.5" width="48.4" height="57.3"/>
			</defs>
			<clipPath id="SVGID_2_">
				<use xlink:href="#SVGID_1_"  style="overflow:visible;"/>
			</clipPath>
			<path id="memory_progress_1_" class="st9" d="M222,50.6v-1.7h4.5v-2.8H222V45h-4.4v-3.7h4.4v-1.7h4.5v-2.8H222v-1.1h-4.4v-4.1
				h4.4v-1.7h4.5V27H222v-1.1h-4.4v-4.4h4.4v-1.7h4.5V17H222v-1.1h-4.4V12h4.4v0h0v-1.7h4.5V7.5H222V6.4h-4.4V0h-30.2v6.3h-4.5v1.1
				h-4.5v0.1h-1.6V6.4h-4.4V0h-30.2v6.3h-4.5v1.1h-4.5v0.1h-0.5V6.4h-4.4V0H97.9v6.3h-4.5v1.1h-4.5v0.1h-1.3V6.4h-4.4V0H52.9v6.3
				h-4.5v1.1h-4.5v0.1h-0.5V6.4h-4.4V0H8.7v6.3H4.1v1.1H0v2.8h4.1v1.7h4.5v3.8H4.1v1.1H0v2.8h4.1v1.7h4.5v4.4H4.1v1.1H0v2.8h4.1v1.7
				h4.5v4.1H4.1v1.1H0v2.8h4.1v1.7h4.5v3.7H4.1V46H0v2.8h4.1v1.7h4.5v6.3h30.2v-6.2h4.4v-1.7h4.5v-0.1h0.5v1.7h4.5v6.3h30.2v-6.2
				h4.4v-1.7h4.5v-0.1h1.3v1.7h4.5v6.3h30.2v-6.2h4.4v-1.7h4.5v-0.1h0.6v1.7h4.5v6.3h30.2v-6.2h4.4v-1.7h4.5v-0.1h1.6v1.7h4.5v6.3
				h30.2v-6.2L222,50.6L222,50.6z M32.2,7.5c-1.3,0-2.3-1-2.3-2.3c0-1.3,1-2.3,2.3-2.3c1.3,0,2.3,1,2.3,2.3
				C34.5,6.5,33.5,7.5,32.2,7.5z M52.9,44.9h-4.5V46h-4.5v0.1h-0.5V45h-4.4v-3.7h4.4v-1.7h4.5v-0.1h0.5v1.7h4.5V44.9z M52.9,35.5
				h-4.5v1.1h-4.5v0.1h-0.5v-1.1h-4.4v-4.1h4.4v-1.7h4.5v-0.1h0.5v1.7h4.5V35.5z M52.9,25.8h-4.5v1.1h-4.5V27h-0.5v-1.1h-4.4v-4.4
				h4.4v-1.7h4.5v-0.1h0.5v1.7h4.5V25.8z M52.9,15.7h-4.5v1.1h-4.5V17h-0.5v-1.1h-4.4V12h4.4v0h0v-1.7h4.5v-0.1h0.5v1.7h4.5V15.7z
				 M76.4,7.5c-1.3,0-2.3-1-2.3-2.3c0-1.3,1-2.3,2.3-2.3c1.3,0,2.3,1,2.3,2.3C78.8,6.5,77.7,7.5,76.4,7.5z M97.9,44.9h-4.5V46h-4.5
				v0.1h-1.3V45h-4.4v-3.7h4.4v-1.7h4.5v-0.1h1.3v1.7h4.5V44.9z M97.9,35.5h-4.5v1.1h-4.5v0.1h-1.3v-1.1h-4.4v-4.1h4.4v-1.7h4.5
				v-0.1h1.3v1.7h4.5V35.5z M97.9,25.8h-4.5v1.1h-4.5V27h-1.3v-1.1h-4.4v-4.4h4.4v-1.7h4.5v-0.1h1.3v1.7h4.5V25.8z M97.9,15.7h-4.5
				v1.1h-4.5V17h-1.3v-1.1h-4.4V12h4.4v0h0v-1.7h4.5v-0.1h1.3v1.7h4.5V15.7z M121.4,7.5c-1.3,0-2.3-1-2.3-2.3c0-1.3,1-2.3,2.3-2.3
				c1.3,0,2.3,1,2.3,2.3C123.8,6.5,122.7,7.5,121.4,7.5z M142.2,44.9h-4.5V46h-4.5v0.1h-0.6V45h-4.4v-3.7h4.4v-1.7h4.5v-0.1h0.6v1.7
				h4.5V44.9z M142.2,35.5h-4.5v1.1h-4.5v0.1h-0.6v-1.1h-4.4v-4.1h4.4v-1.7h4.5v-0.1h0.6v1.7h4.5V35.5z M142.2,25.8h-4.5v1.1h-4.5
				V27h-0.6v-1.1h-4.4v-4.4h4.4v-1.7h4.5v-0.1h0.6v1.7h4.5V25.8z M142.2,15.7h-4.5v1.1h-4.5V17h-0.6v-1.1h-4.4V12h4.4v0h0v-1.7h4.5
				v-0.1h0.5v1.7h4.5L142.2,15.7L142.2,15.7z M165.7,7.5c-1.3,0-2.3-1-2.3-2.3c0-1.3,1-2.3,2.3-2.3c1.3,0,2.3,1,2.3,2.3
				C168,6.5,167,7.5,165.7,7.5z M187.4,44.9h-4.5V46h-4.5v0.1h-1.6V45h-4.4v-3.7h4.4v-1.7h4.5v-0.1h1.6v1.7h4.5V44.9z M187.4,35.5
				h-4.5v1.1h-4.5v0.1h-1.6v-1.1h-4.4v-4.1h4.4v-1.7h4.5v-0.1h1.6v1.7h4.5V35.5z M187.4,25.8h-4.5v1.1h-4.5V27h-1.6v-1.1h-4.4v-4.4
				h4.4v-1.7h4.5v-0.1h1.6v1.7h4.5V25.8z M187.4,15.7h-4.5v1.1h-4.5V17h-1.6v-1.1h-4.4V12h4.4v0h0v-1.7h4.5v-0.1h1.6v1.7h4.5V15.7z
				 M210.9,7.5c-1.3,0-2.3-1-2.3-2.3c0-1.3,1-2.3,2.3-2.3c1.3,0,2.3,1,2.3,2.3C213.3,6.5,212.2,7.5,210.9,7.5z"/>
		</g>
	</g>
	<g class="st0">
		<g class="st1">
			<defs>
				<rect id="SVGID_3_" x="-251.8" y="-0.5" width="60.6" height="59.3"/>
			</defs>
			<clipPath id="SVGID_4_">
				<use xlink:href="#SVGID_3_"  style="overflow:visible;"/>
			</clipPath>
			<path id="cpu_progress_1_" class="st10" d="M-237.8,7.5h157.7v44h-157.7V7.5z M-135.1,20.6c0.6,0,1.1-0.5,1.1-1.1
				s-0.5-1.1-1.1-1.1h-3.3V14h3.3c0.6,0,1.1-0.5,1.1-1.1s-0.5-1.1-1.1-1.1h-3.3V9.6c0-3-2.5-5.5-5.5-5.5h-2.2V0.8
				c0-0.6-0.5-1.1-1.1-1.1c-0.6,0-1.1,0.5-1.1,1.1v3.3h-4.4V0.8c0-0.6-0.5-1.1-1.1-1.1c-0.6,0-1.1,0.5-1.1,1.1v3.3h-4.4V0.8
				c0-0.6-0.5-1.1-1.1-1.1s-1.1,0.5-1.1,1.1v3.3h-4.4V0.8c0-0.6-0.5-1.1-1.1-1.1s-1.1,0.5-1.1,1.1v3.3h-4.4V0.8
				c0-0.6-0.5-1.1-1.1-1.1s-1.1,0.5-1.1,1.1v3.3h-4.4V0.8c0-0.6-0.5-1.1-1.1-1.1c-0.6,0-1.1,0.5-1.1,1.1v3.3h-2.2
				c-3,0-5.5,2.5-5.5,5.5v2.2h-3.3c-0.6,0-1.1,0.5-1.1,1.1s0.5,1.1,1.1,1.1h3.3v4.4h-3.3c-0.6,0-1.1,0.5-1.1,1.1
				c0,0.6,0.5,1.1,1.1,1.1h3.3V25h-3.3c-0.6,0-1.1,0.5-1.1,1.1s0.5,1.1,1.1,1.1h3.3v4.4h-3.3c-0.6,0-1.1,0.5-1.1,1.1
				c0,0.6,0.5,1.1,1.1,1.1h3.3v4.4h-3.3c-0.6,0-1.1,0.5-1.1,1.1s0.5,1.1,1.1,1.1h3.3v4.4h-3.3c-0.6,0-1.1,0.5-1.1,1.1
				s0.5,1.1,1.1,1.1h3.3v2.2c0,3,2.5,5.5,5.5,5.5h2.2v3.3c0,0.6,0.5,1.1,1.1,1.1c0.6,0,1.1-0.5,1.1-1.1v-3.3h4.4v3.3
				c0,0.6,0.5,1.1,1.1,1.1s1.1-0.5,1.1-1.1v-3.3h4.4v3.3c0,0.6,0.5,1.1,1.1,1.1s1.1-0.5,1.1-1.1v-3.3h4.4v3.3c0,0.6,0.5,1.1,1.1,1.1
				s1.1-0.5,1.1-1.1v-3.3h4.4v3.3c0,0.6,0.5,1.1,1.1,1.1c0.6,0,1.1-0.5,1.1-1.1v-3.3h4.4v3.3c0,0.6,0.5,1.1,1.1,1.1s1.1-0.5,1.1-1.1
				v-3.3h2.2c3,0,5.5-2.5,5.5-5.5V47h3.3c0.6,0,1.1-0.5,1.1-1.1c0-0.6-0.5-1.1-1.1-1.1h-3.3v-4.4h3.3c0.6,0,1.1-0.5,1.1-1.1
				s-0.5-1.1-1.1-1.1h-3.3v-4.4h3.3c0.6,0,1.1-0.5,1.1-1.1c0-0.6-0.5-1.1-1.1-1.1h-3.3v-4.4h3.3c0.6,0,1.1-0.5,1.1-1.1
				c0-0.6-0.5-1.1-1.1-1.1h-3.3v-4.4L-135.1,20.6L-135.1,20.6z M-140.6,49.2c0,1.8-1.5,3.3-3.3,3.3h-39.5c-1.8,0-3.3-1.5-3.3-3.3
				V9.6c0-1.8,1.5-3.3,3.3-3.3h39.5c1.8,0,3.3,1.5,3.3,3.3V49.2L-140.6,49.2z M-146.1,9.6h-35.1c-1.2,0-2.2,1-2.2,2.2v35.1
				c0,1.2,1,2.2,2.2,2.2h35.1c1.2,0,2.2-1,2.2-2.2V11.8C-143.9,10.6-144.9,9.6-146.1,9.6z M-154.3,38.8h-18.5V20.3h18.5V38.8z
				 M-78.9,20.6c0.6,0,1.1-0.5,1.1-1.1c0-0.6-0.5-1.1-1.1-1.1h-3.3V14h3.3c0.6,0,1.1-0.5,1.1-1.1s-0.5-1.1-1.1-1.1h-3.3V9.6
				c0-3-2.5-5.5-5.5-5.5h-2.2V0.8c0-0.6-0.5-1.1-1.1-1.1c-0.6,0-1.1,0.5-1.1,1.1v3.3h-4.4V0.8c0-0.6-0.5-1.1-1.1-1.1
				c-0.6,0-1.1,0.5-1.1,1.1v3.3h-4.4V0.8c0-0.6-0.5-1.1-1.1-1.1c-0.6,0-1.1,0.5-1.1,1.1v3.3h-4.4V0.8c0-0.6-0.5-1.1-1.1-1.1
				s-1.1,0.5-1.1,1.1v3.3h-4.4V0.8c0-0.6-0.5-1.1-1.1-1.1c-0.6,0-1.1,0.5-1.1,1.1v3.3h-4.4V0.8c0-0.6-0.5-1.1-1.1-1.1
				s-1.1,0.5-1.1,1.1v3.3h-2.2c-3,0-5.5,2.5-5.5,5.5v2.2h-3.3c-0.6,0-1.1,0.5-1.1,1.1c0,0.6,0.5,1.1,1.1,1.1h3.3v4.4h-3.3
				c-0.6,0-1.1,0.5-1.1,1.1c0,0.6,0.5,1.1,1.1,1.1h3.3V25h-3.3c-0.6,0-1.1,0.5-1.1,1.1c0,0.6,0.5,1.1,1.1,1.1h3.3v4.4h-3.3
				c-0.6,0-1.1,0.5-1.1,1.1s0.5,1.1,1.1,1.1h3.3v4.4h-3.3c-0.6,0-1.1,0.5-1.1,1.1c0,0.6,0.5,1.1,1.1,1.1h3.3v4.4h-3.3
				c-0.6,0-1.1,0.5-1.1,1.1c0,0.6,0.5,1.1,1.1,1.1h3.3v2.2c0,3,2.5,5.5,5.5,5.5h2.2v3.3c0,0.6,0.5,1.1,1.1,1.1
				c0.6,0,1.1-0.5,1.1-1.1v-3.3h4.4v3.3c0,0.6,0.5,1.1,1.1,1.1c0.6,0,1.1-0.5,1.1-1.1v-3.3h4.4v3.3c0,0.6,0.5,1.1,1.1,1.1
				s1.1-0.5,1.1-1.1v-3.3h4.4v3.3c0,0.6,0.5,1.1,1.1,1.1c0.6,0,1.1-0.5,1.1-1.1v-3.3h4.4v3.3c0,0.6,0.5,1.1,1.1,1.1
				c0.6,0,1.1-0.5,1.1-1.1v-3.3h4.4v3.3c0,0.6,0.5,1.1,1.1,1.1s1.1-0.5,1.1-1.1v-3.3h2.2c3,0,5.5-2.5,5.5-5.5v-2.2h3.3
				c0.6,0,1.1-0.5,1.1-1.1s-0.5-1.1-1.1-1.1h-3.3v-4.4h3.3c0.6,0,1.1-0.5,1.1-1.1c0-0.6-0.5-1.1-1.1-1.1h-3.3v-4.4h3.3
				c0.6,0,1.1-0.5,1.1-1.1c0-0.6-0.5-1.1-1.1-1.1h-3.3v-4.4h3.3c0.6,0,1.1-0.5,1.1-1.1s-0.5-1.1-1.1-1.1h-3.3v-4.4L-78.9,20.6
				L-78.9,20.6z M-84.4,49.2c0,1.8-1.5,3.3-3.3,3.3h-39.5c-1.8,0-3.3-1.5-3.3-3.3V9.6c0-1.8,1.5-3.3,3.3-3.3h39.5
				c1.8,0,3.3,1.5,3.3,3.3V49.2L-84.4,49.2z M-89.9,9.6H-125c-1.2,0-2.2,1-2.2,2.2v35.1c0,1.2,1,2.2,2.2,2.2h35.1
				c1.2,0,2.2-1,2.2-2.2V11.8C-87.7,10.6-88.7,9.6-89.9,9.6z M-98,38.8h-18.5V20.3H-98V38.8z M-22.3,20.6c0.6,0,1.1-0.5,1.1-1.1
				s-0.5-1.1-1.1-1.1h-3.3V14h3.3c0.6,0,1.1-0.5,1.1-1.1s-0.5-1.1-1.1-1.1h-3.3V9.6c0-3-2.5-5.5-5.5-5.5h-2.2V0.8
				c0-0.6-0.5-1.1-1.1-1.1c-0.6,0-1.1,0.5-1.1,1.1v3.3h-4.4V0.8c0-0.6-0.5-1.1-1.1-1.1s-1.1,0.5-1.1,1.1v3.3h-4.4V0.8
				c0-0.6-0.5-1.1-1.1-1.1s-1.1,0.5-1.1,1.1v3.3h-4.4V0.8c0-0.6-0.5-1.1-1.1-1.1s-1.1,0.5-1.1,1.1v3.3h-4.4V0.8
				c0-0.6-0.5-1.1-1.1-1.1c-0.6,0-1.1,0.5-1.1,1.1v3.3h-4.4V0.8c0-0.6-0.5-1.1-1.1-1.1c-0.6,0-1.1,0.5-1.1,1.1v3.3h-2.2
				c-3,0-5.5,2.5-5.5,5.5v2.2h-3.3c-0.6,0-1.1,0.5-1.1,1.1S-80,14-79.4,14h3.3v4.4h-3.3c-0.6,0-1.1,0.5-1.1,1.1
				c0,0.6,0.5,1.1,1.1,1.1h3.3V25h-3.3c-0.6,0-1.1,0.5-1.1,1.1s0.5,1.1,1.1,1.1h3.3v4.4h-3.3c-0.6,0-1.1,0.5-1.1,1.1
				c0,0.6,0.5,1.1,1.1,1.1h3.3v4.4h-3.3c-0.6,0-1.1,0.5-1.1,1.1s0.5,1.1,1.1,1.1h3.3v4.4h-3.3c-0.6,0-1.1,0.5-1.1,1.1
				S-80,47-79.4,47h3.3v2.2c0,3,2.5,5.5,5.5,5.5h2.2v3.3c0,0.6,0.5,1.1,1.1,1.1s1.1-0.5,1.1-1.1v-3.3h4.4v3.3c0,0.6,0.5,1.1,1.1,1.1
				c0.6,0,1.1-0.5,1.1-1.1v-3.3h4.4v3.3c0,0.6,0.5,1.1,1.1,1.1s1.1-0.5,1.1-1.1v-3.3h4.4v3.3c0,0.6,0.5,1.1,1.1,1.1
				c0.6,0,1.1-0.5,1.1-1.1v-3.3h4.4v3.3c0,0.6,0.5,1.1,1.1,1.1s1.1-0.5,1.1-1.1v-3.3h4.4v3.3c0,0.6,0.5,1.1,1.1,1.1
				c0.6,0,1.1-0.5,1.1-1.1v-3.3h2.2c3,0,5.5-2.5,5.5-5.5V47h3.3c0.6,0,1.1-0.5,1.1-1.1c0-0.6-0.5-1.1-1.1-1.1h-3.3v-4.4h3.3
				c0.6,0,1.1-0.5,1.1-1.1s-0.5-1.1-1.1-1.1h-3.3v-4.4h3.3c0.6,0,1.1-0.5,1.1-1.1s-0.5-1.1-1.1-1.1h-3.3v-4.4h3.3
				c0.6,0,1.1-0.5,1.1-1.1c0-0.6-0.5-1.1-1.1-1.1h-3.3v-4.4L-22.3,20.6L-22.3,20.6z M-27.8,49.2c0,1.8-1.5,3.3-3.3,3.3h-39.5
				c-1.8,0-3.3-1.5-3.3-3.3V9.6c0-1.8,1.5-3.3,3.3-3.3h39.5c1.8,0,3.3,1.5,3.3,3.3V49.2L-27.8,49.2z M-33.3,9.6h-35.1
				c-1.2,0-2.2,1-2.2,2.2v35.1c0,1.2,1,2.2,2.2,2.2h35.1c1.2,0,2.2-1,2.2-2.2V11.8C-31.1,10.6-32.1,9.6-33.3,9.6z M-41.4,38.8h-18.5
				V20.3h18.5V38.8z M-192.3,20.6c0.6,0,1.1-0.5,1.1-1.1s-0.5-1.1-1.1-1.1h-3.3V14h3.3c0.6,0,1.1-0.5,1.1-1.1s-0.5-1.1-1.1-1.1h-3.3
				V9.6c0-3-2.5-5.5-5.5-5.5h-2.2V0.8c0-0.6-0.5-1.1-1.1-1.1c-0.6,0-1.1,0.5-1.1,1.1v3.3h-4.4V0.8c0-0.6-0.5-1.1-1.1-1.1
				s-1.1,0.5-1.1,1.1v3.3h-4.4V0.8c0-0.6-0.5-1.1-1.1-1.1c-0.6,0-1.1,0.5-1.1,1.1v3.3h-4.4V0.8c0-0.6-0.5-1.1-1.1-1.1
				c-0.6,0-1.1,0.5-1.1,1.1v3.3h-4.4V0.8c0-0.6-0.5-1.1-1.1-1.1c-0.6,0-1.1,0.5-1.1,1.1v3.3h-4.4V0.8c0-0.6-0.5-1.1-1.1-1.1
				s-1.1,0.5-1.1,1.1v3.3h-2.2c-3,0-5.5,2.5-5.5,5.5v2.2h-3.3c-0.6,0-1.1,0.5-1.1,1.1s0.5,1.1,1.1,1.1h3.3v4.4h-3.3
				c-0.6,0-1.1,0.5-1.1,1.1c0,0.6,0.5,1.1,1.1,1.1h3.3V25h-3.3c-0.6,0-1.1,0.5-1.1,1.1c0,0.6,0.5,1.1,1.1,1.1h3.3v4.4h-3.3
				c-0.6,0-1.1,0.5-1.1,1.1s0.5,1.1,1.1,1.1h3.3v4.4h-3.3c-0.6,0-1.1,0.5-1.1,1.1s0.5,1.1,1.1,1.1h3.3v4.4h-3.3
				c-0.6,0-1.1,0.5-1.1,1.1c0,0.6,0.5,1.1,1.1,1.1h3.3v2.2c0,3,2.5,5.5,5.5,5.5h2.2v3.3c0,0.6,0.5,1.1,1.1,1.1s1.1-0.5,1.1-1.1v-3.3
				h4.4v3.3c0,0.6,0.5,1.1,1.1,1.1c0.6,0,1.1-0.5,1.1-1.1v-3.3h4.4v3.3c0,0.6,0.5,1.1,1.1,1.1c0.6,0,1.1-0.5,1.1-1.1v-3.3h4.4v3.3
				c0,0.6,0.5,1.1,1.1,1.1c0.6,0,1.1-0.5,1.1-1.1v-3.3h4.4v3.3c0,0.6,0.5,1.1,1.1,1.1s1.1-0.5,1.1-1.1v-3.3h4.4v3.3
				c0,0.6,0.5,1.1,1.1,1.1c0.6,0,1.1-0.5,1.1-1.1v-3.3h2.2c3,0,5.5-2.5,5.5-5.5v-2.2h3.3c0.6,0,1.1-0.5,1.1-1.1
				c0-0.6-0.5-1.1-1.1-1.1h-3.3v-4.4h3.3c0.6,0,1.1-0.5,1.1-1.1s-0.5-1.1-1.1-1.1h-3.3v-4.4h3.3c0.6,0,1.1-0.5,1.1-1.1
				s-0.5-1.1-1.1-1.1h-3.3v-4.4h3.3c0.6,0,1.1-0.5,1.1-1.1c0-0.6-0.5-1.1-1.1-1.1h-3.3v-4.4L-192.3,20.6L-192.3,20.6z M-197.8,49.2
				c0,1.8-1.5,3.3-3.3,3.3h-39.5c-1.8,0-3.3-1.5-3.3-3.3V9.6c0-1.8,1.5-3.3,3.3-3.3h39.5c1.8,0,3.3,1.5,3.3,3.3V49.2L-197.8,49.2z
				 M-203.3,9.6h-35.1c-1.2,0-2.2,1-2.2,2.2v35.1c0,1.2,1,2.2,2.2,2.2h35.1c1.2,0,2.2-1,2.2-2.2V11.8
				C-201.1,10.6-202.1,9.6-203.3,9.6z M-211.4,38.8h-18.5V20.3h18.5V38.8z M-237.8,7.5H-30v44h-207.8V7.5z"/>
		</g>
	</g>
</g>
<g id="cpu_13_">
	<rect id="cpu_fill_3_" x="-237.5" y="7.7" class="st11" width="157.7" height="43"/>
	<g id="cpu_17_">
		<path class="st8" d="M-134.9,20.6c0.6,0,1.1-0.5,1.1-1.1c0-0.6-0.5-1.1-1.1-1.1h-3.3v-4.3h3.3c0.6,0,1.1-0.5,1.1-1.1
			c0-0.6-0.5-1.1-1.1-1.1h-3.3V9.8c0-3-2.5-5.4-5.5-5.4h-2.2V1.2c0-0.6-0.5-1.1-1.1-1.1c-0.6,0-1.1,0.5-1.1,1.1v3.2h-4.4V1.2
			c0-0.6-0.5-1.1-1.1-1.1c-0.6,0-1.1,0.5-1.1,1.1v3.2h-4.4V1.2c0-0.6-0.5-1.1-1.1-1.1s-1.1,0.5-1.1,1.1v3.2h-4.4V1.2
			c0-0.6-0.5-1.1-1.1-1.1s-1.1,0.5-1.1,1.1v3.2h-4.4V1.2c0-0.6-0.5-1.1-1.1-1.1s-1.1,0.5-1.1,1.1v3.2h-4.4V1.2
			c0-0.6-0.5-1.1-1.1-1.1c-0.6,0-1.1,0.5-1.1,1.1v3.2h-2.2c-3,0-5.5,2.4-5.5,5.4V12h-3.3c-0.6,0-1.1,0.5-1.1,1.1
			c0,0.6,0.5,1.1,1.1,1.1h3.3v4.3h-3.3c-0.6,0-1.1,0.5-1.1,1.1s0.5,1.1,1.1,1.1h3.3v4.3h-3.3c-0.6,0-1.1,0.5-1.1,1.1
			s0.5,1.1,1.1,1.1h3.3v4.3h-3.3c-0.6,0-1.1,0.5-1.1,1.1c0,0.6,0.5,1.1,1.1,1.1h3.3v4.3h-3.3c-0.6,0-1.1,0.5-1.1,1.1
			s0.5,1.1,1.1,1.1h3.3v4.3h-3.3c-0.6,0-1.1,0.5-1.1,1.1s0.5,1.1,1.1,1.1h3.3v2.2c0,3,2.5,5.4,5.5,5.4h2.2v3.2
			c0,0.6,0.5,1.1,1.1,1.1c0.6,0,1.1-0.5,1.1-1.1v-3.2h4.4v3.2c0,0.6,0.5,1.1,1.1,1.1s1.1-0.5,1.1-1.1v-3.2h4.4v3.2
			c0,0.6,0.5,1.1,1.1,1.1s1.1-0.5,1.1-1.1v-3.2h4.4v3.2c0,0.6,0.5,1.1,1.1,1.1s1.1-0.5,1.1-1.1v-3.2h4.4v3.2c0,0.6,0.5,1.1,1.1,1.1
			c0.6,0,1.1-0.5,1.1-1.1v-3.2h4.4v3.2c0,0.6,0.5,1.1,1.1,1.1s1.1-0.5,1.1-1.1v-3.2h2.2c3,0,5.5-2.4,5.5-5.4v-2.2h3.3
			c0.6,0,1.1-0.5,1.1-1.1c0-0.6-0.5-1.1-1.1-1.1h-3.3v-4.3h3.3c0.6,0,1.1-0.5,1.1-1.1c0-0.6-0.5-1.1-1.1-1.1h-3.3v-4.3h3.3
			c0.6,0,1.1-0.5,1.1-1.1c0-0.6-0.5-1.1-1.1-1.1h-3.3V27h3.3c0.6,0,1.1-0.5,1.1-1.1s-0.5-1.1-1.1-1.1h-3.3v-4.3L-134.9,20.6
			L-134.9,20.6z M-140.4,48.5c0,1.8-1.5,3.2-3.3,3.2h-39.5c-1.8,0-3.3-1.4-3.3-3.2V9.8c0-1.8,1.5-3.2,3.3-3.2h39.5
			c1.8,0,3.3,1.4,3.3,3.2V48.5L-140.4,48.5z"/>
		<path class="st8" d="M-145.9,9.8H-181c-1.2,0-2.2,1-2.2,2.1v34.3c0,1.2,1,2.1,2.2,2.1h35.1c1.2,0,2.2-1,2.2-2.1V12
			C-143.7,10.8-144.7,9.8-145.9,9.8z M-154,38.4h-18.5V20.3h18.5V38.4z"/>
	</g>
	<g id="cpu_16_">
		<path class="st8" d="M-78.6,20.6c0.6,0,1.1-0.5,1.1-1.1c0-0.6-0.5-1.1-1.1-1.1h-3.3v-4.3h3.3c0.6,0,1.1-0.5,1.1-1.1
			c0-0.6-0.5-1.1-1.1-1.1h-3.3V9.8c0-3-2.5-5.4-5.5-5.4h-2.2V1.2c0-0.6-0.5-1.1-1.1-1.1c-0.6,0-1.1,0.5-1.1,1.1v3.2h-4.4V1.2
			c0-0.6-0.5-1.1-1.1-1.1c-0.6,0-1.1,0.5-1.1,1.1v3.2h-4.4V1.2c0-0.6-0.5-1.1-1.1-1.1c-0.6,0-1.1,0.5-1.1,1.1v3.2h-4.4V1.2
			c0-0.6-0.5-1.1-1.1-1.1s-1.1,0.5-1.1,1.1v3.2h-4.4V1.2c0-0.6-0.5-1.1-1.1-1.1c-0.6,0-1.1,0.5-1.1,1.1v3.2h-4.4V1.2
			c0-0.6-0.5-1.1-1.1-1.1s-1.1,0.5-1.1,1.1v3.2h-2.2c-3,0-5.5,2.4-5.5,5.4V12h-3.3c-0.6,0-1.1,0.5-1.1,1.1c0,0.6,0.5,1.1,1.1,1.1
			h3.3v4.3h-3.3c-0.6,0-1.1,0.5-1.1,1.1c0,0.6,0.5,1.1,1.1,1.1h3.3v4.3h-3.3c-0.6,0-1.1,0.5-1.1,1.1s0.5,1.1,1.1,1.1h3.3v4.3h-3.3
			c-0.6,0-1.1,0.5-1.1,1.1c0,0.6,0.5,1.1,1.1,1.1h3.3v4.3h-3.3c-0.6,0-1.1,0.5-1.1,1.1c0,0.6,0.5,1.1,1.1,1.1h3.3v4.3h-3.3
			c-0.6,0-1.1,0.5-1.1,1.1s0.5,1.1,1.1,1.1h3.3v2.2c0,3,2.5,5.4,5.5,5.4h2.2v3.2c0,0.6,0.5,1.1,1.1,1.1c0.6,0,1.1-0.5,1.1-1.1v-3.2
			h4.4v3.2c0,0.6,0.5,1.1,1.1,1.1c0.6,0,1.1-0.5,1.1-1.1v-3.2h4.4v3.2c0,0.6,0.5,1.1,1.1,1.1s1.1-0.5,1.1-1.1v-3.2h4.4v3.2
			c0,0.6,0.5,1.1,1.1,1.1c0.6,0,1.1-0.5,1.1-1.1v-3.2h4.4v3.2c0,0.6,0.5,1.1,1.1,1.1c0.6,0,1.1-0.5,1.1-1.1v-3.2h4.4v3.2
			c0,0.6,0.5,1.1,1.1,1.1s1.1-0.5,1.1-1.1v-3.2h2.2c3,0,5.5-2.4,5.5-5.4v-2.2h3.3c0.6,0,1.1-0.5,1.1-1.1c0-0.6-0.5-1.1-1.1-1.1h-3.3
			v-4.3h3.3c0.6,0,1.1-0.5,1.1-1.1s-0.5-1.1-1.1-1.1h-3.3v-4.3h3.3c0.6,0,1.1-0.5,1.1-1.1c0-0.6-0.5-1.1-1.1-1.1h-3.3V27h3.3
			c0.6,0,1.1-0.5,1.1-1.1c0-0.6-0.5-1.1-1.1-1.1h-3.3v-4.3L-78.6,20.6L-78.6,20.6z M-84.1,48.5c0,1.8-1.5,3.2-3.3,3.2H-127
			c-1.8,0-3.3-1.4-3.3-3.2V9.8c0-1.8,1.5-3.2,3.3-3.2h39.5c1.8,0,3.3,1.4,3.3,3.2V48.5L-84.1,48.5z"/>
		<path class="st8" d="M-89.7,9.8h-35.1c-1.2,0-2.2,1-2.2,2.1v34.3c0,1.2,1,2.1,2.2,2.1h35.1c1.2,0,2.2-1,2.2-2.1V12
			C-87.5,10.8-88.4,9.8-89.7,9.8z M-97.8,38.3h-18.5V20.3h18.5V38.3z"/>
	</g>
	<g id="cpu_15_">
		<path class="st8" d="M-22.1,20.6c0.6,0,1.1-0.5,1.1-1.1c0-0.6-0.5-1.1-1.1-1.1h-3.3v-4.3h3.3c0.6,0,1.1-0.5,1.1-1.1
			c0-0.6-0.5-1.1-1.1-1.1h-3.3V9.8c0-3-2.5-5.4-5.5-5.4h-2.2V1.2c0-0.6-0.5-1.1-1.1-1.1c-0.6,0-1.1,0.5-1.1,1.1v3.2h-4.4V1.2
			c0-0.6-0.5-1.1-1.1-1.1s-1.1,0.5-1.1,1.1v3.2h-4.4V1.2c0-0.6-0.5-1.1-1.1-1.1s-1.1,0.5-1.1,1.1v3.2h-4.4V1.2
			c0-0.6-0.5-1.1-1.1-1.1S-55,0.6-55,1.2v3.2h-4.4V1.2c0-0.6-0.5-1.1-1.1-1.1c-0.6,0-1.1,0.5-1.1,1.1v3.2H-66V1.2
			c0-0.6-0.5-1.1-1.1-1.1c-0.6,0-1.1,0.5-1.1,1.1v3.2h-2.2c-3,0-5.5,2.4-5.5,5.4V12h-3.3c-0.6,0-1.1,0.5-1.1,1.1
			c0,0.6,0.5,1.1,1.1,1.1h3.3v4.3h-3.3c-0.6,0-1.1,0.5-1.1,1.1s0.5,1.1,1.1,1.1h3.3v4.3h-3.3c-0.6,0-1.1,0.5-1.1,1.1
			s0.5,1.1,1.1,1.1h3.3v4.3h-3.3c-0.6,0-1.1,0.5-1.1,1.1s0.5,1.1,1.1,1.1h3.3v4.3h-3.3c-0.6,0-1.1,0.5-1.1,1.1s0.5,1.1,1.1,1.1h3.3
			v4.3h-3.3c-0.6,0-1.1,0.5-1.1,1.1s0.5,1.1,1.1,1.1h3.3v2.2c0,3,2.5,5.4,5.5,5.4h2.2v3.2c0,0.6,0.5,1.1,1.1,1.1s1.1-0.5,1.1-1.1
			v-3.2h4.4v3.2c0,0.6,0.5,1.1,1.1,1.1c0.6,0,1.1-0.5,1.1-1.1v-3.2h4.4v3.2c0,0.6,0.5,1.1,1.1,1.1s1.1-0.5,1.1-1.1v-3.2h4.4v3.2
			c0,0.6,0.5,1.1,1.1,1.1c0.6,0,1.1-0.5,1.1-1.1v-3.2h4.4v3.2c0,0.6,0.5,1.1,1.1,1.1s1.1-0.5,1.1-1.1v-3.2h4.4v3.2
			c0,0.6,0.5,1.1,1.1,1.1c0.6,0,1.1-0.5,1.1-1.1v-3.2h2.2c3,0,5.5-2.4,5.5-5.4v-2.2h3.3c0.6,0,1.1-0.5,1.1-1.1
			c0-0.6-0.5-1.1-1.1-1.1h-3.3v-4.3h3.3c0.6,0,1.1-0.5,1.1-1.1c0-0.6-0.5-1.1-1.1-1.1h-3.3v-4.3h3.3c0.6,0,1.1-0.5,1.1-1.1
			c0-0.6-0.5-1.1-1.1-1.1h-3.3V27h3.3c0.6,0,1.1-0.5,1.1-1.1s-0.5-1.1-1.1-1.1h-3.3v-4.3L-22.1,20.6L-22.1,20.6z M-27.6,48.5
			c0,1.8-1.5,3.2-3.3,3.2h-39.5c-1.8,0-3.3-1.4-3.3-3.2V9.8c0-1.8,1.5-3.2,3.3-3.2h39.5c1.8,0,3.3,1.4,3.3,3.2V48.5L-27.6,48.5z"/>
		<path class="st8" d="M-33.1,9.8h-35.1c-1.2,0-2.2,1-2.2,2.1v34.3c0,1.2,1,2.1,2.2,2.1h35.1c1.2,0,2.2-1,2.2-2.1V12
			C-30.9,10.8-31.9,9.8-33.1,9.8z M-41.2,38.4h-18.5V20.3h18.5V38.4z"/>
	</g>
	<g id="cpu_14_">
		<path class="st8" d="M-192.1,20.6c0.6,0,1.1-0.5,1.1-1.1c0-0.6-0.5-1.1-1.1-1.1h-3.3v-4.3h3.3c0.6,0,1.1-0.5,1.1-1.1
			c0-0.6-0.5-1.1-1.1-1.1h-3.3V9.8c0-3-2.5-5.4-5.5-5.4h-2.2V1.2c0-0.6-0.5-1.1-1.1-1.1c-0.6,0-1.1,0.5-1.1,1.1v3.2h-4.4V1.2
			c0-0.6-0.5-1.1-1.1-1.1s-1.1,0.5-1.1,1.1v3.2h-4.4V1.2c0-0.6-0.5-1.1-1.1-1.1c-0.6,0-1.1,0.5-1.1,1.1v3.2h-4.4V1.2
			c0-0.6-0.5-1.1-1.1-1.1c-0.6,0-1.1,0.5-1.1,1.1v3.2h-4.4V1.2c0-0.6-0.5-1.1-1.1-1.1c-0.6,0-1.1,0.5-1.1,1.1v3.2h-4.4V1.2
			c0-0.6-0.5-1.1-1.1-1.1s-1.1,0.5-1.1,1.1v3.2h-2.2c-3,0-5.5,2.4-5.5,5.4V12h-3.3c-0.6,0-1.1,0.5-1.1,1.1c0,0.6,0.5,1.1,1.1,1.1
			h3.3v4.3h-3.3c-0.6,0-1.1,0.5-1.1,1.1c0,0.6,0.5,1.1,1.1,1.1h3.3v4.3h-3.3c-0.6,0-1.1,0.5-1.1,1.1s0.5,1.1,1.1,1.1h3.3v4.3h-3.3
			c-0.6,0-1.1,0.5-1.1,1.1c0,0.6,0.5,1.1,1.1,1.1h3.3v4.3h-3.3c-0.6,0-1.1,0.5-1.1,1.1s0.5,1.1,1.1,1.1h3.3v4.3h-3.3
			c-0.6,0-1.1,0.5-1.1,1.1s0.5,1.1,1.1,1.1h3.3v2.2c0,3,2.5,5.4,5.5,5.4h2.2v3.2c0,0.6,0.5,1.1,1.1,1.1s1.1-0.5,1.1-1.1v-3.2h4.4
			v3.2c0,0.6,0.5,1.1,1.1,1.1c0.6,0,1.1-0.5,1.1-1.1v-3.2h4.4v3.2c0,0.6,0.5,1.1,1.1,1.1c0.6,0,1.1-0.5,1.1-1.1v-3.2h4.4v3.2
			c0,0.6,0.5,1.1,1.1,1.1c0.6,0,1.1-0.5,1.1-1.1v-3.2h4.4v3.2c0,0.6,0.5,1.1,1.1,1.1s1.1-0.5,1.1-1.1v-3.2h4.4v3.2
			c0,0.6,0.5,1.1,1.1,1.1c0.6,0,1.1-0.5,1.1-1.1v-3.2h2.2c3,0,5.5-2.4,5.5-5.4v-2.2h3.3c0.6,0,1.1-0.5,1.1-1.1
			c0-0.6-0.5-1.1-1.1-1.1h-3.3v-4.3h3.3c0.6,0,1.1-0.5,1.1-1.1s-0.5-1.1-1.1-1.1h-3.3v-4.3h3.3c0.6,0,1.1-0.5,1.1-1.1
			c0-0.6-0.5-1.1-1.1-1.1h-3.3V27h3.3c0.6,0,1.1-0.5,1.1-1.1s-0.5-1.1-1.1-1.1h-3.3v-4.3L-192.1,20.6L-192.1,20.6z M-197.6,48.5
			c0,1.8-1.5,3.2-3.3,3.2h-39.5c-1.8,0-3.3-1.4-3.3-3.2V9.8c0-1.8,1.5-3.2,3.3-3.2h39.5c1.8,0,3.3,1.4,3.3,3.2V48.5L-197.6,48.5z"/>
		<path class="st8" d="M-203.1,9.8h-35.1c-1.2,0-2.2,1-2.2,2.1v34.3c0,1.2,1,2.1,2.2,2.1h35.1c1.2,0,2.2-1,2.2-2.1V12
			C-200.9,10.8-201.9,9.8-203.1,9.8z M-211.2,38.4h-18.5V20.3h18.5V38.4z"/>
	</g>
	<rect id="cpu_back_3_" x="-237.5" y="7.7" class="st12" width="207.8" height="43"/>
</g>
<g id="memory_1_" class="st13">
	<g id="memory_12_" class="st1">
		<path class="st8" d="M222.3,12v-1.7h4.5V7.5h-4.5V6.4h-4.4V0h-30.2v6.3h-4.5v1.1h-4.5v2.8h4.5v1.7h4.5v3.8h-4.5v1.1h-4.5v2.8h4.5
			v1.7h4.5v4.4h-4.5v1.1h-4.5v2.8h4.5v1.7h4.5v4.1h-4.5v1.1h-4.5v2.8h4.5v1.7h4.5v3.7h-4.5V46h-4.5v2.8h4.5v1.7h4.5v6.3h30.2v-6.2
			h4.4v-1.7h4.5v-2.8h-4.5V45h-4.4v-3.7h4.4v-1.7h4.5v-2.8h-4.5v-1.1h-4.4v-4.1h4.4v-1.7h4.5V27h-4.5v-1.1h-4.4v-4.4h4.4v-1.7h4.5
			V17h-4.5v-1.1h-4.4V12L222.3,12L222.3,12L222.3,12z M211.2,7.5c-1.3,0-2.3-1-2.3-2.3c0-1.3,1-2.3,2.3-2.3c1.3,0,2.3,1,2.3,2.3
			C213.5,6.5,212.5,7.5,211.2,7.5z"/>
	</g>
	<g id="memory_5_" class="st1">
		<path class="st8" d="M43.6,12v-1.7h4.5V7.5h-4.5V6.4h-4.4V0H9v6.3H4.4v1.1h-4.5v2.8h4.5v1.7H9v3.8H4.4v1.1h-4.5v2.8h4.5v1.7H9v4.4
			H4.4v1.1h-4.5v2.8h4.5v1.7H9v4.1H4.4v1.1h-4.5v2.8h4.5v1.7H9v3.7H4.4V46h-4.5v2.8h4.5v1.7H9v6.3h30.2v-6.2h4.4v-1.7h4.5v-2.8h-4.5
			V45h-4.4v-3.7h4.4v-1.7h4.5v-2.8h-4.5v-1.1h-4.4v-4.1h4.4v-1.7h4.5V27h-4.5v-1.1h-4.4v-4.4h4.4v-1.7h4.5V17h-4.5v-1.1h-4.4V12
			L43.6,12L43.6,12L43.6,12L43.6,12z M32.5,7.5c-1.3,0-2.3-1-2.3-2.3c0-1.3,1-2.3,2.3-2.3c1.3,0,2.3,1,2.3,2.3
			C34.8,6.5,33.8,7.5,32.5,7.5z"/>
	</g>
	<g id="memory_4_" class="st1">
		<path class="st8" d="M87.8,12v-1.7h4.5V7.5h-4.5V6.4h-4.4V0H53.2v6.3h-4.5v1.1h-4.5v2.8h4.5v1.7h4.5v3.8h-4.5v1.1h-4.5v2.8h4.5
			v1.7h4.5v4.4h-4.5v1.1h-4.5v2.8h4.5v1.7h4.5v4.1h-4.5v1.1h-4.5v2.8h4.5v1.7h4.5v3.7h-4.5V46h-4.5v2.8h4.5v1.7h4.5v6.3h30.2v-6.2
			h4.4v-1.7h4.5v-2.8h-4.5V45h-4.4v-3.7h4.4v-1.7h4.5v-2.8h-4.5v-1.1h-4.4v-4.1h4.4v-1.7h4.5V27h-4.5v-1.1h-4.4v-4.4h4.4v-1.7h4.5
			V17h-4.5v-1.1h-4.4V12L87.8,12L87.8,12L87.8,12L87.8,12z M76.7,7.5c-1.3,0-2.3-1-2.3-2.3c0-1.3,1-2.3,2.3-2.3c1.3,0,2.3,1,2.3,2.3
			C79.1,6.5,78,7.5,76.7,7.5z"/>
	</g>
	<g id="memory_3_" class="st1">
		<path class="st8" d="M132.8,12v-1.7h4.5V7.5h-4.5V6.4h-4.4V0H98.2v6.3h-4.5v1.1h-4.5v2.8h4.5v1.7h4.5v3.8h-4.5v1.1h-4.5v2.8h4.5
			v1.7h4.5v4.4h-4.5v1.1h-4.5v2.8h4.5v1.7h4.5v4.1h-4.5v1.1h-4.5v2.8h4.5v1.7h4.5v3.7h-4.5V46h-4.5v2.8h4.5v1.7h4.5v6.3h30.2v-6.2
			h4.4v-1.7h4.5v-2.8h-4.5V45h-4.4v-3.7h4.4v-1.7h4.5v-2.8h-4.5v-1.1h-4.4v-4.1h4.4v-1.7h4.5V27h-4.5v-1.1h-4.4v-4.4h4.4v-1.7h4.5
			V17h-4.5v-1.1h-4.4V12L132.8,12L132.8,12L132.8,12z M121.7,7.5c-1.3,0-2.3-1-2.3-2.3c0-1.3,1-2.3,2.3-2.3c1.3,0,2.3,1,2.3,2.3
			C124,6.5,123,7.5,121.7,7.5z"/>
	</g>
	<g id="memory_2_" class="st1">
		<path class="st8" d="M177.1,12v-1.7h4.5V7.5h-4.5V6.4h-4.4V0h-30.2v6.3h-4.5v1.1h-4.5v2.8h4.5v1.7h4.5v3.8h-4.5v1.1h-4.5v2.8h4.5
			v1.7h4.5v4.4h-4.5v1.1h-4.5v2.8h4.5v1.7h4.5v4.1h-4.5v1.1h-4.5v2.8h4.5v1.7h4.5v3.7h-4.5V46h-4.5v2.8h4.5v1.7h4.5v6.3h30.2v-6.2
			h4.4v-1.7h4.5v-2.8h-4.5V45h-4.4v-3.7h4.4v-1.7h4.5v-2.8h-4.5v-1.1h-4.4v-4.1h4.4v-1.7h4.5V27h-4.5v-1.1h-4.4v-4.4h4.4v-1.7h4.5
			V17h-4.5v-1.1h-4.4V12L177.1,12L177.1,12L177.1,12z M166,7.5c-1.3,0-2.3-1-2.3-2.3c0-1.3,1-2.3,2.3-2.3c1.3,0,2.3,1,2.3,2.3
			C168.3,6.5,167.3,7.5,166,7.5z"/>
	</g>
</g>
</svg>
